<?xml version="1.0" encoding="UTF-8" standalone="no"?>
<svg
   xmlns:dc="http://purl.org/dc/elements/1.1/"
   xmlns:cc="http://creativecommons.org/ns#"
   xmlns:rdf="http://www.w3.org/1999/02/22-rdf-syntax-ns#"
   xmlns:svg="http://www.w3.org/2000/svg"
   xmlns="http://www.w3.org/2000/svg"
   xmlns:sodipodi="http://sodipodi.sourceforge.net/DTD/sodipodi-0.dtd"
   xmlns:inkscape="http://www.inkscape.org/namespaces/inkscape"
   version="1.1"
   id="Capa_1"
   x="0px"
   y="0px"
   width="80px"
   height="80px"
   viewBox="0 0 80 80"
   style="enable-background:new 0 0 80 80;"
   xml:space="preserve"
   sodipodi:docname="icon-financial.svg"
   inkscape:version="1.0.1 (3bc2e813f5, 2020-09-07)"><metadata
   id="metadata59"><rdf:RDF><cc:Work
       rdf:about=""><dc:format>image/svg+xml</dc:format><dc:type
         rdf:resource="http://purl.org/dc/dcmitype/StillImage" /><dc:title></dc:title></cc:Work></rdf:RDF></metadata><defs
   id="defs57" /><sodipodi:namedview
   pagecolor="#ffffff"
   bordercolor="#666666"
   borderopacity="1"
   objecttolerance="10"
   gridtolerance="10"
   guidetolerance="10"
   inkscape:pageopacity="0"
   inkscape:pageshadow="2"
   inkscape:window-width="1280"
   inkscape:window-height="961"
   id="namedview55"
   showgrid="false"
   inkscape:zoom="3.2482718"
   inkscape:cx="16.800864"
   inkscape:cy="72.417384"
   inkscape:window-x="-8"
   inkscape:window-y="-8"
   inkscape:window-maximized="1"
   inkscape:current-layer="Capa_1" />
<g
   id="g22">
	<g
   id="g20">
		
		
		<path
   d="m 40.307856,79.692144 c 22.091,0 40,-17.909 40,-40 0,-22.092 -17.909,-40.00000001 -40,-40.00000001 -22.092,0 -39.99999999,17.90800001 -39.99999999,40.00000001 0,22.091 17.90799999,40 39.99999999,40 z m 12.301,-18.271 c 0,0.554 -0.447,1 -1,1 h -8.074 -7.985 c -0.03,0.004 -0.056,0.019 -0.087,0.019 h -8.072 c -0.553,0 -1,-0.446 -1,-1 v -5.841 c 0,-0.553 0.447,-1 1,-1 h 7.985 c 0.03,-0.003 0.056,-0.018 0.087,-0.018 h 8.072 8.074 c 0.553,0 1,0.446 1,1 z m -2.848,-22.681 c 0.553,0 1,0.447 1,1 0,0.554 -0.447,1 -1,1 h -21.985 c -0.553,0 -1,-0.446 -1,-1 v -15.916 c 0,-0.553 0.447,-1 1,-1 0.553,0 1,0.447 1,1 v 14.916 z m -19.721,-3.782 v -4.78 c 0,-0.553 0.447,-1 1,-1 0.553,0 1,0.447 1,1 v 4.779 c 0,0.553 -0.447,1 -1,1 -0.553,0 -1,-0.447 -1,-0.999 z m 3.434,0 v -7.7 c 0,-0.553 0.447,-1 1,-1 0.553,0 1,0.447 1,1 v 7.699 c 0,0.553 -0.447,1 -1,1 -0.553,0 -1,-0.447 -1,-0.999 z m 4.294,0 v -3.85 c 0,-0.553 0.447,-1 1,-1 0.553,0 1,0.447 1,1 v 3.85 c 0,0.553 -0.447,1 -1,1 -0.553,0 -1,-0.448 -1,-1 z m 12.979,14.744 c 0,1.75 -1.425,3.176 -3.176,3.176 -1.751,0 -3.176,-1.426 -3.176,-3.176 0,-1.75 1.425,-3.175 3.176,-3.175 1.751,0 3.176,1.425 3.176,3.175 z m -8.074,0 c 0,1.75 -1.424,3.176 -3.175,3.176 -1.751,0 -3.175,-1.426 -3.175,-3.176 0,-1.75 1.424,-3.175 3.175,-3.175 1.751,0 3.175,1.425 3.175,3.175 z m -8.072,0.016 c 0,1.751 -1.425,3.176 -3.176,3.176 -1.751,0 -3.175,-1.425 -3.175,-3.176 0,-1.75 1.424,-3.175 3.175,-3.175 1.751,0 3.176,1.425 3.176,3.175 z m 19.643,-5.723 c 0,0.553 -0.447,1 -1,1 -0.553,0 -1,-0.447 -1,-1 v -9.85 l -7.824,-3.034 c -0.516,-0.2 -0.771,-0.779 -0.57,-1.294 0.199,-0.516 0.781,-0.771 1.294,-0.571 l 8.463,3.282 c 0.005,0.002 0.008,0.006 0.013,0.008 0.081,0.033 0.147,0.087 0.217,0.139 0.035,0.027 0.08,0.044 0.11,0.074 0.048,0.048 0.076,0.109 0.114,0.165 0.033,0.051 0.076,0.095 0.102,0.15 0.018,0.041 0.018,0.09 0.03,0.135 0.022,0.081 0.049,0.162 0.05,0.248 0,0.005 0.004,0.009 0.004,0.014 v 10.534 z m -0.334,-15.574 c 0,-1.751 1.426,-3.175 3.176,-3.175 1.752,0 3.176,1.424 3.176,3.175 0,1.751 -1.424,3.176 -3.176,3.176 -1.751,0 -3.176,-1.425 -3.176,-3.176 z m 3.888,12.137 c 0,0.553 -0.447,1 -1,1 -0.553,0 -1,-0.447 -1,-1 v -7.098 c 0,-0.553 0.447,-1 1,-1 0.553,0 1,0.447 1,1 z m 2.859,-7.804 5.552,5.554 c 0.392,0.391 0.392,1.023 0,1.414 l -4.752,4.752 c -0.195,0.194 -0.451,0.293 -0.707,0.293 -0.051,0 -0.099,-0.021 -0.147,-0.029 -0.177,0.154 -0.399,0.257 -0.652,0.257 -0.553,0 -1,-0.447 -1,-1 v -10.535 c 0,-0.13 0.026,-0.26 0.077,-0.382 0.102,-0.245 0.296,-0.439 0.541,-0.541 0.244,-0.102 0.52,-0.102 0.764,0 0.121,0.051 0.232,0.125 0.324,0.217 z m -37.691,-12.822 h 36.295 c 0.553,0 1,0.447 1,1 0,0.553 -0.447,1 -1,1 h -36.295 c -0.553,0 -1,-0.447 -1,-1 0,-0.553 0.448,-1 1,-1 z"
   id="path6"
   style="fill:#1a8040;fill-opacity:1" />
		
		
		
		
		
		
	</g>
</g>
<g
   id="g24">
</g>
<g
   id="g26">
</g>
<g
   id="g28">
</g>
<g
   id="g30">
</g>
<g
   id="g32">
</g>
<g
   id="g34">
</g>
<g
   id="g36">
</g>
<g
   id="g38">
</g>
<g
   id="g40">
</g>
<g
   id="g42">
</g>
<g
   id="g44">
</g>
<g
   id="g46">
</g>
<g
   id="g48">
</g>
<g
   id="g50">
</g>
<g
   id="g52">
</g>
<ellipse
   style="fill:#1a8040;fill-opacity:1;stroke-width:1.046"
   id="path884"
   cx="41.637527"
   cy="38.943787"
   rx="26.860437"
   ry="30.323818" /><ellipse
   style="fill:#1a8040;fill-opacity:1"
   id="path886"
   cx="44.485195"
   cy="47.101971"
   rx="1.8471361"
   ry="1.385352" /><g
   id="g874"
   transform="matrix(0.09903945,0,0,0.10194746,18.697808,18.210654)" /><g
   id="g938"
   transform="matrix(0.09587082,0,0,0.09587082,22.927341,18.477306)"
   style="fill:#ffffff;fill-opacity:1"><g
     id="g1541"
     style="fill:#ffffff;fill-opacity:1"><g
       id="g932"><g
         id="g937"
         transform="translate(-20.861405)"><path
           d="m 43.841,281.457 c -18.585,-44.869 -18.586,-94.29 0,-139.159 15.615,-37.697 42.78,-68.384 77.674,-88.255 v 60.863 h 30 V 15.053 H 51.662 v 30 h 29.613 c -73,57.164 -102.324,158.139 -65.15,247.885 14.167,34.202 37.07,64.159 66.234,86.634 28.274,21.789 61.873,36.201 97.162,41.677 l 4.601,-29.646 C 120.778,381.774 68.338,340.598 43.841,281.457 Z"
           id="path932"
           style="fill:#ffffff;fill-opacity:1" /><path
           d="m 407.517,292.938 c 21.652,-52.272 21.652,-109.848 0,-162.12 C 393.35,96.616 370.447,66.659 341.283,44.185 313.008,22.395 279.41,7.983 244.121,2.507 l -4.601,29.646 c 63.342,9.829 115.783,51.005 140.28,110.146 18.586,44.869 18.586,94.29 0,139.159 -15.615,37.697 -42.78,68.385 -77.674,88.255 V 308.85 h -30 v 99.853 h 99.853 v -30 h -29.482 c 28.452,-22.217 50.83,-51.508 65.02,-85.765 z"
           id="path934"
           style="fill:#ffffff;fill-opacity:1" /><path
           d="m 239.874,166.715 h 30 c 0,-26.824 -18.291,-49.448 -43.053,-56.078 V 98.058 h -30 v 12.579 c -24.762,6.63 -43.053,29.253 -43.053,56.078 0,27.442 14.402,47.104 40.552,55.365 l 2.501,0.79 v 57.858 c -7.838,-4.981 -13.053,-13.734 -13.053,-23.688 h -30 c 0,26.824 18.291,49.448 43.053,56.078 v 12.579 h 30 v -12.579 c 24.762,-6.63 43.053,-29.253 43.053,-56.078 0,-27.442 -14.402,-47.104 -40.552,-55.365 l -2.501,-0.79 v -57.858 c 7.837,4.981 13.053,13.734 13.053,23.688 z m -43.054,24.096 c -9.068,-4.708 -13.053,-12.223 -13.053,-24.096 0,-9.954 5.216,-18.708 13.053,-23.688 z m 43.054,66.229 c 0,9.954 -5.216,18.708 -13.053,23.688 v -47.784 c 9.068,4.709 13.053,12.224 13.053,24.096 z"
           id="path936"
           style="fill:#ffffff;fill-opacity:1" /></g></g></g><g
     id="g1549"
     style="fill:#ffffff;fill-opacity:1" /></g></svg>
