<?xml version="1.0" encoding="UTF-8" standalone="no"?>
<svg
   xmlns:dc="http://purl.org/dc/elements/1.1/"
   xmlns:cc="http://creativecommons.org/ns#"
   xmlns:rdf="http://www.w3.org/1999/02/22-rdf-syntax-ns#"
   xmlns:svg="http://www.w3.org/2000/svg"
   xmlns="http://www.w3.org/2000/svg"
   xmlns:sodipodi="http://sodipodi.sourceforge.net/DTD/sodipodi-0.dtd"
   xmlns:inkscape="http://www.inkscape.org/namespaces/inkscape"
   version="1.1"
   id="Capa_1"
   x="0px"
   y="0px"
   width="80px"
   height="80px"
   viewBox="0 0 80 80"
   style="enable-background:new 0 0 80 80;"
   xml:space="preserve"
   sodipodi:docname="icon-spreadsheet.svg"
   inkscape:version="1.0.1 (3bc2e813f5, 2020-09-07)"><metadata
   id="metadata59"><rdf:RDF><cc:Work
       rdf:about=""><dc:format>image/svg+xml</dc:format><dc:type
         rdf:resource="http://purl.org/dc/dcmitype/StillImage" /><dc:title></dc:title></cc:Work></rdf:RDF></metadata><defs
   id="defs57" /><sodipodi:namedview
   pagecolor="#ffffff"
   bordercolor="#666666"
   borderopacity="1"
   objecttolerance="10"
   gridtolerance="10"
   guidetolerance="10"
   inkscape:pageopacity="0"
   inkscape:pageshadow="2"
   inkscape:window-width="1280"
   inkscape:window-height="961"
   id="namedview55"
   showgrid="false"
   inkscape:zoom="3.2482718"
   inkscape:cx="19.682705"
   inkscape:cy="94.85932"
   inkscape:window-x="-8"
   inkscape:window-y="-8"
   inkscape:window-maximized="1"
   inkscape:current-layer="Capa_1" />
<g
   id="g22">
	<g
   id="g20">
		
		
		<path
   d="m 40.307856,79.692144 c 22.091,0 40,-17.909 40,-40 0,-22.092 -17.909,-40.00000001 -40,-40.00000001 -22.092,0 -39.99999999,17.90800001 -39.99999999,40.00000001 0,22.091 17.90799999,40 39.99999999,40 z m 12.301,-18.271 c 0,0.554 -0.447,1 -1,1 h -8.074 -7.985 c -0.03,0.004 -0.056,0.019 -0.087,0.019 h -8.072 c -0.553,0 -1,-0.446 -1,-1 v -5.841 c 0,-0.553 0.447,-1 1,-1 h 7.985 c 0.03,-0.003 0.056,-0.018 0.087,-0.018 h 8.072 8.074 c 0.553,0 1,0.446 1,1 z m -2.848,-22.681 c 0.553,0 1,0.447 1,1 0,0.554 -0.447,1 -1,1 h -21.985 c -0.553,0 -1,-0.446 -1,-1 v -15.916 c 0,-0.553 0.447,-1 1,-1 0.553,0 1,0.447 1,1 v 14.916 z m -19.721,-3.782 v -4.78 c 0,-0.553 0.447,-1 1,-1 0.553,0 1,0.447 1,1 v 4.779 c 0,0.553 -0.447,1 -1,1 -0.553,0 -1,-0.447 -1,-0.999 z m 3.434,0 v -7.7 c 0,-0.553 0.447,-1 1,-1 0.553,0 1,0.447 1,1 v 7.699 c 0,0.553 -0.447,1 -1,1 -0.553,0 -1,-0.447 -1,-0.999 z m 4.294,0 v -3.85 c 0,-0.553 0.447,-1 1,-1 0.553,0 1,0.447 1,1 v 3.85 c 0,0.553 -0.447,1 -1,1 -0.553,0 -1,-0.448 -1,-1 z m 12.979,14.744 c 0,1.75 -1.425,3.176 -3.176,3.176 -1.751,0 -3.176,-1.426 -3.176,-3.176 0,-1.75 1.425,-3.175 3.176,-3.175 1.751,0 3.176,1.425 3.176,3.175 z m -8.074,0 c 0,1.75 -1.424,3.176 -3.175,3.176 -1.751,0 -3.175,-1.426 -3.175,-3.176 0,-1.75 1.424,-3.175 3.175,-3.175 1.751,0 3.175,1.425 3.175,3.175 z m -8.072,0.016 c 0,1.751 -1.425,3.176 -3.176,3.176 -1.751,0 -3.175,-1.425 -3.175,-3.176 0,-1.75 1.424,-3.175 3.175,-3.175 1.751,0 3.176,1.425 3.176,3.175 z m 19.643,-5.723 c 0,0.553 -0.447,1 -1,1 -0.553,0 -1,-0.447 -1,-1 v -9.85 l -7.824,-3.034 c -0.516,-0.2 -0.771,-0.779 -0.57,-1.294 0.199,-0.516 0.781,-0.771 1.294,-0.571 l 8.463,3.282 c 0.005,0.002 0.008,0.006 0.013,0.008 0.081,0.033 0.147,0.087 0.217,0.139 0.035,0.027 0.08,0.044 0.11,0.074 0.048,0.048 0.076,0.109 0.114,0.165 0.033,0.051 0.076,0.095 0.102,0.15 0.018,0.041 0.018,0.09 0.03,0.135 0.022,0.081 0.049,0.162 0.05,0.248 0,0.005 0.004,0.009 0.004,0.014 v 10.534 z m -0.334,-15.574 c 0,-1.751 1.426,-3.175 3.176,-3.175 1.752,0 3.176,1.424 3.176,3.175 0,1.751 -1.424,3.176 -3.176,3.176 -1.751,0 -3.176,-1.425 -3.176,-3.176 z m 3.888,12.137 c 0,0.553 -0.447,1 -1,1 -0.553,0 -1,-0.447 -1,-1 v -7.098 c 0,-0.553 0.447,-1 1,-1 0.553,0 1,0.447 1,1 z m 2.859,-7.804 5.552,5.554 c 0.392,0.391 0.392,1.023 0,1.414 l -4.752,4.752 c -0.195,0.194 -0.451,0.293 -0.707,0.293 -0.051,0 -0.099,-0.021 -0.147,-0.029 -0.177,0.154 -0.399,0.257 -0.652,0.257 -0.553,0 -1,-0.447 -1,-1 v -10.535 c 0,-0.13 0.026,-0.26 0.077,-0.382 0.102,-0.245 0.296,-0.439 0.541,-0.541 0.244,-0.102 0.52,-0.102 0.764,0 0.121,0.051 0.232,0.125 0.324,0.217 z m -37.691,-12.822 h 36.295 c 0.553,0 1,0.447 1,1 0,0.553 -0.447,1 -1,1 h -36.295 c -0.553,0 -1,-0.447 -1,-1 0,-0.553 0.448,-1 1,-1 z"
   id="path6"
   style="fill:#1a8040;fill-opacity:1" />
		
		
		
		
		
		
	</g>
</g>
<g
   id="g24">
</g>
<g
   id="g26">
</g>
<g
   id="g28">
</g>
<g
   id="g30">
</g>
<g
   id="g32">
</g>
<g
   id="g34">
</g>
<g
   id="g36">
</g>
<g
   id="g38">
</g>
<g
   id="g40">
</g>
<g
   id="g42">
</g>
<g
   id="g44">
</g>
<g
   id="g46">
</g>
<g
   id="g48">
</g>
<g
   id="g50">
</g>
<g
   id="g52">
</g>
<ellipse
   style="fill:#1a8040;fill-opacity:1;stroke-width:1.046"
   id="path884"
   cx="41.637527"
   cy="38.943787"
   rx="26.860437"
   ry="30.323818" /><ellipse
   style="fill:#1a8040;fill-opacity:1"
   id="path886"
   cx="44.485195"
   cy="47.101971"
   rx="1.8471361"
   ry="1.385352" /><g
   id="g874"
   transform="matrix(0.09903945,0,0,0.10194746,18.697808,18.210654)" /><path
   d="m 38.834915,46.403974 v -0.294758 c 0,-0.32365 0.05335,-0.642263 0.155969,-0.946485 h -1.223028 v -4.305358 h 1.066452 v -1.242204 h -1.066452 v -4.657025 h 9.314578 v 0.529671 h 1.242199 v -0.529671 h 9.554689 v 0.529671 h 1.242199 V 23.747134 c 0,-0.79867 -0.650418,-1.448483 -1.448827,-1.448483 H 21.796849 c -0.799102,0 -1.448567,0.650243 -1.448567,1.448483 v 31.736773 c 0,0.490285 0.246444,0.922803 0.620665,1.185213 v 0.228401 h 0.51978 c 0.09976,0.02189 0.202292,0.03475 0.308207,0.03475 H 38.835001 V 55.655224 H 37.768464 V 51.72296 h 1.105312 c -0.02333,-0.148426 -0.03869,-0.297537 -0.03869,-0.447526 v -0.794678 h -1.066537 v -4.077394 h 1.066537 v 6.09e-4 z m 9.489805,-22.86408 h 9.347714 c 0.113458,0 0.206975,0.09308 0.206975,0.20724 v 4.174282 H 48.32472 Z m 0,5.622946 h 9.554689 v 4.553538 H 48.32472 Z M 37.767856,23.539894 h 9.314578 v 4.381522 h -9.314578 z m 0,5.622946 h 9.314578 v 4.553538 H 37.767856 Z M 26.074364,55.655313 h -4.384907 c -0.05829,-0.03612 -0.09959,-0.09828 -0.09959,-0.172358 v -3.759906 h 4.484492 z m 0,-5.174554 h -4.484492 v -4.077394 h 4.484492 z m 0,-5.318552 h -4.484492 v -4.304834 h 4.484492 z m 0,-5.547038 h -4.484492 v -4.657025 h 4.484492 z m 0,-5.898791 H 21.589872 V 29.16284 h 4.484492 z m 10.452162,21.938935 h -9.211005 v -3.932264 h 9.21057 v 3.932264 z m 0,-5.174554 h -9.211005 v -4.077394 h 9.21057 v 4.077394 z m 0,-5.318552 h -9.211005 v -4.304834 h 9.21057 v 4.304834 z m 0,-5.547038 h -9.211005 v -4.657025 h 9.21057 v 4.657025 z m 0,-5.898791 H 27.315521 V 29.16284 h 9.21057 v 4.553538 z m 0,-5.795477 h -9.211005 v -4.381436 h 9.21057 v 4.381436 z m 2.154502,2.054054 h 7.453276 v 2.59222 H 38.681028 Z M 58.757796,36.70347 H 41.27481 c -0.313844,0 -0.567836,0.254512 -0.567836,0.568439 v 5.167012 c 0,0.313756 0.253471,0.567746 0.567836,0.567746 h 17.482986 c 0.313932,0 0.567924,-0.25399 0.567924,-0.567746 v -5.167012 c 0,-0.313927 -0.253992,-0.568439 -0.567924,-0.568439 z m -8.741536,4.498456 h -7.461864 v -2.985179 h 7.461864 z m 8.741536,3.123452 H 41.27481 c -0.313844,0 -0.567836,0.253904 -0.567836,0.567574 v 5.167269 c 0,0.313842 0.253471,0.568707 0.567836,0.568707 h 17.482986 c 0.313932,0 0.567924,-0.254428 0.567924,-0.568707 v -5.16623 c 0,-0.314194 -0.253992,-0.568613 -0.567924,-0.568613 z m -8.741536,4.421511 h -7.461864 v -2.985178 h 7.461864 z m 8.741536,3.127615 H 41.27481 c -0.313844,0 -0.567836,0.253988 -0.567836,0.567754 v 5.167272 c 0,0.31367 0.253471,0.567659 0.567836,0.567659 h 17.482986 c 0.313932,0 0.567924,-0.253989 0.567924,-0.567659 v -5.167272 c 0,-0.31385 -0.253992,-0.567754 -0.567924,-0.567754 z m -8.741536,4.644285 h -7.461864 v -2.985276 h 7.461864 z"
   id="path1609"
   style="stroke-width:0.0867454;fill:#ffffff;fill-opacity:0.99497485" /></svg>
