<?xml version="1.0" encoding="UTF-8" standalone="no"?>
<svg
   xmlns:dc="http://purl.org/dc/elements/1.1/"
   xmlns:cc="http://creativecommons.org/ns#"
   xmlns:rdf="http://www.w3.org/1999/02/22-rdf-syntax-ns#"
   xmlns:svg="http://www.w3.org/2000/svg"
   xmlns="http://www.w3.org/2000/svg"
   xmlns:sodipodi="http://sodipodi.sourceforge.net/DTD/sodipodi-0.dtd"
   xmlns:inkscape="http://www.inkscape.org/namespaces/inkscape"
   version="1.1"
   id="Capa_1"
   x="0px"
   y="0px"
   width="80px"
   height="80px"
   viewBox="0 0 80 80"
   style="enable-background:new 0 0 80 80;"
   xml:space="preserve"
   sodipodi:docname="icon-research.svg"
   inkscape:version="1.0.1 (3bc2e813f5, 2020-09-07)"><metadata
   id="metadata59"><rdf:RDF><cc:Work
       rdf:about=""><dc:format>image/svg+xml</dc:format><dc:type
         rdf:resource="http://purl.org/dc/dcmitype/StillImage" /><dc:title></dc:title></cc:Work></rdf:RDF></metadata><defs
   id="defs57" /><sodipodi:namedview
   pagecolor="#ffffff"
   bordercolor="#666666"
   borderopacity="1"
   objecttolerance="10"
   gridtolerance="10"
   guidetolerance="10"
   inkscape:pageopacity="0"
   inkscape:pageshadow="2"
   inkscape:window-width="1280"
   inkscape:window-height="961"
   id="namedview55"
   showgrid="false"
   inkscape:zoom="3.2482718"
   inkscape:cx="-17.337103"
   inkscape:cy="53.949022"
   inkscape:window-x="-8"
   inkscape:window-y="-8"
   inkscape:window-maximized="1"
   inkscape:current-layer="Capa_1" />
<g
   id="g22">
	<g
   id="g20">
		
		
		<path
   d="m 40.307856,79.692144 c 22.091,0 40,-17.909 40,-40 0,-22.092 -17.909,-40.00000001 -40,-40.00000001 -22.092,0 -39.99999999,17.90800001 -39.99999999,40.00000001 0,22.091 17.90799999,40 39.99999999,40 z m 12.301,-18.271 c 0,0.554 -0.447,1 -1,1 h -8.074 -7.985 c -0.03,0.004 -0.056,0.019 -0.087,0.019 h -8.072 c -0.553,0 -1,-0.446 -1,-1 v -5.841 c 0,-0.553 0.447,-1 1,-1 h 7.985 c 0.03,-0.003 0.056,-0.018 0.087,-0.018 h 8.072 8.074 c 0.553,0 1,0.446 1,1 z m -2.848,-22.681 c 0.553,0 1,0.447 1,1 0,0.554 -0.447,1 -1,1 h -21.985 c -0.553,0 -1,-0.446 -1,-1 v -15.916 c 0,-0.553 0.447,-1 1,-1 0.553,0 1,0.447 1,1 v 14.916 z m -19.721,-3.782 v -4.78 c 0,-0.553 0.447,-1 1,-1 0.553,0 1,0.447 1,1 v 4.779 c 0,0.553 -0.447,1 -1,1 -0.553,0 -1,-0.447 -1,-0.999 z m 3.434,0 v -7.7 c 0,-0.553 0.447,-1 1,-1 0.553,0 1,0.447 1,1 v 7.699 c 0,0.553 -0.447,1 -1,1 -0.553,0 -1,-0.447 -1,-0.999 z m 4.294,0 v -3.85 c 0,-0.553 0.447,-1 1,-1 0.553,0 1,0.447 1,1 v 3.85 c 0,0.553 -0.447,1 -1,1 -0.553,0 -1,-0.448 -1,-1 z m 12.979,14.744 c 0,1.75 -1.425,3.176 -3.176,3.176 -1.751,0 -3.176,-1.426 -3.176,-3.176 0,-1.75 1.425,-3.175 3.176,-3.175 1.751,0 3.176,1.425 3.176,3.175 z m -8.074,0 c 0,1.75 -1.424,3.176 -3.175,3.176 -1.751,0 -3.175,-1.426 -3.175,-3.176 0,-1.75 1.424,-3.175 3.175,-3.175 1.751,0 3.175,1.425 3.175,3.175 z m -8.072,0.016 c 0,1.751 -1.425,3.176 -3.176,3.176 -1.751,0 -3.175,-1.425 -3.175,-3.176 0,-1.75 1.424,-3.175 3.175,-3.175 1.751,0 3.176,1.425 3.176,3.175 z m 19.643,-5.723 c 0,0.553 -0.447,1 -1,1 -0.553,0 -1,-0.447 -1,-1 v -9.85 l -7.824,-3.034 c -0.516,-0.2 -0.771,-0.779 -0.57,-1.294 0.199,-0.516 0.781,-0.771 1.294,-0.571 l 8.463,3.282 c 0.005,0.002 0.008,0.006 0.013,0.008 0.081,0.033 0.147,0.087 0.217,0.139 0.035,0.027 0.08,0.044 0.11,0.074 0.048,0.048 0.076,0.109 0.114,0.165 0.033,0.051 0.076,0.095 0.102,0.15 0.018,0.041 0.018,0.09 0.03,0.135 0.022,0.081 0.049,0.162 0.05,0.248 0,0.005 0.004,0.009 0.004,0.014 v 10.534 z m -0.334,-15.574 c 0,-1.751 1.426,-3.175 3.176,-3.175 1.752,0 3.176,1.424 3.176,3.175 0,1.751 -1.424,3.176 -3.176,3.176 -1.751,0 -3.176,-1.425 -3.176,-3.176 z m 3.888,12.137 c 0,0.553 -0.447,1 -1,1 -0.553,0 -1,-0.447 -1,-1 v -7.098 c 0,-0.553 0.447,-1 1,-1 0.553,0 1,0.447 1,1 z m 2.859,-7.804 5.552,5.554 c 0.392,0.391 0.392,1.023 0,1.414 l -4.752,4.752 c -0.195,0.194 -0.451,0.293 -0.707,0.293 -0.051,0 -0.099,-0.021 -0.147,-0.029 -0.177,0.154 -0.399,0.257 -0.652,0.257 -0.553,0 -1,-0.447 -1,-1 v -10.535 c 0,-0.13 0.026,-0.26 0.077,-0.382 0.102,-0.245 0.296,-0.439 0.541,-0.541 0.244,-0.102 0.52,-0.102 0.764,0 0.121,0.051 0.232,0.125 0.324,0.217 z m -37.691,-12.822 h 36.295 c 0.553,0 1,0.447 1,1 0,0.553 -0.447,1 -1,1 h -36.295 c -0.553,0 -1,-0.447 -1,-1 0,-0.553 0.448,-1 1,-1 z"
   id="path6"
   style="fill:#1a8040;fill-opacity:1" />
		
		
		
		
		
		
	</g>
</g>
<g
   id="g24">
</g>
<g
   id="g26">
</g>
<g
   id="g28">
</g>
<g
   id="g30">
</g>
<g
   id="g32">
</g>
<g
   id="g34">
</g>
<g
   id="g36">
</g>
<g
   id="g38">
</g>
<g
   id="g40">
</g>
<g
   id="g42">
</g>
<g
   id="g44">
</g>
<g
   id="g46">
</g>
<g
   id="g48">
</g>
<g
   id="g50">
</g>
<g
   id="g52">
</g>
<ellipse
   style="fill:#1a8040;fill-opacity:1;stroke-width:1.046"
   id="path884"
   cx="41.637527"
   cy="38.943787"
   rx="26.860437"
   ry="30.323818" /><ellipse
   style="fill:#1a8040;fill-opacity:1"
   id="path886"
   cx="44.485195"
   cy="47.101971"
   rx="1.8471361"
   ry="1.385352" /><g
   id="g874"
   transform="matrix(0.09903945,0,0,0.10194746,18.697808,18.210654)"><path
     d="m 269.383,386.938 c -18.445,0 -36.202,-4.397 -52.08,-12.682 H 107.22 c -10.099,0 -18.315,-8.219 -18.315,-18.315 v -56.576 c 0,-10.099 8.217,-18.314 18.315,-18.314 h 49.748 c -0.13,-2.231 -0.204,-4.479 -0.204,-6.731 0,-8.453 0.922,-16.763 2.719,-24.813 H 56.516 v -30.832 h 101.802 c 8.71,0 15.772,-7.061 15.772,-15.771 0,-8.71 -7.063,-15.771 -15.772,-15.771 H 56.516 v -30.832 h 50.704 185.134 c 8.184,0 15.131,5.398 17.471,12.818 11.723,4.491 22.652,10.962 32.389,19.231 v -13.735 c 0,-6.465 -1.25,-12.641 -3.5,-18.314 h 40.303 c 8.709,0 15.771,-7.063 15.771,-15.773 0,-8.71 -7.062,-15.771 -15.771,-15.771 h -4.411 v -93.21 h 4.411 c 8.709,0 15.771,-7.063 15.771,-15.773 C 394.788,7.064 387.726,0 379.017,0 H 107.22 C 79.728,0 57.362,22.367 57.362,49.859 v 56.576 c 0,6.467 1.25,12.643 3.5,18.316 H 20.56 c -8.71,0 -15.772,7.061 -15.772,15.771 0,8.71 7.063,15.773 15.772,15.773 h 4.412 v 93.207 H 20.56 c -8.71,0 -15.772,7.062 -15.772,15.771 0,8.709 7.063,15.771 15.772,15.771 h 40.302 c -2.25,5.675 -3.5,11.852 -3.5,18.313 v 56.575 c 0,27.494 22.366,49.861 49.858,49.861 H 332.7 l -25.398,-25.4 c -12.166,4.347 -24.891,6.545 -37.919,6.545 z M 88.905,49.859 c 0,-10.098 8.217,-18.314 18.315,-18.314 h 235.84 v 30.83 H 241.256 c -8.709,0 -15.771,7.063 -15.771,15.773 0,8.71 7.062,15.771 15.771,15.771 H 343.06 v 30.832 H 107.22 c -10.099,0 -18.315,-8.217 -18.315,-18.316 z"
     id="path2"
     style="fill:#ffffff;fill-opacity:1" /><path
     d="m 432.407,400.461 -79.035,-79.034 c 21.303,-37.448 16.01,-86.032 -15.896,-117.937 -38.263,-38.262 -100.517,-38.262 -138.775,0 -38.261,38.26 -38.262,100.518 0,138.775 31.904,31.906 80.488,37.199 117.938,15.896 l 79.035,79.033 c 10.129,10.129 26.607,10.129 36.734,0 10.128,-10.124 10.128,-26.602 -0.001,-36.733 z m -114.476,-77.74 c -27.481,27.483 -72.202,27.483 -99.688,0 -27.481,-27.481 -27.481,-72.201 0,-99.686 27.484,-27.482 72.203,-27.482 99.688,0 27.482,27.485 27.482,72.203 0,99.686 z"
     id="path4"
     style="fill:#ffffff;fill-opacity:1" /></g></svg>
