<?xml version="1.0" encoding="UTF-8" standalone="no"?>
<svg
   xmlns:dc="http://purl.org/dc/elements/1.1/"
   xmlns:cc="http://creativecommons.org/ns#"
   xmlns:rdf="http://www.w3.org/1999/02/22-rdf-syntax-ns#"
   xmlns:svg="http://www.w3.org/2000/svg"
   xmlns="http://www.w3.org/2000/svg"
   xmlns:sodipodi="http://sodipodi.sourceforge.net/DTD/sodipodi-0.dtd"
   xmlns:inkscape="http://www.inkscape.org/namespaces/inkscape"
   version="1.1"
   id="Capa_1"
   x="0px"
   y="0px"
   width="80px"
   height="80px"
   viewBox="0 0 80 80"
   style="enable-background:new 0 0 80 80;"
   xml:space="preserve"
   sodipodi:docname="icon-business.svg"
   inkscape:version="1.0.1 (3bc2e813f5, 2020-09-07)"><metadata
   id="metadata59"><rdf:RDF><cc:Work
       rdf:about=""><dc:format>image/svg+xml</dc:format><dc:type
         rdf:resource="http://purl.org/dc/dcmitype/StillImage" /><dc:title></dc:title></cc:Work></rdf:RDF></metadata><defs
   id="defs57" /><sodipodi:namedview
   pagecolor="#ffffff"
   bordercolor="#666666"
   borderopacity="1"
   objecttolerance="10"
   gridtolerance="10"
   guidetolerance="10"
   inkscape:pageopacity="0"
   inkscape:pageshadow="2"
   inkscape:window-width="1280"
   inkscape:window-height="961"
   id="namedview55"
   showgrid="false"
   inkscape:zoom="4.59375"
   inkscape:cx="26.654117"
   inkscape:cy="74.386161"
   inkscape:window-x="-8"
   inkscape:window-y="-8"
   inkscape:window-maximized="1"
   inkscape:current-layer="Capa_1" />
<g
   id="g22">
	<g
   id="g20">
		
		
		<path
   d="m 40.307856,79.692144 c 22.091,0 40,-17.909 40,-40 0,-22.092 -17.909,-40.00000001 -40,-40.00000001 -22.092,0 -39.99999999,17.90800001 -39.99999999,40.00000001 0,22.091 17.90799999,40 39.99999999,40 z m 12.301,-18.271 c 0,0.554 -0.447,1 -1,1 h -8.074 -7.985 c -0.03,0.004 -0.056,0.019 -0.087,0.019 h -8.072 c -0.553,0 -1,-0.446 -1,-1 v -5.841 c 0,-0.553 0.447,-1 1,-1 h 7.985 c 0.03,-0.003 0.056,-0.018 0.087,-0.018 h 8.072 8.074 c 0.553,0 1,0.446 1,1 z m -2.848,-22.681 c 0.553,0 1,0.447 1,1 0,0.554 -0.447,1 -1,1 h -21.985 c -0.553,0 -1,-0.446 -1,-1 v -15.916 c 0,-0.553 0.447,-1 1,-1 0.553,0 1,0.447 1,1 v 14.916 z m -19.721,-3.782 v -4.78 c 0,-0.553 0.447,-1 1,-1 0.553,0 1,0.447 1,1 v 4.779 c 0,0.553 -0.447,1 -1,1 -0.553,0 -1,-0.447 -1,-0.999 z m 3.434,0 v -7.7 c 0,-0.553 0.447,-1 1,-1 0.553,0 1,0.447 1,1 v 7.699 c 0,0.553 -0.447,1 -1,1 -0.553,0 -1,-0.447 -1,-0.999 z m 4.294,0 v -3.85 c 0,-0.553 0.447,-1 1,-1 0.553,0 1,0.447 1,1 v 3.85 c 0,0.553 -0.447,1 -1,1 -0.553,0 -1,-0.448 -1,-1 z m 12.979,14.744 c 0,1.75 -1.425,3.176 -3.176,3.176 -1.751,0 -3.176,-1.426 -3.176,-3.176 0,-1.75 1.425,-3.175 3.176,-3.175 1.751,0 3.176,1.425 3.176,3.175 z m -8.074,0 c 0,1.75 -1.424,3.176 -3.175,3.176 -1.751,0 -3.175,-1.426 -3.175,-3.176 0,-1.75 1.424,-3.175 3.175,-3.175 1.751,0 3.175,1.425 3.175,3.175 z m -8.072,0.016 c 0,1.751 -1.425,3.176 -3.176,3.176 -1.751,0 -3.175,-1.425 -3.175,-3.176 0,-1.75 1.424,-3.175 3.175,-3.175 1.751,0 3.176,1.425 3.176,3.175 z m 19.643,-5.723 c 0,0.553 -0.447,1 -1,1 -0.553,0 -1,-0.447 -1,-1 v -9.85 l -7.824,-3.034 c -0.516,-0.2 -0.771,-0.779 -0.57,-1.294 0.199,-0.516 0.781,-0.771 1.294,-0.571 l 8.463,3.282 c 0.005,0.002 0.008,0.006 0.013,0.008 0.081,0.033 0.147,0.087 0.217,0.139 0.035,0.027 0.08,0.044 0.11,0.074 0.048,0.048 0.076,0.109 0.114,0.165 0.033,0.051 0.076,0.095 0.102,0.15 0.018,0.041 0.018,0.09 0.03,0.135 0.022,0.081 0.049,0.162 0.05,0.248 0,0.005 0.004,0.009 0.004,0.014 v 10.534 z m -0.334,-15.574 c 0,-1.751 1.426,-3.175 3.176,-3.175 1.752,0 3.176,1.424 3.176,3.175 0,1.751 -1.424,3.176 -3.176,3.176 -1.751,0 -3.176,-1.425 -3.176,-3.176 z m 3.888,12.137 c 0,0.553 -0.447,1 -1,1 -0.553,0 -1,-0.447 -1,-1 v -7.098 c 0,-0.553 0.447,-1 1,-1 0.553,0 1,0.447 1,1 z m 2.859,-7.804 5.552,5.554 c 0.392,0.391 0.392,1.023 0,1.414 l -4.752,4.752 c -0.195,0.194 -0.451,0.293 -0.707,0.293 -0.051,0 -0.099,-0.021 -0.147,-0.029 -0.177,0.154 -0.399,0.257 -0.652,0.257 -0.553,0 -1,-0.447 -1,-1 v -10.535 c 0,-0.13 0.026,-0.26 0.077,-0.382 0.102,-0.245 0.296,-0.439 0.541,-0.541 0.244,-0.102 0.52,-0.102 0.764,0 0.121,0.051 0.232,0.125 0.324,0.217 z m -37.691,-12.822 h 36.295 c 0.553,0 1,0.447 1,1 0,0.553 -0.447,1 -1,1 h -36.295 c -0.553,0 -1,-0.447 -1,-1 0,-0.553 0.448,-1 1,-1 z"
   id="path6"
   style="fill:#1a8040;fill-opacity:1" />
		
		
		
		
		
		
	</g>
</g>
<g
   id="g24">
</g>
<g
   id="g26">
</g>
<g
   id="g28">
</g>
<g
   id="g30">
</g>
<g
   id="g32">
</g>
<g
   id="g34">
</g>
<g
   id="g36">
</g>
<g
   id="g38">
</g>
<g
   id="g40">
</g>
<g
   id="g42">
</g>
<g
   id="g44">
</g>
<g
   id="g46">
</g>
<g
   id="g48">
</g>
<g
   id="g50">
</g>
<g
   id="g52">
</g>
<ellipse
   style="fill:#1a8040;fill-opacity:1;stroke-width:1.046"
   id="path884"
   cx="41.637527"
   cy="38.943787"
   rx="26.860437"
   ry="30.323818" /><ellipse
   style="fill:#1a8040;fill-opacity:1"
   id="path886"
   cx="44.485195"
   cy="47.101971"
   rx="1.8471361"
   ry="1.385352" /><g
   id="g874"
   transform="matrix(0.09903945,0,0,0.10194746,18.697808,18.210654)" /><g
   id="g2309"
   style="fill:#ffffff;fill-opacity:1"
   transform="matrix(0.41495695,0,0,0.41495695,16.052141,13.604775)"><path
     d="m 11.295,92.198 v -0.13 c 0.895,-0.217 1.615,-0.702 2.162,-1.457 0.545,-0.756 0.82,-1.668 0.82,-2.733 0,-1.621 -0.627,-2.815 -1.883,-3.584 C 11.142,83.525 9.222,83.143 6.636,83.143 H 0 v 19.024 h 7.404 c 2.24,0 4.006,-0.496 5.303,-1.49 1.297,-0.993 1.945,-2.354 1.945,-4.077 0,-1.164 -0.264,-2.109 -0.793,-2.839 C 13.33,93.032 12.477,92.51 11.295,92.198 Z M 5.141,87.032 h 1.443 c 1.615,0 2.422,0.532 2.422,1.6 0,0.601 -0.201,1.052 -0.605,1.354 -0.404,0.305 -0.975,0.457 -1.711,0.457 H 5.141 Z M 6.949,98.198 H 5.141 v -3.996 h 1.705 c 0.814,0 1.438,0.17 1.867,0.508 0.429,0.338 0.645,0.824 0.645,1.459 -0.001,1.352 -0.803,2.029 -2.409,2.029 z"
     id="path2285"
     style="fill:#ffffff;fill-opacity:1" /><path
     d="m 27.928,94.282 c 0,1.368 -0.236,2.354 -0.711,2.959 -0.471,0.604 -1.232,0.903 -2.283,0.903 -0.979,0 -1.721,-0.305 -2.225,-0.91 -0.504,-0.606 -0.756,-1.584 -0.756,-2.928 V 83.142 h -5.166 v 11.567 c 0,2.49 0.695,4.397 2.09,5.728 1.391,1.328 3.385,1.989 5.979,1.989 2.656,0 4.688,-0.682 6.098,-2.049 1.41,-1.367 2.115,-3.295 2.115,-5.785 v -11.45 h -5.141 z"
     id="path2287"
     style="fill:#ffffff;fill-opacity:1" /><path
     d="m 40.799,87.333 c 0.305,-0.235 0.791,-0.353 1.459,-0.353 1.291,0 2.826,0.408 4.605,1.224 l 1.574,-3.97 c -2.047,-0.911 -4.055,-1.366 -6.023,-1.366 -2.23,0 -3.982,0.489 -5.258,1.471 -1.276,0.981 -1.914,2.347 -1.914,4.101 0,0.936 0.15,1.748 0.449,2.434 0.299,0.686 0.76,1.293 1.381,1.82 0.619,0.531 1.549,1.076 2.791,1.641 1.369,0.617 2.215,1.023 2.529,1.223 0.318,0.199 0.547,0.396 0.691,0.594 0.143,0.193 0.215,0.423 0.215,0.683 0,0.418 -0.18,0.758 -0.535,1.021 -0.354,0.267 -0.914,0.396 -1.678,0.396 -0.885,0 -1.857,-0.141 -2.916,-0.422 -1.057,-0.283 -2.078,-0.674 -3.059,-1.178 v 4.58 c 0.93,0.442 1.822,0.754 2.682,0.93 0.859,0.18 1.922,0.268 3.189,0.268 1.518,0 2.842,-0.254 3.967,-0.762 1.129,-0.506 1.992,-1.219 2.592,-2.133 0.598,-0.916 0.896,-1.963 0.896,-3.143 0,-1.285 -0.318,-2.351 -0.955,-3.195 -0.639,-0.846 -1.777,-1.637 -3.416,-2.375 -1.711,-0.779 -2.758,-1.318 -3.143,-1.613 -0.387,-0.295 -0.58,-0.629 -0.58,-1.002 0.002,-0.352 0.154,-0.643 0.457,-0.874 z"
     id="path2289"
     style="fill:#ffffff;fill-opacity:1" /><rect
     x="50.313"
     y="83.141998"
     width="5.1659999"
     height="19.024"
     id="rect2291"
     style="fill:#ffffff;fill-opacity:1" /><path
     d="m 72.061,91.743 c 0,1.161 0.06,2.702 0.183,4.618 H 72.166 L 65.24,83.14 h -6.714 v 19.025 h 4.555 V 93.59 c 0,-1.108 -0.082,-2.719 -0.246,-4.828 h 0.114 l 6.949,13.404 H 76.64 V 83.142 h -4.58 v 8.601 z"
     id="path2293"
     style="fill:#ffffff;fill-opacity:1" /><polygon
     points="90.527,94.385 90.527,90.26 84.826,90.26 84.826,87.267 90.982,87.267 90.982,83.142 79.686,83.142 79.686,102.167 90.982,102.167 90.982,97.976 84.826,97.976 84.826,94.385 "
     id="polygon2295"
     style="fill:#ffffff;fill-opacity:1" /><path
     d="m 98.051,87.333 c 0.303,-0.235 0.789,-0.353 1.457,-0.353 1.291,0 2.828,0.408 4.605,1.224 l 1.574,-3.97 c -2.047,-0.911 -4.056,-1.366 -6.025,-1.366 -2.229,0 -3.98,0.489 -5.256,1.471 -1.276,0.981 -1.914,2.347 -1.914,4.101 0,0.936 0.15,1.748 0.449,2.434 0.301,0.686 0.76,1.293 1.381,1.82 0.619,0.531 1.551,1.076 2.791,1.641 1.371,0.617 2.213,1.023 2.531,1.223 0.315,0.199 0.547,0.396 0.688,0.594 0.144,0.193 0.215,0.423 0.215,0.683 0,0.418 -0.178,0.758 -0.532,1.021 -0.355,0.264 -0.915,0.394 -1.68,0.394 -0.885,0 -1.856,-0.141 -2.916,-0.422 -1.06,-0.283 -2.076,-0.674 -3.058,-1.178 v 4.58 c 0.929,0.442 1.822,0.754 2.683,0.93 0.856,0.18 1.92,0.268 3.188,0.268 1.518,0 2.84,-0.254 3.969,-0.762 1.127,-0.506 1.99,-1.219 2.59,-2.133 0.6,-0.916 0.896,-1.963 0.896,-3.143 0,-1.285 -0.318,-2.351 -0.955,-3.195 -0.64,-0.846 -1.775,-1.637 -3.416,-2.375 -1.709,-0.779 -2.758,-1.318 -3.144,-1.613 -0.387,-0.295 -0.58,-0.629 -0.58,-1.002 0.002,-0.35 0.154,-0.641 0.459,-0.872 z"
     id="path2297"
     style="fill:#ffffff;fill-opacity:1" /><path
     d="m 115.631,90.818 c -1.709,-0.778 -2.756,-1.317 -3.143,-1.612 -0.387,-0.295 -0.578,-0.629 -0.578,-1.002 0,-0.349 0.15,-0.64 0.455,-0.871 0.303,-0.235 0.789,-0.353 1.457,-0.353 1.293,0 2.828,0.408 4.606,1.224 l 1.574,-3.97 c -2.047,-0.911 -4.058,-1.366 -6.024,-1.366 -2.23,0 -3.982,0.489 -5.259,1.471 -1.277,0.982 -1.911,2.347 -1.911,4.101 0,0.936 0.147,1.748 0.448,2.434 0.297,0.686 0.759,1.293 1.379,1.82 0.619,0.531 1.55,1.076 2.791,1.641 1.371,0.617 2.216,1.023 2.531,1.223 0.315,0.2 0.547,0.396 0.688,0.594 0.144,0.193 0.215,0.423 0.215,0.683 0,0.418 -0.178,0.758 -0.532,1.021 -0.356,0.267 -0.916,0.396 -1.681,0.396 -0.885,0 -1.854,-0.141 -2.914,-0.422 -1.059,-0.283 -2.078,-0.674 -3.059,-1.178 v 4.58 c 0.928,0.442 1.822,0.754 2.68,0.93 0.859,0.18 1.924,0.268 3.189,0.268 1.518,0 2.842,-0.254 3.969,-0.762 1.127,-0.506 1.992,-1.219 2.59,-2.133 0.599,-0.916 0.898,-1.963 0.898,-3.143 0,-1.285 -0.32,-2.351 -0.957,-3.195 -0.635,-0.848 -1.773,-1.639 -3.412,-2.379 z"
     id="path2299"
     style="fill:#ffffff;fill-opacity:1" /><g
     id="g1012"><g
       id="g1063"><path
         d="m 100.624,77.79 c 0.001,2.009 1.63,3.635 3.638,3.635 h 0.004 c 2.008,-10e-4 3.637,-1.631 3.635,-3.64 l -0.004,-4.959 h -7.274 z"
         id="path2305"
         style="fill:#ffffff;fill-opacity:1" /><circle
         cx="73.588997"
         cy="24.447001"
         r="6.8709998"
         id="circle2301"
         style="fill:#ffffff;fill-opacity:1" /><circle
         cx="96.300003"
         cy="24.448999"
         r="6.8709998"
         id="circle2303"
         style="fill:#ffffff;fill-opacity:1" /><path
         d="m 62.003,54.896 -0.015,22.888 c -0.002,2.01 1.627,3.64 3.637,3.641 0,0 0.001,0 0.002,0 2.008,0 3.637,-1.628 3.639,-3.636 l 0.012,-21.657 c 1.504,-0.598 2.774,-1.758 3.162,-3.569 l 1.203,-5.614 c 1.914,2.234 5.075,3.516 10.711,4.287 0.123,0.017 0.244,0.025 0.365,0.025 1.124,0 2.12,-0.715 2.499,-1.761 4.412,-0.233 7.149,-1.142 8.929,-3.014 l 1.304,6.079 c 0.338,1.573 1.343,2.654 2.587,3.305 h 1.73 c 0.373,-1.049 1.125,-1.914 2.116,-2.429 -0.901,-4.306 -2.155,-8.538 -3.231,-11.11 -0.734,-1.351 0.291,-1.816 0.836,-0.415 0.548,1.402 2.591,7.79 3.427,11.967 -1.261,0.388 -2.228,1.454 -2.45,2.778 h -5.137 v 15.177 h 20.552 V 56.66 h -5.136 c -0.227,-1.335 -1.207,-2.407 -2.482,-2.787 0.014,-0.221 0.01,-0.443 -0.035,-0.67 -0.34,-1.738 -4.513,-18.112 -4.513,-18.112 -0.592,-2.763 -2.504,-4.09 -4.883,-4.158 l -0.021,0.001 c 0,0 -0.84,0.004 -1.562,0.143 -0.758,0.145 -1.419,0.508 -1.419,0.508 -1.754,0.851 -3.431,2.608 -3.638,4.742 -0.026,0.103 -0.061,0.202 -0.076,0.311 -0.463,3.26 -0.928,5.326 -1.926,6.235 -1.028,0.938 -3.344,1.355 -7.502,1.355 -0.963,0 -1.797,0.515 -2.268,1.279 -2.51,-0.512 -3.99,-1.162 -4.771,-2.067 -1.016,-1.173 -1.387,-3.354 -1.877,-6.804 -0.016,-0.108 -0.049,-0.209 -0.076,-0.312 -0.205,-2.133 -1.883,-3.892 -3.637,-4.742 0,0 -0.662,-0.363 -1.418,-0.508 -0.725,-0.139 -1.562,-0.143 -1.562,-0.143 l -0.021,-0.002 c -2.38,0.069 -5.181,1.396 -5.772,4.158 l -3.177,14.831 c -0.424,1.981 0.461,3.754 1.894,4.978 z m 45.599,1.489 c 0.17,0 0.342,-0.018 0.516,-0.051 0.578,-0.113 1.07,-0.411 1.441,-0.813 0.627,0.109 1.137,0.553 1.348,1.139 h -6.605 c 0.211,-0.586 0.721,-1.028 1.346,-1.137 0.495,0.536 1.198,0.862 1.954,0.862 z"
         id="path2307"
         style="fill:#ffffff;fill-opacity:1" /></g></g></g><g
   id="g2313"
   style="fill:#ffffff;fill-opacity:1"
   transform="matrix(0.41495695,0,0,0.41495695,16.052141,13.604775)" /><g
   id="g2315"
   style="fill:#ffffff;fill-opacity:1"
   transform="matrix(0.41495695,0,0,0.41495695,16.052141,13.604775)" /><g
   id="g2317"
   style="fill:#ffffff;fill-opacity:1"
   transform="matrix(0.41495695,0,0,0.41495695,16.052141,13.604775)" /><g
   id="g2319"
   style="fill:#ffffff;fill-opacity:1"
   transform="matrix(0.41495695,0,0,0.41495695,16.052141,13.604775)" /><g
   id="g2321"
   style="fill:#ffffff;fill-opacity:1"
   transform="matrix(0.41495695,0,0,0.41495695,16.052141,13.604775)" /><g
   id="g2323"
   style="fill:#ffffff;fill-opacity:1"
   transform="matrix(0.41495695,0,0,0.41495695,16.052141,13.604775)" /><g
   id="g2325"
   style="fill:#ffffff;fill-opacity:1"
   transform="matrix(0.41495695,0,0,0.41495695,16.052141,13.604775)" /><g
   id="g2327"
   style="fill:#ffffff;fill-opacity:1"
   transform="matrix(0.41495695,0,0,0.41495695,16.052141,13.604775)" /><g
   id="g2329"
   style="fill:#ffffff;fill-opacity:1"
   transform="matrix(0.41495695,0,0,0.41495695,16.052141,13.604775)" /><g
   id="g2331"
   style="fill:#ffffff;fill-opacity:1"
   transform="matrix(0.41495695,0,0,0.41495695,16.052141,13.604775)" /><g
   id="g2333"
   style="fill:#ffffff;fill-opacity:1"
   transform="matrix(0.41495695,0,0,0.41495695,16.052141,13.604775)" /><g
   id="g2335"
   style="fill:#ffffff;fill-opacity:1"
   transform="matrix(0.41495695,0,0,0.41495695,16.052141,13.604775)" /><g
   id="g2337"
   style="fill:#ffffff;fill-opacity:1"
   transform="matrix(0.41495695,0,0,0.41495695,16.052141,13.604775)" /><g
   id="g2339"
   style="fill:#ffffff;fill-opacity:1"
   transform="matrix(0.41495695,0,0,0.41495695,16.052141,13.604775)" /><g
   id="g2341"
   style="fill:#ffffff;fill-opacity:1"
   transform="matrix(0.41495695,0,0,0.41495695,16.052141,13.604775)" /></svg>
