<?xml version="1.0" encoding="UTF-8" standalone="no"?>
<svg
   xmlns:dc="http://purl.org/dc/elements/1.1/"
   xmlns:cc="http://creativecommons.org/ns#"
   xmlns:rdf="http://www.w3.org/1999/02/22-rdf-syntax-ns#"
   xmlns:svg="http://www.w3.org/2000/svg"
   xmlns="http://www.w3.org/2000/svg"
   xmlns:sodipodi="http://sodipodi.sourceforge.net/DTD/sodipodi-0.dtd"
   xmlns:inkscape="http://www.inkscape.org/namespaces/inkscape"
   version="1.0"
   width="512.000000pt"
   height="512.000000pt"
   viewBox="0 0 512.000000 512.000000"
   preserveAspectRatio="xMidYMid meet"
   id="svg18"
   sodipodi:docname="mvv-values.svg"
   inkscape:version="1.0.1 (3bc2e813f5, 2020-09-07)">
  <metadata
     id="metadata24">
    <rdf:RDF>
      <cc:Work
         rdf:about="">
        <dc:format>image/svg+xml</dc:format>
        <dc:type
           rdf:resource="http://purl.org/dc/dcmitype/StillImage" />
      </cc:Work>
    </rdf:RDF>
  </metadata>
  <defs
     id="defs22" />
  <sodipodi:namedview
     pagecolor="#ffffff"
     bordercolor="#666666"
     borderopacity="1"
     objecttolerance="10"
     gridtolerance="10"
     guidetolerance="10"
     inkscape:pageopacity="0"
     inkscape:pageshadow="2"
     inkscape:window-width="1280"
     inkscape:window-height="961"
     id="namedview20"
     showgrid="false"
     inkscape:zoom="0.53833008"
     inkscape:cx="324.11664"
     inkscape:cy="456.87455"
     inkscape:window-x="-8"
     inkscape:window-y="-8"
     inkscape:window-maximized="1"
     inkscape:current-layer="svg18"
     inkscape:document-rotation="0" />
  <g
     transform="translate(0.000000,512.000000) scale(0.100000,-0.100000)"
     fill="#000000"
     stroke="none"
     id="g16">
    <path
       d="M4083 4112 c59 -59 107 -112 107 -119 0 -15 -113 -119 -208 -192 -486 -369 -1392 -779 -2538 -1146 -233 -74 -378 -118 -824 -249 -47 -13 -81 -25 -75 -25 28 -2 473 55 702 90 1433 218 2600 599 3251 1060 45 33 86 59 91 59 5 0 54 -43 110 -96 l101 -96 0 411 0 411 -412 0 -413 0 108 -108z"
       id="path2"
       style="fill:#45925c;fill-opacity:1" />
    <path
       d="M3070 3700 l0 -300 88 44 c301 151 678 383 872 536 25 20 24 20 -467 20 l-493 0 0 -300z"
       id="path4"
       style="fill:#1a8040;fill-opacity:1" />
    <path
       d="M1860 3200 c0 -170 2 -310 4 -310 22 0 622 254 846 358 l145 68 3 97 3 97 -501 0 -500 0 0 -310z"
       id="path6"
       style="fill:#1a8040;fill-opacity:1" />
    <path
       d="M3910 3106 c-200 -94 -396 -172 -640 -256 l-195 -68 -3 -891 -2 -891 500 0 500 0 0 1090 c0 600 -1 1090 -2 1089 -2 -1 -73 -34 -158 -73z"
       id="path8"
       style="fill:#1a8040;fill-opacity:1" />
    <path
       d="M660 2745 c0 -146 3 -265 7 -265 11 0 800 266 898 303 l90 34 3 96 3 97 -501 0 -500 0 0 -265z"
       id="path10"
       style="fill:#1a8040;fill-opacity:1" />
    <path
       d="M2805 2699 c-96 -31 -520 -134 -695 -169 -113 -22 -215 -43 -227 -46 l-23 -4 0 -740 0 -740 500 0 500 0 0 855 c0 678 -3 855 -12 854 -7 0 -26 -5 -43 -10z"
       id="path12"
       style="fill:#1a8040;fill-opacity:1" />
    <path
       d="M1425 2420 c-167 -24 -452 -56 -687 -75 l-78 -7 0 -669 0 -669 500 0 500 0 0 725 0 725 -22 -1 c-13 -1 -108 -14 -213 -29z"
       id="path14"
       style="fill:#1a8040;fill-opacity:1" />
  </g>
</svg>
