<?xml version="1.0" encoding="UTF-8" standalone="no"?>
<svg
   xmlns:dc="http://purl.org/dc/elements/1.1/"
   xmlns:cc="http://creativecommons.org/ns#"
   xmlns:rdf="http://www.w3.org/1999/02/22-rdf-syntax-ns#"
   xmlns:svg="http://www.w3.org/2000/svg"
   xmlns="http://www.w3.org/2000/svg"
   xmlns:sodipodi="http://sodipodi.sourceforge.net/DTD/sodipodi-0.dtd"
   xmlns:inkscape="http://www.inkscape.org/namespaces/inkscape"
   version="1.0"
   width="512.000000pt"
   height="512.000000pt"
   viewBox="0 0 512.000000 512.000000"
   preserveAspectRatio="xMidYMid meet"
   id="svg10"
   sodipodi:docname="mvv-mission.svg"
   inkscape:version="1.0.1 (3bc2e813f5, 2020-09-07)">
  <metadata
     id="metadata16">
    <rdf:RDF>
      <cc:Work
         rdf:about="">
        <dc:format>image/svg+xml</dc:format>
        <dc:type
           rdf:resource="http://purl.org/dc/dcmitype/StillImage" />
      </cc:Work>
    </rdf:RDF>
  </metadata>
  <defs
     id="defs14" />
  <sodipodi:namedview
     pagecolor="#ffffff"
     bordercolor="#666666"
     borderopacity="1"
     objecttolerance="10"
     gridtolerance="10"
     guidetolerance="10"
     inkscape:pageopacity="0"
     inkscape:pageshadow="2"
     inkscape:window-width="1280"
     inkscape:window-height="961"
     id="namedview12"
     showgrid="false"
     inkscape:zoom="0.53833008"
     inkscape:cx="428.03845"
     inkscape:cy="405.1872"
     inkscape:window-x="-8"
     inkscape:window-y="-8"
     inkscape:window-maximized="1"
     inkscape:current-layer="svg10" />
  <g
     transform="translate(0.000000,512.000000) scale(0.100000,-0.100000)"
     fill="#000000"
     stroke="none"
     id="g8">
    <path
       d="M4212 4717 c-136 -136 -212 -219 -212 -232 0 -11 11 -63 25 -115 13 -52 23 -95 22 -96 -1 0 -45 -26 -97 -56 -272 -159 -657 -471 -930 -754 -309 -320 -455 -572 -422 -729 l10 -50 -110 -111 c-95 -96 -109 -115 -106 -140 2 -18 12 -34 30 -44 l28 -15 118 118 c113 113 119 117 146 107 157 -59 446 110 806 470 280 281 563 637 718 906 l41 71 111 -25 111 -26 214 214 c118 118 211 217 207 221 -4 4 -89 26 -189 50 -101 23 -188 46 -194 49 -6 4 -32 94 -59 199 -26 106 -50 194 -52 196 -2 2 -99 -91 -216 -208z"
       id="path2"
       style="fill:#1a8040;fill-opacity:1" />
    <path
       d="M2228 4610 c-1002 -84 -1813 -814 -2002 -1802 -58 -305 -43 -681 40 -988 76 -279 217 -560 400 -793 79 -100 283 -301 379 -374 393 -297 809 -446 1286 -460 371 -12 699 56 1019 208 595 285 1033 814 1195 1444 52 203 69 340 68 565 -1 271 -34 476 -119 724 -39 113 -152 348 -214 444 l-40 64 -116 -152 -115 -151 60 -122 c159 -325 218 -671 176 -1027 -95 -805 -692 -1450 -1491 -1611 -153 -31 -444 -38 -604 -15 -423 61 -789 249 -1085 557 -287 299 -456 661 -506 1083 -14 123 -6 399 15 515 109 589 473 1076 1001 1341 522 262 1115 265 1643 8 108 -52 125 -58 141 -46 140 102 279 213 275 219 -10 16 -178 112 -287 164 -340 161 -748 235 -1119 205z"
       id="path4"
       style="fill:#1a8040;fill-opacity:1" />
    <path
       d="M2305 3634 c-141 -19 -192 -30 -275 -56 -241 -76 -471 -240 -618 -441 -276 -375 -318 -878 -107 -1291 323 -633 1113 -863 1725 -502 296 175 509 475 581 816 28 134 30 335 5 462 -20 106 -54 218 -65 218 -4 0 -41 -30 -82 -66 -41 -36 -104 -88 -142 -117 l-67 -52 7 -60 c14 -106 6 -273 -16 -359 -101 -385 -451 -656 -846 -656 -298 0 -570 147 -735 397 -155 237 -185 551 -75 806 18 43 48 104 67 135 45 78 208 238 288 285 188 108 410 149 620 112 34 -6 37 -4 91 67 32 40 87 107 125 148 l68 75 -75 23 c-41 13 -107 30 -147 38 -76 14 -274 26 -327 18z"
       id="path6"
       style="fill:#1a8040;fill-opacity:1" />
  </g>
</svg>
