<?xml version="1.0" encoding="UTF-8" standalone="no"?>
<svg
   xmlns:dc="http://purl.org/dc/elements/1.1/"
   xmlns:cc="http://creativecommons.org/ns#"
   xmlns:rdf="http://www.w3.org/1999/02/22-rdf-syntax-ns#"
   xmlns:svg="http://www.w3.org/2000/svg"
   xmlns="http://www.w3.org/2000/svg"
   xmlns:sodipodi="http://sodipodi.sourceforge.net/DTD/sodipodi-0.dtd"
   xmlns:inkscape="http://www.inkscape.org/namespaces/inkscape"
   viewBox="0 0 3790.6667 2666.6667"
   height="2666.6667"
   width="3790.6667"
   xml:space="preserve"
   id="svg2"
   version="1.1"
   sodipodi:docname="services-illustration.svg"
   inkscape:version="1.0.1 (3bc2e813f5, 2020-09-07)"><sodipodi:namedview
     pagecolor="#ffffff"
     bordercolor="#666666"
     borderopacity="1"
     objecttolerance="10"
     gridtolerance="10"
     guidetolerance="10"
     inkscape:pageopacity="0"
     inkscape:pageshadow="2"
     inkscape:window-width="1280"
     inkscape:window-height="961"
     id="namedview278"
     showgrid="false"
     inkscape:zoom="0.1378125"
     inkscape:cx="1446.4491"
     inkscape:cy="1673.7155"
     inkscape:window-x="-8"
     inkscape:window-y="-8"
     inkscape:window-maximized="1"
     inkscape:current-layer="svg2" /><metadata
     id="metadata8"><rdf:RDF><cc:Work
         rdf:about=""><dc:format>image/svg+xml</dc:format><dc:type
           rdf:resource="http://purl.org/dc/dcmitype/StillImage" /><dc:title></dc:title></cc:Work></rdf:RDF></metadata><defs
     id="defs6" /><g
     transform="matrix(1.3333333,0,0,-1.3333333,12.102625,2671.8068)"
     id="g10"><g
       transform="scale(0.1)"
       id="g12"><g
         transform="scale(1.74417)"
         id="g14"><path
           id="path16"
           style="fill:#ffffff;fill-opacity:1;fill-rule:nonzero;stroke:none"
           d="M 16300,0 H 0 V 11466.8 H 16300 V 0" /></g><g
         transform="scale(1.62448)"
         id="g18"><path
           id="path20"
           style="fill:#f7cc7f;fill-opacity:1;fill-rule:nonzero;stroke:none"
           d="m 13107.4,9252.22 h 0.1 c 209.6,696.9 944.6,1091.88 1641.5,882.18 696.9,-209.75 1091.8,-944.7 882.2,-1641.6 v -0.01 c -209.8,-696.9 -944.7,-1091.84 -1641.6,-882.14 -696.9,209.71 -1091.9,944.66 -882.2,1641.57 m -431.5,50.62 c -237.3,-933.74 329.3,-1886.45 1263.1,-2123.73 933.7,-237.29 1886.4,329.32 2123.7,1263.07 237.3,933.74 -329.3,1886.42 -1263.1,2123.72 -933.7,237.3 -1886.4,-329.3 -2123.7,-1263.06" /></g><g
         transform="scale(1.72063)"
         id="g22"><path
           id="path24"
           style="fill:#f7cc7f;fill-opacity:1;fill-rule:nonzero;stroke:none"
           d="m 11910.9,8797.4 c 112.4,442.18 390.2,814.13 782.3,1047.35 392.2,233.25 851.6,299.75 1293.8,187.35 442.2,-112.33 814.2,-390.16 1047.4,-782.29 233.2,-392.12 299.7,-851.59 187.4,-1293.78 -112.4,-442.18 -390.2,-814.13 -782.3,-1047.35 -392.2,-233.2 -851.7,-299.75 -1293.8,-187.39 -442.2,112.37 -814.1,390.21 -1047.4,782.33 -233.2,392.12 -299.7,851.59 -187.4,1293.78 m -1086.4,-16.95 c 7.8,-39.4 43.5,-53.16 131.5,-88.06 157.3,-62.43 314.8,-124.89 469.9,-192.77 24.4,-10.69 48.8,-48.72 51.8,-76.43 17.9,-164.79 25.9,-330.7 45.5,-495.25 6.1,-50.99 1.2,-78.1 -44.7,-106.9 -183.1,-115.09 -363.1,-235.32 -542.2,-352.36 44.7,-192.11 270.4,-623.9 391,-744.65 190,79.94 385.3,158.67 577.3,244.96 59.8,26.85 90.3,21.69 140.1,-25.91 115.5,-110.43 241.5,-210.64 368.7,-307.76 51.5,-39.32 79,-70.14 62.3,-141 -43.3,-183.65 -75.4,-369.9 -115.6,-554.32 -10.8,-49.56 -1.4,-80.56 47.5,-95.71 230.3,-71.28 460.6,-142.24 690.9,-213.43 56.6,-17.5 65.3,29.06 79.4,62.36 71.6,168.71 144.1,337.11 209.8,508.06 24.7,64.18 57.9,85.31 127.6,87.49 184.5,5.79 368.7,23.61 567.2,37.64 117.4,-178.24 247,-375.02 380.2,-577.28 267.5,88.56 508.3,221.15 736.4,396.53 -90.3,217.06 -180.7,434.19 -260.3,625.56 136.6,173.05 266.7,330.55 387.2,495.06 34.9,47.61 62.2,55.44 114.5,43.95 181.7,-39.9 364.7,-74.15 546.6,-112.8 39.3,-8.35 68.2,-9.88 88.4,33.1 101.8,217.17 183.9,439.98 217.1,679.45 7.4,53.38 -11.8,74.45 -55.8,92.61 -176.9,73.12 -352.6,149.62 -529.9,222 -42.9,17.53 -60.9,35.75 -64.8,88.14 -13.5,181.74 -34.9,363.13 -60.9,543.55 -6.6,46.09 8,64.02 40.4,85.38 180.8,119.04 360.7,239.41 545.4,362.41 -93.7,263.23 -213.3,507.56 -384.6,732.23 -221.4,-92.15 -441.4,-183.71 -651.9,-271.31 -177.4,147.12 -349.1,289.61 -532.9,442.01 32.5,162.5 71.4,349.4 107.2,536.9 29.3,153.9 51.3,133.6 -103.3,198.5 -14.8,6.2 -27.3,17.8 -40.8,26.8 -138.3,41.6 -276.6,83.2 -414.9,124.9 -32.3,3.6 -66.2,2.3 -96.6,11.9 -79.2,25.1 -123.7,7.1 -155.3,-77.7 -65.7,-176.7 -142.6,-349.3 -218.9,-521.8 -10.1,-22.6 -42.9,-46.1 -67.7,-49.2 -161.8,-20.5 -325.9,-27 -486,-55.9 -78.3,-14.1 -111.3,7.3 -150,68.4 -109.6,173.2 -226.3,341.9 -351.8,529.5 -248,-130.2 -490,-257.2 -734.6,-385.7 19.2,-48.8 29.8,-77 41.4,-104.9 71.4,-171.6 141.4,-344 215.9,-514.29 21.2,-48.37 10.4,-75.55 -22.7,-114.91 -113.8,-135.2 -218.9,-277.72 -331.8,-413.72 -17.4,-21.1 -60.7,-35.91 -88.2,-31.15 -150.2,26.11 -299.1,60.52 -448.8,89.63 -121.2,23.55 -166.3,31.87 -204.7,-7.7 l -221.5,-736.11" /></g><g
         transform="scale(1.04152)"
         id="g26"><path
           id="path28"
           style="fill:#50bfa5;fill-opacity:1;fill-rule:nonzero;stroke:none"
           d="m 3560.96,11694.9 c -271.29,541.2 -315.6,1155.6 -124.78,1730.1 190.82,574.5 593.95,1040.3 1135.12,1311.6 541.15,271.3 1155.58,315.6 1730.09,124.8 574.49,-190.8 1040.29,-593.9 1311.59,-1135.1 271.29,-541.2 315.6,-1155.6 124.78,-1730.1 -190.83,-574.5 -593.96,-1040.3 -1135.12,-1311.6 -541.16,-271.3 -1155.59,-315.6 -1730.08,-124.8 -574.5,190.9 -1040.3,594 -1311.6,1135.1 m -1075.12,-960.5 c 42.01,-32.7 89.72,-15.6 208.31,25.8 212.13,74.1 424.36,148.2 638.87,214.8 33.76,10.5 91.28,-6.5 118.37,-31.7 161.09,-149.7 313.18,-309.2 475.74,-457.3 50.39,-45.8 68.95,-77.3 47.99,-146 -83.8,-274.6 -159.9,-551.47 -237.99,-824.5 211.78,-153.72 813.13,-390.97 1038.98,-407.38 121.18,245.21 248.78,493.87 366.42,747.14 36.62,78.82 71.73,100.16 163.02,95.65 211.78,-10.45 425.17,-1.58 637.15,11.5 85.84,5.3 140.15,-1.78 184.93,-87.36 116.08,-221.81 245.6,-436.55 365.45,-656.42 32.21,-59.15 68.59,-82.09 130.85,-54.73 292.85,128.47 585.54,257.32 878.36,385.88 72,31.59 40.32,85.83 25.55,131.54 -74.76,231.36 -148.3,463.28 -230.74,691.88 -30.95,85.9 -16.07,135.8 51.99,198.6 180.08,166 349.34,343.8 536.25,530.3 272.55,-76.9 573.48,-161.7 882.79,-248.9 191.37,321.1 317.85,663.3 394.38,1037.3 -279.14,139.3 -558.37,278.7 -804.45,401.5 -13.24,292.2 -19.51,563.2 -41.5,832.9 -6.36,78 14.26,109.6 76.77,143.6 216.89,117.7 430.13,242.2 646.22,361.5 46.72,25.7 77,49.3 59.89,109.9 -86.47,306.3 -197.56,601.1 -372.27,870.1 -38.95,60 -76.46,64.5 -136.35,44.6 -241.07,-80.4 -483.68,-156.2 -724.4,-237.6 -58.32,-19.7 -92.18,-17 -141.59,32.1 -171.4,170.6 -350.38,334 -533.13,492.4 -46.69,40.5 -47.57,71.2 -33.58,120.8 77.93,276.4 153.82,553.3 232.37,837.2 -322.65,182.6 -654.81,323.9 -1021.76,400.5 -142.08,-284.7 -283.25,-567.6 -418.34,-838.3 -305.71,-6.5 -601.71,-12.7 -918.45,-19.4 -108.45,191.3 -231.77,412.5 -358.79,631.6 -104.25,179.9 -64.55,178.7 -275.98,109.5 -20.18,-6.6 -42.76,-5.9 -64.21,-8.5 -174.86,-78.4 -349.72,-156.7 -524.57,-235.1 -35.61,-24.4 -68.46,-55.2 -107.35,-71.9 -101.21,-43.6 -130.29,-100.4 -88.3,-212.8 87.49,-234.3 160.36,-474.3 233.49,-713.6 9.57,-31.4 -2.95,-83.6 -25.11,-108.2 -144.55,-161.1 -303.45,-310.1 -439.01,-478.1 -66.33,-82.2 -117.98,-89.3 -209.8,-61.6 -260.42,78.5 -524.06,146.4 -812.79,225.7 -135.72,-346.1 -268.12,-683.7 -402,-1025.1 61.63,-32.2 96.8,-51.3 132.59,-69.2 220.8,-110.1 440.62,-222.2 663.32,-328.4 63.24,-30.1 76.03,-66.8 76.98,-135 3.29,-234.4 21.66,-468.7 26.54,-703.1 0.75,-36.4 -29.78,-88.8 -61.45,-107.9 -173.43,-104.3 -352.58,-199 -528.13,-299.9 -142.03,-81.6 -194.47,-112.4 -198.61,-185.5 l 417.08,-930.8" /></g><g
         transform="scale(1.11206)"
         id="g30"><path
           id="path32"
           style="fill:#f7cc7f;fill-opacity:1;fill-rule:nonzero;stroke:none"
           d="m 4785.92,15866.4 80.73,148.2 -75.97,150.7 c -8.65,17.2 6.08,36.9 24.93,33.3 l 165.5,-31.2 119.46,119 c 13.61,13.6 36.81,5.6 39.26,-13.4 l 21.56,-167.5 149.79,-77.2 c 17.06,-8.8 16.67,-33.4 -0.67,-41.6 l -152.17,-72.3 -26.88,-166.7 c -3.06,-19 -26.5,-26.3 -39.68,-12.3 l -115.59,122.8 -166.42,-25.9 c -18.95,-2.9 -33.04,17.2 -23.85,34.1" /></g><g
         transform="scale(1.06337)"
         id="g34"><path
           id="path36"
           style="fill:#07345a;fill-opacity:1;fill-rule:nonzero;stroke:none"
           d="m 14479.5,15952.2 64.4,105.2 -102.5,41.5 -64.4,-105.1 z m -261.3,-93.8 72.2,117.1 -58,23.5 c -12.6,5.1 -18.7,19.5 -13.6,32.2 5.2,12.7 19.6,18.8 32.3,13.6 l 66.7,-27 64.4,105.1 -61.7,25.1 c -12.7,5.1 -18.8,19.6 -13.7,32.2 5.2,12.7 19.6,18.8 32.3,13.7 l 70.7,-28.7 74.9,120.4 c 6.3,10.2 19,14.4 30.2,9.9 l 10.8,-4.4 c 14.2,-5.7 19.8,-22.8 11.8,-35.9 l -69.6,-113.6 102.5,-41.6 74.9,120.5 c 6.4,10.2 19.2,14.3 30.3,9.8 l 11.8,-4.8 c 14.1,-5.7 19.8,-22.8 11.8,-35.8 l -69.6,-113.6 57.9,-23.5 c 12.6,-5.2 18.7,-19.6 13.6,-32.3 -5.1,-12.6 -19.5,-18.7 -32.2,-13.6 l -66.8,27.1 -63.5,-105.6 61.9,-25 c 12.6,-5.2 18.7,-19.6 13.6,-32.3 -5.1,-12.7 -19.6,-18.8 -32.2,-13.6 l -70.7,28.6 -76.5,-124.1 c -6.4,-10.3 -19.2,-14.5 -30.4,-10 l -12.6,5.1 c -14.2,5.8 -19.8,22.9 -11.8,35.9 l 72.1,117.1 -102.5,41.6 -76.4,-124.2 c -6.4,-10.3 -19.2,-14.5 -30.4,-9.9 l -12.6,5.1 c -14.2,5.7 -19.9,22.9 -11.9,35.9" /></g><g
         transform="scale(1.13879)"
         id="g38"><path
           id="path40"
           style="fill:#f47458;fill-opacity:1;fill-rule:nonzero;stroke:none"
           d="m 13745.1,12496.9 c 81.5,433 498.5,717.9 931.4,636.4 433,-81.4 717.9,-498.4 636.5,-931.4 v 0 c -81.5,-433 -498.5,-717.9 -931.4,-636.4 -433,81.4 -718,498.5 -636.5,931.4 v 0 m -900.5,407.8 -91.1,-484.4 c 7.6,-24.6 31.3,-31 89.8,-47.2 104.6,-29.1 209.2,-58.2 312.7,-91 16.3,-5.1 34.5,-27.7 38.3,-45.2 22.6,-103.8 38.9,-209 62.6,-312.6 7.4,-32.1 6.1,-49.7 -21.2,-71.2 -109,-85.9 -215.5,-174.7 -321.7,-261.6 41.6,-119.4 214.8,-379.3 299.9,-448.1 115.8,63.9 234.9,127.4 351.4,195.4 36.3,21.2 56.2,20 91.1,-6.9 81.1,-62.6 168.3,-117.9 256,-171.2 35.5,-21.5 55.1,-39.3 49.3,-85.6 -15.1,-120.1 -22.9,-241 -36,-361.3 -3.5,-32.3 4.7,-51.5 36.9,-57.8 151.6,-29.8 303.3,-59.3 455,-89.1 37.2,-7.3 39.6,23 46.3,45.2 34.2,112.4 69,224.7 99.3,338.2 11.4,42.6 31,58.3 75.3,64.5 117.3,16.2 233.5,40.1 359.1,62.5 86.9,-105.6 183,-222.2 281.7,-342.1 164.4,74.6 309,175.5 442.5,302.9 -72.4,132.2 -144.8,264.5 -208.5,381.1 75.3,119.6 147.5,228.9 213.1,342 19.1,32.7 35.9,39.5 70.1,35.8 118.5,-13.1 237.5,-22.5 356.2,-34.7 25.6,-2.7 44,-1.7 54,27.1 50.1,145.3 87.3,293 92.2,447.9 1.1,34.6 -12.6,46.7 -41.8,55.3 -117.9,34.5 -235,71.4 -353,105.5 -28.6,8.2 -41.3,18.6 -47.4,51.7 -21,115 -46.9,229.2 -75.8,342.4 -7.3,29 0.8,41.4 20.1,57.2 107.1,88.2 213.5,177.2 323,268.2 -77.7,161.4 -170.5,309.1 -295,440.7 -134.9,-73.9 -269,-147.2 -397.2,-217.4 -123.1,81.8 -242.3,160.9 -369.8,245.6 9.7,105.8 21.7,227.6 31.7,349.6 8.3,100.1 23.7,88.7 -79.3,119.5 -9.8,3 -18.6,9.5 -27.8,14.3 -91,17.1 -182,34.3 -273,51.4 -6.5,0 -13.1,-0.3 -19.7,-0.5 -14.5,-0.6 -29,-1.3 -42.8,1.5 -52.1,10.6 -79.3,-3.9 -93.6,-60.1 -29.9,-117.1 -67.1,-232.4 -104.1,-347.5 -4.9,-15.1 -24.2,-32.4 -39.9,-36.1 -101.7,-24 -205.9,-39.3 -306,-68.6 -49,-14.3 -71.4,-2.9 -100.2,33.4 -81.7,103 -167.6,202.6 -260.4,313.7 -149.2,-100 -294.8,-197.4 -442.1,-296 15.6,-29.7 24.2,-47 33.6,-64 57.2,-104.6 113.5,-209.7 172.6,-313.2 16.8,-29.4 11.8,-47.5 -6.7,-74.8 -63.3,-94 -120.6,-192 -183.3,-286.4 -9.8,-14.6 -36.3,-27 -54.1,-25.8 -97.6,6.4 -194.9,18.2 -292.4,26.6 -78.8,6.8 -108.1,9 -129.9,-18.8" /></g><g
         transform="scale(1.10022)"
         id="g42"><path
           id="path44"
           style="fill:#355389;fill-opacity:1;fill-rule:nonzero;stroke:none"
           d="m 10016.9,16105.4 296.8,-35.9 -126.6,230.5 -170.2,-194.6" /></g><path
         id="path46"
         style="fill:#f47458;fill-opacity:1;fill-rule:nonzero;stroke:none"
         d="m 12220.4,14904.6 c -10.2,-110.4 84.7,-211.2 189.9,-229.7 109,-19 206.1,52 243.6,152.4 74,198.1 -142.8,354.4 -260.3,234.5 -109.7,-111.9 -75,-278.1 43.4,-278.2 44.7,0 116.6,37.5 88.1,91.6 -6.4,12.2 -24.4,11.3 -31,0 -14.4,-24.4 -13.2,-25.3 -20,-30.8 -10.7,-8.6 -25.5,-11.4 -38.8,-11.2 -120.7,2.1 -40.5,278.1 101.7,211.2 78.1,-36.7 101.1,-125.5 74,-203 -26,-74.6 -96,-132.4 -177,-127.2 -96.7,6.2 -177.8,95.1 -184,190.4 -1.3,19.2 -27.8,18.9 -29.6,0" /><g
         transform="scale(1.17334)"
         id="g48"><path
           id="path50"
           style="fill:#50bfa5;fill-opacity:1;fill-rule:nonzero;stroke:none"
           d="m 15499.6,16186.5 83.2,-35.8 c 0,0 139,31.1 154.5,57.2 15.6,26.1 24.6,92 44,92.1 19.5,0 56.2,-9.6 61.5,-55.8 3.7,-33.5 -52.6,-124.3 -45.8,-135.1 4.3,-6.8 51.5,-28.7 86.3,-44.1 22.9,-10.2 38.2,-32.2 39.8,-57.2 v -0.1 c 1.2,-16.9 -9.7,-32.3 -26,-36.9 l -25.3,-7.1 5.8,-25.9 c 4.4,-19.2 -7.6,-38.4 -26.7,-42.8 l -19.5,-4.6 4.8,-15.9 c 6.2,-20.4 -6.5,-41.7 -27.5,-45.7 l -17,-3.3 0.4,-4.5 c 1.3,-18.5 -11.7,-35 -29.9,-38 l -16.9,-2.8 -221.6,95.2 c -20.8,8.9 -39.6,22 -55.1,38.5 l -72.4,46.4 c -7.8,5 -10.7,14.9 -7,23.4 l 86,193.2 c 4.2,9.3 15,13.6 24.4,9.6" /></g><path
         id="path52"
         style="fill:#1aaa40;fill-opacity:1;fill-rule:nonzero;stroke:none"
         d="m 15441.5,14339.2 h -1764.8 c -180.6,0 -327.1,-146.4 -327.1,-327 V 13434 c 0,-180.6 146.5,-327.1 327.1,-327.1 h 1764.8 c 180.6,0 327,146.5 327,327.1 v 578.2 c 0,180.6 -146.4,327 -327,327" /><g
         transform="scale(1.09761)"
         id="g54"><path
           id="path56"
           style="fill:#1a8040;fill-opacity:1;fill-rule:nonzero;stroke:none"
           d="m 11938.3,1996.97 -1703,-784.98 V 1038.16 H 16300 v 173.83 l -1718.3,784.98 h -2643.4" /></g><path
         id="path58"
         style="fill:#1a5a40;fill-opacity:1;fill-rule:nonzero;stroke:none"
         d="m 13103.6,2190.3 h 2902.6 v 3694.3 h -2902.6 z" /><g
         transform="scale(1.4318)"
         id="g60"><path
           id="path62"
           style="fill:#1a8040;fill-opacity:1;fill-rule:nonzero;stroke:none"
           d="m 16300,3300.52 v 5818.31 c 0,276.46 -224.1,500.56 -500.6,500.56 H 4518.26 c -276.45,0 -500.56,-224.1 -500.56,-500.56 V 3300.52 H 16300" /></g><g
         transform="scale(1.09761)"
         id="g64"><path
           id="path66"
           style="fill:#1a5a40;fill-opacity:1;fill-rule:nonzero;stroke:none"
           d="m 16300,1038.16 h -6064.7 v 173.83 H 16300 v -173.83" /></g><path
         id="path68"
         style="fill:#1a5a40;fill-opacity:1;fill-rule:nonzero;stroke:none"
         d="m 13103.6,2191.9 h 2901.5 v 433.504 h -2901.5 z" /><g
         transform="scale(1.4318)"
         id="g70"><path
           id="path72"
           style="fill:#1a9240;fill-opacity:1;fill-rule:nonzero;stroke:none"
           d="m 4017.7,3300.52 v -932.39 c 0,-193.88 128.19,-351.09 286.33,-351.09 H 16013.6 c 158.2,0 286.4,157.21 286.4,351.09 v 932.39 H 4017.7" /></g><path
         id="path74"
         style="fill:#1a5a40;fill-opacity:1;fill-rule:nonzero;stroke:none"
         d="m 14736.5,14011.9 c 0,-90.1 -73.1,-163.2 -163.3,-163.2 -90.2,0 -163.2,73.1 -163.2,163.2 0,90.2 73,163.3 163.2,163.3 90.2,0 163.3,-73.1 163.3,-163.3" /><g
         transform="scale(1.40655)"
         id="g76"><path
           id="path78"
           style="fill:#ffffff;fill-opacity:1;fill-rule:nonzero;stroke:none"
           d="m 16300,3617.02 v 5649.75 c 0,148.1 -124.3,268.16 -277.8,268.16 H 4660.34 c -153.44,0 -277.82,-120.06 -277.82,-268.16 V 3617.02 H 16300" /><path
           id="path1103"
           style="fill:#1aac40;fill-opacity:0.236181;fill-rule:nonzero;stroke:none"
           d="m 16300,3617.02 v 5649.75 c 0,148.1 -124.3,268.16 -277.8,268.16 H 4660.34 c -153.44,0 -277.82,-120.06 -277.82,-268.16 V 3617.02 H 16300" /></g><g
         transform="scale(1.04144)"
         id="g80"><path
           id="path82"
           style="fill:#e9ffff;fill-opacity:1;fill-rule:nonzero;stroke:none"
           d="M 16300,5511.33 H 6625.8 V 12261.7 H 16300 V 5511.33" /></g><g
         transform="scale(1.04144)"
         id="g84"><path
           id="path86"
           style="fill:#1a8040;fill-opacity:1;fill-rule:nonzero;stroke:none"
           d="M 16300,11471.4 H 6625.8 v 790.3 H 16300 v -790.3" /></g><g
         transform="scale(1.12683)"
         id="g88"><path
           id="path90"
           style="fill:#1aac40;fill-opacity:0.105528;fill-rule:nonzero;stroke:none"
           d="m 15689.7,5047.71 v 0 2705.64 h 410.7 c 49.2,-149.26 115.7,-293.92 199.6,-431.12 v -192.48 h -610.3 V 5047.71" /></g><g
         transform="scale(1.3036)"
         id="g92"><path
           id="path94"
           style="fill:#1aac40;fill-opacity:0.360784;fill-rule:nonzero;stroke:none"
           d="m 16300,4363.24 h -527.5 v 1112.77 c 180.2,15.34 358.3,57.99 527.5,127.88 V 4363.24" /></g><g
         transform="scale(1.24467)"
         id="g96"><path
           id="path98"
           style="fill:#1aac40;fill-opacity:0.360784;fill-rule:nonzero;stroke:none"
           d="m 16300,4569.79 h -552.5 v 1261.37 c 179.1,-61.86 365.5,-95.77 552.5,-101.71 V 4569.79 m -84.3,1380.36 c -159.3,13.74 -317.2,50.54 -468.2,110.39 v 0 c 151,-59.85 309,-96.65 468.2,-110.39" /></g><g
         transform="scale(1.36336)"
         id="g100"><path
           id="path102"
           style="fill:#1aac40;fill-opacity:0.360784;fill-rule:nonzero;stroke:none"
           d="m 16300,4171.97 h -504.4 v 1290.85 c 12.8,7.56 25.5,15.26 38.1,23.1 50.9,-43.2 102.4,-87.5 115.8,-103.71 0,0 189.3,-216.45 350.5,-394.98 v -815.26 m 0,1089.22 -237.9,189.67 -0.2,-0.07 c -3.6,11.88 -42.7,139.95 -44.7,162.83 0,1.32 -0.4,2.72 -0.9,4.11 11.4,9.39 22.6,19 33.7,28.68 l 250,-244.1 v -141.12 m 0,519.01 -61,59.7 c 21.2,25.53 41.5,51.42 61,77.82 V 5780.2 m -298.7,91.17 c 0.4,0.44 0.9,0.95 1.3,1.39 -0.4,-0.44 -0.9,-0.95 -1.3,-1.39" /></g><g
         transform="scale(1.18575)"
         id="g104"><path
           id="path106"
           style="fill:#1aac40;fill-opacity:0.360784;fill-rule:nonzero;stroke:none"
           d="m 16300,4796.86 h -580 v 1856.62 c 24.5,-26.73 50,-52.96 76.2,-78.6 152.4,-148.85 322.7,-268.09 503.8,-357.74 V 4796.86 m 0,1676.23 c -114.8,66.46 -223.7,147.17 -324.3,242.04 100.6,-94.87 209.5,-175.5 324.3,-242.04 v 0 m -340.3,257.31 c 0,0.08 0.1,0 0,0.08 0.1,-0.08 0,0 0,-0.08" /></g><g
         transform="scale(1.12683)"
         id="g108"><path
           id="path110"
           style="fill:#1aac40;fill-opacity:0.360784;fill-rule:nonzero;stroke:none"
           d="m 16300,5047.71 h -610.3 V 7129.75 H 16300 V 5047.71" /></g><g
         transform="scale(1.01517)"
         id="g112"><path
           id="path114"
           style="fill:#1aac40;fill-opacity:0.361809;fill-rule:nonzero;stroke:none"
           d="M 16300,10258.5 H 7139.63 v 1175.8 H 16300 v -1175.8" /></g><g
         transform="scale(1.01517)"
         id="g116"><path
           id="path118"
           style="fill:#1aac40;fill-opacity:0.360784;fill-rule:nonzero;stroke:none"
           d="m 16300,9623.3 h -5896 v 301.32 h 5896 V 9623.3" /></g><path
         id="path120"
         style="fill:#1a8040;fill-opacity:1;fill-rule:nonzero;stroke:none"
         d="M 10192.4,6544.8 H 7247.95 v 3530.4 H 10192.4 V 6544.8" /><g
         transform="scale(1.01517)"
         id="g122"><path
           id="path124"
           style="fill:#1aac40;fill-opacity:0.360784;fill-rule:nonzero;stroke:none"
           d="m 16300,8988.03 h -3175.3 c -76.1,117.42 -194.1,185.49 -328.6,201.45 -25,2.95 -48.1,4.33 -69.8,4.33 -182.6,0 -254.4,-100.18 -365.7,-205.78 H 10404 v 301.33 h 5896 v -301.33" /></g><g
         transform="scale(1.01517)"
         id="g126"><path
           id="path128"
           style="fill:#1aac40;fill-opacity:0.360784;fill-rule:nonzero;stroke:none"
           d="m 16300,7082.25 h -5896 v 301.33 h 1052.5 c 111,-81.66 233.8,-114.66 359.3,-114.66 150.3,0 304.3,47.28 447,114.66 H 16300 v -301.33" /></g><g
         transform="scale(1.01517)"
         id="g130"><path
           id="path132"
           style="fill:#1aac40;fill-opacity:0.360784;fill-rule:nonzero;stroke:none"
           d="m 16300,6446.99 h -5896 v 301.32 h 5896 v -301.32" /></g><path
         id="path134"
         style="fill:#f7cc7f;fill-opacity:1;fill-rule:nonzero;stroke:none"
         d="m 3044.5,8809.2 5590.31,10.1 c 83.95,0.1 152.13,-67.8 152.28,-151.8 l 13.27,-7366.3 c 0.15,-84 -67.78,-152.1 -151.74,-152.3 l -5590.31,-10.1 c -83.95,-0.1 -152.13,67.8 -152.28,151.8 l -13.27,7366.3 c -0.15,84 67.78,152.1 151.74,152.3" /><path
         id="path136"
         style="fill:#ffffff;fill-opacity:1;fill-rule:nonzero;stroke:none"
         d="m 3199.68,8595.5 5280.72,9.5 12.97,-7200 -5280.72,-9.5 -12.97,7200" /><path
         id="path138"
         style="fill:#005500;fill-opacity:1;fill-rule:nonzero;stroke:none"
         d="m 6984.3,8918 c -0.06,32.4 -26.36,58.6 -58.74,58.5 l -2217.27,-4 c -32.38,0 -58.59,-26.3 -58.53,-58.7 l 0.42,-230.5 2334.54,4.2 -0.42,230.5" /><path
         id="path140"
         style="fill:#13375b;fill-opacity:1;fill-rule:nonzero;stroke:none"
         d="m 5817.45,8680.8 c -123.85,-0.2 -224.44,100 -224.66,223.8 -0.22,123.9 100,224.5 223.86,224.7 123.85,0.2 224.43,-100 224.66,-223.9 0.22,-123.8 -100,-224.4 -223.86,-224.6 z m -1.03,573.9 c -193.13,-0.3 -349.4,-157.2 -349.06,-350.3 0.35,-193.1 157.19,-349.4 350.32,-349 193.13,0.3 349.4,157.1 349.06,350.3 -0.35,193.1 -157.19,349.4 -350.32,349" /><path
         id="path142"
         style="fill:#1a5a40;fill-opacity:1;fill-rule:nonzero;stroke:none"
         d="m 6948.39,8972 c 21.06,-8.9 35.87,-29.7 35.91,-54 l 0.42,-230.5 -2334.54,-4.2 c 0.28,-159.6 129.94,-288.8 289.61,-288.5 l 1756.36,3.1 c 159.66,0.3 288.85,130 288.57,289.6 l -0.42,230.5 c -0.04,24.3 -14.85,45.1 -35.91,54" /><path
         id="path144"
         style="fill:#9bc1f9;fill-opacity:1;fill-rule:nonzero;stroke:none"
         d="m 4708.29,8972.5 v 0 c -20.24,0 -38.07,-10.3 -48.58,-25.9 10.51,15.6 28.34,25.9 48.58,25.9" /><path
         id="path146"
         style="fill:#9bc1f9;fill-opacity:1;fill-rule:nonzero;stroke:none"
         d="m 4652.36,8931.2 c 1.14,3.7 2.63,7.2 4.43,10.6 -1.8,-3.4 -3.29,-6.9 -4.43,-10.6" /><path
         id="path148"
         style="fill:#184655;fill-opacity:1;fill-rule:nonzero;stroke:none"
         d="m 7154.79,6510.4 689.32,1.2 -1.24,689.3 -689.32,-1.2 z m 720.06,-29.4 -750.69,-1.4 -1.35,750.7 750.69,1.4 1.35,-750.7" /><path
         id="path150"
         style="fill:#184655;fill-opacity:1;fill-rule:nonzero;stroke:none"
         d="m 7157.04,5261.3 689.32,1.2 -1.24,689.4 -689.32,-1.3 z m 720.06,-29.4 -750.68,-1.3 -1.36,750.6 750.69,1.4 1.35,-750.7" /><path
         id="path152"
         style="fill:#184655;fill-opacity:1;fill-rule:nonzero;stroke:none"
         d="m 7159.29,4012.2 689.32,1.2 -1.24,689.4 -689.32,-1.3 z m 720.06,-29.4 -750.69,-1.3 -1.35,750.6 750.69,1.4 1.35,-750.7" /><path
         id="path154"
         style="fill:#184655;fill-opacity:1;fill-rule:nonzero;stroke:none"
         d="m 7161.54,2763.1 689.32,1.3 -1.24,689.3 -689.32,-1.3 z m 720.06,-29.4 -750.69,-1.3 -1.35,750.7 750.68,1.3 1.36,-750.7" /><path
         id="path156"
         style="fill:#1aac40;fill-opacity:0.623116;fill-rule:nonzero;stroke:none"
         d="m 3595.83,7100.6 3212.72,5.8 -0.2,108 -3212.72,-5.8 0.2,-108" /><path
         id="path158"
         style="fill:#1aac40;fill-opacity:0.623116;fill-rule:nonzero;stroke:none"
         d="m 3596.38,6794.6 3212.72,5.8 -0.19,108 -3212.73,-5.7 0.2,-108.1" /><path
         id="path160"
         style="fill:#1aac40;fill-opacity:0.623116;fill-rule:nonzero;stroke:none"
         d="m 3596.92,6488.6 3212.73,5.8 -0.19,108.1 -3212.73,-5.8 0.19,-108.1" /><path
         id="path162"
         style="fill:#1aac40;fill-opacity:0.623116;fill-rule:nonzero;stroke:none"
         d="m 3598.15,5808.8 3212.72,5.8 -0.19,108.1 -3212.73,-5.8 0.2,-108.1" /><path
         id="path164"
         style="fill:#1aac40;fill-opacity:0.623116;fill-rule:nonzero;stroke:none"
         d="m 3598.7,5502.9 3212.73,5.7 -0.2,108.1 -3212.72,-5.8 0.19,-108" /><path
         id="path166"
         style="fill:#1aac40;fill-opacity:0.623116;fill-rule:nonzero;stroke:none"
         d="m 3599.25,5196.9 3212.73,5.8 -0.2,108 -3212.72,-5.8 0.19,-108" /><path
         id="path168"
         style="fill:#1aac40;fill-opacity:0.623116;fill-rule:nonzero;stroke:none"
         d="m 3600.36,4584.9 3212.72,5.8 -0.19,108.1 -3212.73,-5.8 0.2,-108.1" /><path
         id="path170"
         style="fill:#1aac40;fill-opacity:0.623116;fill-rule:nonzero;stroke:none"
         d="m 3600.91,4279 3212.72,5.7 -0.19,108.1 -3212.73,-5.8 0.2,-108" /><path
         id="path172"
         style="fill:#1aac40;fill-opacity:0.623116;fill-rule:nonzero;stroke:none"
         d="m 3601.46,3973 3212.72,5.8 -0.19,108 -3212.73,-5.8 0.2,-108" /><path
         id="path174"
         style="fill:#1aac40;fill-opacity:0.360784;fill-rule:nonzero;stroke:none"
         d="m 3602.56,3361 3212.73,5.8 -0.2,108.1 -3212.73,-5.8 0.2,-108.1" /><path
         id="path176"
         style="fill:#1aac40;fill-opacity:0.623116;fill-rule:nonzero;stroke:none"
         d="m 3603.11,3055 3212.72,5.8 -0.19,108.1 -3212.72,-5.8 0.19,-108.1" /><path
         id="path178"
         style="fill:#1aac40;fill-opacity:0.623116;fill-rule:nonzero;stroke:none"
         d="m 3603.66,2749.1 3212.73,5.8 -0.2,108 -3212.73,-5.8 0.2,-108" /><path
         id="path180"
         style="fill:#1aac40;fill-opacity:0.623116;fill-rule:nonzero;stroke:none"
         d="m 3605.09,1958 3706.35,6.7 -0.19,108 -3706.35,-6.7 0.19,-108" /><path
         id="path182"
         style="fill:#1aac40;fill-opacity:0.623116;fill-rule:nonzero;stroke:none"
         d="m 3605.56,1696.2 4437.26,8 -0.19,108 -4437.27,-8 0.2,-108" /><path
         id="path184"
         style="fill:#f47458;fill-opacity:1;fill-rule:nonzero;stroke:none"
         d="m 7495.8,6603.7 -233.13,400 83.42,48.6 135.32,-232.2 220.89,530 89.13,-37.2 -295.63,-709.2" /><path
         id="path186"
         style="fill:#f47458;fill-opacity:1;fill-rule:nonzero;stroke:none"
         d="m 7498.08,5338.3 -233.13,399.9 83.42,48.6 135.32,-232.1 220.89,529.9 89.13,-37.1 -295.63,-709.2" /><path
         id="path188"
         style="fill:#f47458;fill-opacity:1;fill-rule:nonzero;stroke:none"
         d="m 7502.53,2864.1 -233.13,400 83.42,48.6 135.32,-232.1 220.9,529.9 89.13,-37.1 -295.64,-709.3" /><path
         id="path190"
         style="fill:#f47458;fill-opacity:1;fill-rule:nonzero;stroke:none"
         d="m 7762.26,4546.8 -67.23,67.9 -191.82,-190.1 -192.5,189.4 -66.98,-68.1 191.64,-188.5 -190.97,-189.3 67.23,-67.8 191.82,190.1 192.5,-189.4 66.98,68.1 -191.64,188.5 190.97,189.2" /><path
         id="path192"
         style="fill:#dabd7e;fill-opacity:1;fill-rule:nonzero;stroke:none"
         d="m 4406.97,1397.6 v 0 l 263.5,0.5 v 0 l -263.5,-0.5" /><path
         id="path194"
         style="fill:#e1ecfd;fill-opacity:1;fill-rule:nonzero;stroke:none"
         d="m 4406.97,1397.6 c 124.4,80.2 233.4,182.2 321.52,300.6 l 194.1,0.4 c -55.21,-88.8 -120.92,-171.9 -196.52,-247.7 -18.11,-18.2 -36.68,-35.8 -55.6,-52.8 l -263.5,-0.5" /><path
         id="path196"
         style="fill:#1aac37;fill-opacity:0.155779;fill-rule:nonzero;stroke:none"
         d="m 4800.43,1806.4 c 29.1,49.2 54.84,100.6 76.92,153.9 l 171.83,0.3 c -18.8,-52.6 -40.81,-104 -65.91,-153.9 l -182.84,-0.3 m 115.85,262 c 35.11,114.2 53.91,235.5 53.68,361.1 -0.2,111.4 -15.35,219.4 -43.54,322 l 165.06,0.3 c 24.92,-104.3 37.83,-212.1 38.03,-322 0.22,-123.6 -15.66,-244.8 -46.67,-361.1 l -166.56,-0.3 m -25.06,791 c -26.15,69.1 -58.41,135.3 -96.08,197.8 l 183.29,0.3 c 32.65,-63.7 60.22,-129.8 82.51,-197.8 l -169.72,-0.3 m -169.18,305.7 c -55,72.6 -117.97,138.9 -187.46,197.6 l 230.48,0.4 c 56.88,-61.8 107.55,-127.9 151.69,-197.6 l -194.71,-0.4 m -336.38,305.4 c -186.25,114.6 -405.36,180.8 -639.56,180.8 -0.74,0 -1.5,0 -2.24,0 -191.85,-0.4 -373.41,-45.1 -535.05,-124.4 l -0.24,134.6 -0.08,41.3 c 167.13,70.5 348.24,107.7 535.08,108 0.86,0 1.69,0 2.55,0 337.34,0 656.36,-120 908.23,-339.8 l -268.69,-0.5" /><path
         id="path198"
         style="fill:#89b3f7;fill-opacity:1;fill-rule:nonzero;stroke:none"
         d="m 4534.58,3362.7 c -46.8,39.5 -96.53,75.5 -148.92,107.8 l 268.69,0.5 c 23.32,-20.4 46.07,-41.6 68.19,-63.6 14.54,-14.5 28.71,-29.3 42.52,-44.3 l -230.48,-0.4" /><path
         id="path200"
         style="fill:#89b3f7;fill-opacity:1;fill-rule:nonzero;stroke:none"
         d="m 4795.14,3057.2 c -22.49,37.3 -46.88,73.3 -73.1,107.9 l 194.71,0.4 c 22.23,-35.1 42.81,-71.2 61.68,-108 l -183.29,-0.3" /><path
         id="path202"
         style="fill:#89b3f7;fill-opacity:1;fill-rule:nonzero;stroke:none"
         d="m 4926.42,2751.5 c -10.1,36.7 -21.85,72.7 -35.2,107.9 l 169.72,0.3 c 11.63,-35.5 21.82,-71.5 30.54,-107.9 l -165.06,-0.3" /><path
         id="path204"
         style="fill:#89b3f7;fill-opacity:1;fill-rule:nonzero;stroke:none"
         d="m 4877.35,1960.3 c 14.6,35.2 27.62,71.3 38.93,108.1 l 166.56,0.3 c -9.74,-36.5 -20.97,-72.6 -33.66,-108.1 l -171.83,-0.3" /><path
         id="path206"
         style="fill:#89b3f7;fill-opacity:1;fill-rule:nonzero;stroke:none"
         d="m 4728.49,1698.2 c 25.82,34.7 49.85,70.8 71.94,108.2 l 182.84,0.3 c -18.55,-36.9 -38.79,-73 -60.68,-108.1 l -194.1,-0.4" /><path
         id="path208"
         style="fill:#dabd7e;fill-opacity:1;fill-rule:nonzero;stroke:none"
         d="m 3212.33,1572.2 v 0 l -0.17,95.8 v 0 l 0.17,-95.8 m -2.91,1612.6 -0.17,95.8 v 0 l 0.17,-95.8 v 0" /><path
         id="path210"
         style="fill:#1aac37;fill-opacity:0.155779;fill-rule:nonzero;stroke:none"
         d="m 3746.02,1419 c -195.81,0 -378.78,56.1 -533.69,153.2 l -0.17,95.8 c 151.14,-106.6 335.34,-169.3 533.86,-169.3 0.57,0 1.14,0 1.72,0 215.67,0.4 414.25,74.7 571.83,198.8 l 121.84,0.2 C 4260.8,1525.5 4016.53,1419.4 3747.88,1419 c -0.63,0 -1.23,0 -1.86,0 m 689.33,386.7 c 42.61,47.2 80.45,98.8 112.75,154 l 91.29,0.2 c -28.59,-54.5 -62.02,-106 -99.7,-154 l -104.34,-0.2 m 166.91,262.1 c 46.84,111.2 72.65,233.2 72.41,361.2 -0.2,113.2 -20.74,221.6 -58.13,321.9 l 84.63,0.1 c 34.35,-101 53.08,-209.3 53.28,-321.8 0.23,-127.2 -23.21,-249 -66.15,-361.2 l -86.04,-0.2 m -34.06,791.1 c -37.93,71.9 -85.03,138.3 -139.75,197.6 l 104.94,0.2 c 48.55,-60.6 90.23,-126.8 123.92,-197.7 l -89.11,-0.1 m -257.81,305.5 c -156.54,120.1 -352.25,191.6 -564.31,191.6 -0.56,0 -1.13,0 -1.69,0 -199.17,-0.4 -383.78,-63.8 -534.97,-171.2 l -0.17,95.8 c 117.07,73.9 250.34,124.5 393.19,144.9 l 0.12,-64.5 522.12,1 c 114.91,-46.8 219.35,-114.1 308.67,-197.4 l -122.96,-0.2" /><path
         id="path212"
         style="fill:#1aac40;fill-opacity:0.623116;fill-rule:nonzero;stroke:none"
         d="m 3602.56,3361 -0.12,64.5 c 46.34,6.7 93.67,10.1 141.81,10.2 0.64,0 1.22,0 1.86,0 133.79,0 261.62,-26.2 378.57,-73.7 l -522.12,-1" /><path
         id="path214"
         style="fill:#89b3f7;fill-opacity:1;fill-rule:nonzero;stroke:none"
         d="m 4428.45,3056.5 c -36.17,39.2 -75.7,75.3 -118.06,107.9 l 122.96,0.2 c 35.87,-33.5 69.34,-69.6 100.04,-107.9 l -104.94,-0.2" /><path
         id="path216"
         style="fill:#89b3f7;fill-opacity:1;fill-rule:nonzero;stroke:none"
         d="m 4616.54,2750.9 c -13.86,37.2 -30.02,73.2 -48.34,108 l 89.11,0.1 c 16.61,-34.9 31.29,-71 43.86,-108 l -84.63,-0.1" /><path
         id="path218"
         style="fill:#89b3f7;fill-opacity:1;fill-rule:nonzero;stroke:none"
         d="m 4548.1,1959.7 c 20.32,34.7 38.42,70.8 54.16,108.1 l 86.04,0.2 c -14.22,-37.1 -30.57,-73.2 -48.91,-108.1 l -91.29,-0.2" /><path
         id="path220"
         style="fill:#89b3f7;fill-opacity:1;fill-rule:nonzero;stroke:none"
         d="m 4319.57,1697.5 c 41.58,32.7 80.35,69 115.78,108.2 l 104.34,0.2 c -30.14,-38.4 -62.98,-74.6 -98.28,-108.2 l -121.84,-0.2" /><path
         id="path222"
         style="fill:#184655;fill-opacity:1;fill-rule:nonzero;stroke:none"
         d="m 4718.49,7562.6 v 359.7 h -143.35 v 31.5 h 331.88 v -31.5 h -143.36 v -359.7 h -45.17" /><path
         id="path224"
         style="fill:#184655;fill-opacity:1;fill-rule:nonzero;stroke:none"
         d="m 5273.27,7594.1 v -31.5 h -287.7 v 391.2 h 277.54 v -31.5 h -232.69 v -137 h 168.46 v -31.5 h -168.46 v -159.7 h 242.85" /><path
         id="path226"
         style="fill:#184655;fill-opacity:1;fill-rule:nonzero;stroke:none"
         d="m 5319.1,7656.2 38.94,13 c 13.09,-27.9 29.84,-48.5 50.25,-61.8 20.4,-13.3 45.44,-19.9 75.11,-19.9 30.55,0 55.15,6.9 73.81,20.9 18.65,13.9 27.99,32.2 27.99,55 0,18.1 -6.12,33.1 -18.33,44.8 -12.23,11.7 -32.95,22.4 -62.19,32.1 -15.93,5.1 -37.04,11.3 -63.34,18.5 -26.29,7.3 -43.15,12.7 -50.57,16.2 -23.35,10.9 -39.93,22.5 -49.74,34.9 -9.82,12.3 -14.74,27.6 -14.74,45.7 0,32.5 12.33,58 36.99,76.6 24.65,18.6 58.59,27.9 101.79,27.9 38.41,0 70.1,-7.6 95.09,-22.9 24.98,-15.2 44.01,-38.6 57.11,-70.2 l -37.97,-9.8 c -12.01,24.4 -27.44,42.4 -46.31,54 -18.88,11.6 -42.17,17.4 -69.88,17.4 -26.84,0 -48.6,-6.2 -65.3,-18.7 -16.69,-12.6 -25.04,-28.9 -25.04,-49 0,-15.1 5.4,-27.9 16.2,-38.3 10.81,-10.4 27.55,-18.9 50.25,-25.4 8.72,-2.6 21.38,-6.3 37.96,-10.8 47.57,-13.1 78.23,-23.4 91.98,-31 22.03,-11.6 38.01,-24.4 47.95,-38.2 9.92,-13.9 14.89,-30.2 14.89,-49.1 0,-34.2 -13.37,-61.4 -40.1,-81.7 -26.73,-20.3 -62.9,-30.4 -108.5,-30.4 -41.03,0 -74.79,8.1 -101.3,24.3 -26.51,16.2 -47.52,41.5 -63,75.9" /><path
         id="path228"
         style="fill:#184655;fill-opacity:1;fill-rule:nonzero;stroke:none"
         d="m 5817.58,7562.6 v 359.7 h -143.36 v 31.5 h 331.88 v -31.5 h -143.35 v -359.7 h -45.17" /><path
         id="path230"
         style="fill:#184655;fill-opacity:1;fill-rule:nonzero;stroke:none"
         d="m 6091.86,7562.6 v 391.2 h 44.84 v -391.2 h -44.84" /><path
         id="path232"
         style="fill:#184655;fill-opacity:1;fill-rule:nonzero;stroke:none"
         d="m 6317.05,7925.5 v -362.9 h -43.53 v 391.2 h 72.98 l 232.06,-330.1 v 330.1 h 43.53 v -391.2 h -47.78 l -257.26,362.9" /><path
         id="path234"
         style="fill:#184655;fill-opacity:1;fill-rule:nonzero;stroke:none"
         d="m 7032.86,7606.5 c -16.15,-17.3 -35.24,-30.2 -57.28,-38.7 -22.04,-8.6 -47.68,-12.9 -76.92,-12.9 -60.01,0 -105.71,17.4 -137.14,52 -31.42,34.7 -47.13,84.9 -47.13,150.6 0,65.1 16.04,115.3 48.11,150.6 32.08,35.4 77.47,53.1 136.16,53.1 43.42,0 78.12,-9.4 104.08,-28.1 25.97,-18.7 45.18,-48.1 57.61,-88.3 l -42.22,-7.1 c -10.47,31.5 -25.48,54.8 -45,69.8 -19.53,15 -44.58,22.5 -75.12,22.5 -43.64,0 -77.36,-14.6 -101.14,-43.8 -23.78,-29.2 -35.67,-70.6 -35.67,-124.2 0,-57.8 12.05,-101.5 36.16,-130.9 24.11,-29.4 59.95,-44.2 107.52,-44.2 35.78,0 64.59,8.4 86.41,25 21.82,16.7 32.73,38.7 32.73,66 v 41.8 h -120.45 v 29.4 h 168.9 v -186.5 h -39.61 v 43.9" /><g
         transform="scale(1.06689)"
         id="g236"><path
           id="path238"
           style="fill:#50bfa5;fill-opacity:1;fill-rule:nonzero;stroke:none"
           d="m 11918.7,16168.5 -95.5,-372.5 292.3,164.2 873.2,322 -643.5,17.8 c 0,0 -333.7,-40 -353.1,-53.8 -19.5,-13.8 -73.4,-77.7 -73.4,-77.7" /></g><g
         transform="scale(1.07544)"
         id="g240"><path
           id="path242"
           style="fill:#96d9c9;fill-opacity:1;fill-rule:nonzero;stroke:none"
           d="m 11571.3,16300 1314.1,-147.4 -1061.5,-112.8 -252.6,260.2" /></g><g
         transform="scale(1.06572)"
         id="g244"><path
           id="path246"
           style="fill:#96d9c9;fill-opacity:1;fill-rule:nonzero;stroke:none"
           d="m 12312.1,15754 -313.9,320.4 1004.8,225.6 -690.9,-546" /></g><g
         transform="scale(1.04655)"
         id="g248"><path
           id="path250"
           style="fill:#9bc1f9;fill-opacity:1;fill-rule:nonzero;stroke:none"
           d="m 11372.8,16181.7 c 51.7,47.7 110.3,87.5 174.1,118.3 l 13.9,-28.8 c -60.9,-29.5 -116.9,-67.5 -166.3,-113.1 z m -400.4,-72.7 c 36.5,6.5 102.9,17.2 136.9,14.8 26.4,-1.9 50.5,-4.5 73.6,-8 l -4.8,-31.7 c -22.2,3.4 -45.5,5.9 -71,7.7 -22.3,1.6 -69.3,-3.6 -129,-14.3 z m 397.6,-91.2 -3.8,2.4 16.9,27.1 4.2,-2.6 c 61.7,-39.6 109.5,-98.8 131.1,-162.4 l -30.3,-10.3 c -19.3,56.9 -62.4,110 -118.1,145.8 z m -172,-143.6 c 3.6,30.5 11.2,61.5 22.8,91.9 6.2,16.4 13.5,33 22,49.3 l 28.4,-14.8 c -7.8,-15.1 -14.8,-30.5 -20.5,-45.8 -10.6,-28 -17.6,-56.4 -20.9,-84.3 -2.3,-19.8 -2.5,-40 -0.8,-60.1 l -31.9,-2.8 c -1.9,22.3 -1.7,44.7 0.9,66.6 z m -608.8,73.3 c 56.8,37.7 117.6,72.7 180.7,104 l 14.2,-28.7 c -61.8,-30.7 -121.5,-65 -177.2,-102 z m 706.1,-336.3 c -1.7,1.4 -3.4,2.8 -5.1,4.2 l 20.8,24.3 c 1.5,-1.2 2.9,-2.4 4.2,-3.5 0,0 0.8,-0.5 3,-1.4 16.7,-6.3 62.3,-11.7 89.7,0.5 22.9,10.2 42.5,27.7 58.2,52.1 l 27,-17.4 c -18.9,-29.2 -44,-51.4 -72.3,-64 -37.9,-16.8 -92.8,-9 -113.8,-1.1 -5,1.9 -8.8,3.9 -11.7,6.3 z m -1015.1,57.1 c 41.7,52.8 90.1,103.9 143.7,151.9 l 21.3,-23.9 c -52.2,-46.7 -99.3,-96.4 -139.9,-147.8 z m -176.2,-347.8 c 7.8,30.2 17.3,60.5 28.5,90.1 10.2,27.2 22.1,54.5 35.3,81 l 28.6,-14.2 c -12.7,-25.6 -24,-51.8 -34,-78.1 -10.7,-28.5 -19.9,-57.7 -27.4,-86.8 -2.2,-8.5 -4.2,-17.1 -6.2,-25.7 l -31.2,7 c 2.1,9.1 4.2,18 6.4,26.7" /></g><g
         transform="scale(1.05107)"
         id="g252"><path
           id="path254"
           style="fill:#9bc1f9;fill-opacity:1;fill-rule:nonzero;stroke:none"
           d="m 11702.3,16260.6 c 34.4,5.2 68.7,7.5 102.2,6.9 l 0.6,31.9 c -35.2,0.6 -71.4,-1.8 -107.5,-7.3 l 4.7,-31.5" /></g><g
         transform="scale(1.01797)"
         id="g256"><path
           id="path258"
           style="fill:#a34b3d;fill-opacity:1;fill-rule:nonzero;stroke:none"
           d="m 9635.25,16299.8 c 19.8,-0.8 74.07,-19 153.44,-169 101.34,-191.5 249.51,-770.2 249.51,-770.2 l -442.19,-164.6 -56.81,120.8 -93.56,929.7 c 0,0 184.12,53.5 189.61,53.3" /></g><g
         transform="scale(1.02318)"
         id="g260"><path
           id="path262"
           style="fill:#b75742;fill-opacity:1;fill-rule:nonzero;stroke:none"
           d="m 9004.71,16299.8 c 125.79,-0.1 437.05,-36.8 581.51,-83 0,0 106.13,-912.1 -95.55,-1605.3 -45.14,-155.1 37.34,-643.1 37.34,-643.1 l -1303.5,17.2 c 0,0 154.42,1179.8 96.23,1370.3 -58.17,190.6 -59.56,854.8 -59.56,854.8 0,0 8.94,1.4 292.87,50.4 132.45,22.9 316.35,38.9 450.66,38.7" /></g><path
         id="path264"
         style="fill:#f7a491;fill-opacity:1;fill-rule:nonzero;stroke:none"
         d="m 9058.03,12559.9 c 0,0 29.5,-340.5 83.75,-434.8 54.26,-94.3 -2.85,-254.7 -5.71,-276.7 -2.85,-22 -114.2,-53.4 -291.24,-34.5 -177.02,18.8 -174.17,59.7 -159.89,125.7 14.27,66 108.5,150.9 114.21,213.8 5.71,62.8 -54.25,289.2 -54.25,289.2 l 313.13,117.3" /><path
         id="path266"
         style="fill:#e0973f;fill-opacity:1;fill-rule:nonzero;stroke:none"
         d="m 9598.39,14573.3 c 0,0 920.71,51.1 1126.31,-73.4 205.5,-124.5 -146.1,-735.6 -146.1,-735.6 0,0 -640.65,29.5 -1895.47,-42.9 -297.15,-17.2 -322.76,774.8 -267.2,840.3 55.57,65.5 1182.46,11.6 1182.46,11.6" /><path
         id="path268"
         style="fill:#dd513a;fill-opacity:1;fill-rule:nonzero;stroke:none"
         d="m 8822.75,11787.4 c -182.29,19.5 -159.75,109 -145.04,177 9.2,42.5 61.49,92.7 92.67,140.2 16.29,-13 42.8,-35.9 121.96,-59.3 82.21,-24.3 194.9,23.8 266.7,53.9 25.6,-95.3 26.77,-216.7 24.37,-235.2 -2.94,-22.6 -178.37,-96 -360.66,-76.6" /><path
         id="path270"
         style="fill:#f7cc7f;fill-opacity:1;fill-rule:nonzero;stroke:none"
         d="m 8923.37,13914.6 c 36.79,-278.3 218.91,-1664 218.91,-1664 l -422.58,-52.4 c 0,0 -519.67,1808.6 -493.02,2085.2 26.65,276.7 221.17,299.9 221.17,299.9 0,0 378.16,68.1 475.52,-668.7" /><g
         transform="scale(1.01408)"
         id="g272"><path
           id="path274"
           style="fill:#f7a491;fill-opacity:1;fill-rule:nonzero;stroke:none"
           d="m 8321.01,16253.9 c 122.98,46.1 183.14,-1061.9 199.71,-1517.9 217.77,-21 597.33,-0.2 691.84,6.9 44.45,3.3 146.94,40.9 191.15,46.7 45.3,5.9 86.36,9 108.63,5.1 8.18,-1.4 235.16,-94.2 254.58,-114.6 24.09,-25.2 89.18,-88.9 78.19,-116.5 -10.98,-27.5 -125.2,76.8 -125.2,76.8 l -55.81,31.3 c 69.49,-67.9 202,-157.3 182.93,-189.9 -18.62,-31.7 -138.18,59 -223.4,120.9 73.1,-66.1 163.9,-184.2 142.98,-202.6 -18.81,-16.6 -122.09,120.2 -232.48,159.6 -40.9,14.6 -81.67,-25.8 -113.84,-30.7 -23.65,-3.6 -60.16,-11.2 -83.36,-4.7 l -119.52,33.9 c -40.7,-3.6 -41.73,-27.7 -82.84,-36.5 -47.73,-10.1 -126.04,-20.8 -186.82,-35.7 -350.02,-85.5 -466.76,-125.2 -573.93,-125.1 -324.6,0.1 -343.43,1783.9 -52.81,1893" /></g><g
         transform="scale(1.0199)"
         id="g276"><path
           id="path278"
           style="fill:#a34b3d;fill-opacity:1;fill-rule:nonzero;stroke:none"
           d="m 8041.49,15126.8 c -22.91,464.5 -19.56,1037 240.81,1134.7 102.74,38.5 283.84,-193.2 251.27,-1144.1 -138.99,-11.5 -343.05,-20.7 -492.08,9.4" /></g><path
         id="path280"
         style="fill:#f7a491;fill-opacity:1;fill-rule:nonzero;stroke:none"
         d="m 10337.9,12229.7 c 0,0 -61,-107.8 -13,-198.1 48,-90.4 299.9,-223.3 326.2,-272.3 26.3,-49 16,-83.7 16,-83.7 l -748.19,183.4 57.33,225.5 69.96,155.9 291.7,-10.7" /><path
         id="path282"
         style="fill:#dd513a;fill-opacity:1;fill-rule:nonzero;stroke:none"
         d="m 10363.5,11983.3 c 0,0 -210.3,-36.4 -293.7,30.1 -83.45,66.5 -77.86,78.7 -108.62,67.3 -19.78,-7.3 -49.88,-97.1 -68.86,-160.4 -10.1,-33.6 10.14,-68.9 44.25,-77.3 l 779.03,-192.5 c 59.2,-11.4 98.4,25.5 58.5,73 -27.3,32.6 -61.5,57.8 -80.4,74.8 -58,52.3 -330.2,185 -330.2,185" /><path
         id="path284"
         style="fill:#f7cc7f;fill-opacity:1;fill-rule:nonzero;stroke:none"
         d="m 10264.6,14355 c 59.5,125.3 194.8,288.3 433,190.1 227.1,-93.7 288.1,-323.9 216.4,-559.6 -71.6,-235.7 -543.4,-1621.5 -559.9,-1812.1 l -376.69,-2.5 c 0,0 68.49,1097.3 85.29,1362.6 16.1,255.2 98.9,604.8 201.9,821.5" /><path
         id="path286"
         style="fill:#184655;fill-opacity:1;fill-rule:nonzero;stroke:none"
         d="M 10876.1,15631.4 H 9616.87 c -33.33,0 -63.33,-20.2 -75.98,-51.1 l -387.73,-948.9 h -694.22 c -19.42,0 -35.16,-15.8 -35.16,-35.3 0,-19.4 15.74,-35.2 35.16,-35.2 h 1975.86 c 54.3,0 103.5,32 125.8,81.7 l 390.4,872.7 c 24.4,54.5 -15.3,116.1 -74.9,116.1" /><path
         id="path288"
         style="fill:#ffffff;fill-opacity:1;fill-rule:nonzero;stroke:none"
         d="m 10198.1,15078.9 c -8.5,-42.7 -45.5,-71.2 -82.7,-63.7 -37.2,7.5 -60.5,48.1 -52,90.7 8.5,42.6 45.6,71.1 82.8,63.6 37.2,-7.4 60.4,-48 51.9,-90.6" /><g
         transform="scale(1.09944)"
         id="g290"><path
           id="path292"
           style="fill:#0e2e35;fill-opacity:1;fill-rule:nonzero;stroke:none"
           d="m 8652.32,16206 c -34.52,11.7 -68.51,24.8 -101.32,40.6 -37.1,17.9 -85.18,38.8 -115.54,43.5 -63.92,9.9 -173.73,3.3 -234.37,-62.5 -75.55,-81.9 -209.79,-14.8 -182.75,-444 30.62,-485.8 300.76,-432.5 307.31,-424.3 6.56,8.2 240.94,310.8 240.94,310.8 0,0 81.95,-179.2 81.95,-172.6 0,6.3 418.42,568.9 3.78,708.5" /></g><g
         transform="scale(1.05201)"
         id="g294"><path
           id="path296"
           style="fill:#f7a491;fill-opacity:1;fill-rule:nonzero;stroke:none"
           d="m 8828.05,16014.3 24.37,-181.5 c 0,0 54.59,-261.4 -15.63,-311.7 -70.25,-50.4 -298.7,319.2 -298.7,319.2 l 24.13,459.7 265.83,-285.7" /></g><g
         transform="scale(1.05201)"
         id="g298"><path
           id="path300"
           style="fill:#f47458;fill-opacity:1;fill-rule:nonzero;stroke:none"
           d="m 8554.42,16151 c 58.02,-156.8 196.21,-253.2 294.3,-290.6 l -20.67,153.9 -265.83,285.7 -7.8,-149" /></g><g
         transform="scale(1.08585)"
         id="g302"><path
           id="path304"
           style="fill:#f7a491;fill-opacity:1;fill-rule:nonzero;stroke:none"
           d="m 8538.96,16276.7 c 144.2,23.3 273.53,-92.7 269.93,-237 -1.57,-62.8 -6.71,-141.1 -19.75,-225.5 -31.35,-202.9 -169.78,-381.5 -261.32,-365.6 -91.54,16 -321.86,191 -281.3,479.7 25.04,178.3 141.12,324 292.44,348.4" /></g><g
         transform="scale(1.06537)"
         id="g306"><path
           id="path308"
           style="fill:#f7a491;fill-opacity:1;fill-rule:nonzero;stroke:none"
           d="m 8469.83,16199.5 c -7.88,-45.5 -44.31,-77.1 -81.37,-70.7 -37.07,6.5 -60.73,48.6 -52.85,94.1 7.87,45.5 44.3,77.1 81.36,70.6 37.07,-6.4 60.73,-48.5 52.86,-94" /></g><g
         transform="scale(1.08898)"
         id="g310"><path
           id="path312"
           style="fill:#0e2e35;fill-opacity:1;fill-rule:nonzero;stroke:none"
           d="m 8234.42,15940.1 c 0,0 110.34,-27.4 151.3,43.6 40.96,71 187.4,224.2 373.56,160.7 186.16,-63.6 -163.82,154.4 -178.71,154.4 -14.89,0 -193.6,1.2 -193.6,1.2 0,0 -137.76,-113.3 -142.72,-125.8 -4.97,-12.4 -44.69,-148.2 -44.69,-148.2 l 34.86,-85.9" /></g><g
         transform="scale(1.04516)"
         id="g314"><path
           id="path316"
           style="fill:#ffffff;fill-opacity:1;fill-rule:nonzero;stroke:none"
           d="m 8790.07,16300 209.22,-40 c 0,0 -19.96,-78.8 -112.48,-63.9 -112.8,18.2 -96.74,103.9 -96.74,103.9" /></g><path
         id="path318"
         style="fill:#f7a491;fill-opacity:1;fill-rule:nonzero;stroke:none"
         d="m 11730.9,1980.3 c 0,0 -40.1,-279.2 -108.9,-369.3 -23.1,-30.2 -65.3,-68.5 -93,-123.1 -43.2,-85.1 -19.3,-211.7 12.5,-281.5 16.3,-35.8 -1.2,-35.7 36,-47.2 110.2,-34.2 227.3,23.3 274.2,129.4 26.2,59.3 49.2,138.3 53.8,237.9 11.8,253.5 90.1,382.4 90.1,382.4 l -264.7,71.4" /><path
         id="path320"
         style="fill:#f7a491;fill-opacity:1;fill-rule:nonzero;stroke:none"
         d="m 12935.4,1852.6 c 0,0 24.7,-314.8 4.7,-417.1 -10.8,-54.8 -70.6,-167.6 -43.1,-219.1 27.4,-51.6 58.8,-64.5 58.8,-64.5 l 711,-11.5 c 38.7,-0.6 13.1,24.4 -18.1,47.5 -51.1,37.8 -92.4,62.8 -255.6,142.3 -10.7,5.1 -49.5,29.9 -63.4,38.5 -35.5,21.8 -71.1,56.1 -101.8,90.4 -51,57.1 -55.5,334.4 -55.5,334.4 l -237,59.1" /><path
         id="path322"
         style="fill:#e25a44;fill-opacity:1;fill-rule:nonzero;stroke:none"
         d="m 13491.2,6037.1 c 0,0 89.5,-511.1 30.7,-846.2 -58.8,-335.1 -340.9,-3441.1 -340.9,-3441.1 l -313.6,-17.8 c 0,0 -65.8,1297.5 -54,1477.9 11.8,180.4 104.8,482.4 104.8,482.4 l -31.2,1047.5 395.7,1376.2 208.5,-78.9" /><path
         id="path324"
         style="fill:#f47458;fill-opacity:1;fill-rule:nonzero;stroke:none"
         d="m 12569.6,6144.6 c 0,0 -247,-373.7 -305.7,-683 -58.8,-309.4 43.1,-1259.9 -70,-1665.3 -61.2,-219.4 -293.2,-558.3 -328.5,-841.8 -35.3,-283.5 -173.6,-1026.2 -173.6,-1026.2 l 313.4,-62.5 728.4,1854.8 571.4,1676.6 146.4,863.4 -881.8,-116" /><path
         id="path326"
         style="fill:#f7cc7f;fill-opacity:1;fill-rule:nonzero;stroke:none"
         d="m 11873.1,1344.4 c -170.9,-31.3 -284.5,69.2 -343.7,144.4 -43.4,-85.2 -64.6,-212.4 -32.6,-282.4 28.1,-61.7 110.3,-59.9 175,-62.3 68.4,-2.6 121.4,35.7 155.3,95.6 15.9,28 32.3,62.8 46,104.7" /><path
         id="path328"
         style="fill:#f7cc7f;fill-opacity:1;fill-rule:nonzero;stroke:none"
         d="m 13329.6,1368.8 c -188.1,-48.5 -327.1,-15.6 -404.9,16 -20,-57.2 -46.6,-128.9 -32.5,-170.2 17.3,-50.7 41.9,-62.1 63.6,-62.7 171.7,-4.5 629.1,-10.7 760.1,-12.4 18.3,-0.3 28.4,21.2 16.6,35.4 -32.5,39 -388.9,185.3 -402.9,193.9" /><path
         id="path330"
         style="fill:#f38b80;fill-opacity:1;fill-rule:nonzero;stroke:none"
         d="m 14616.6,6920 c 13.1,27.9 -125,65.8 -129.5,95.8 -4.4,30 180.8,13.1 190,38.1 17.1,46 -201.6,31 -195.1,52.7 6.5,21.7 231.4,48.3 211.6,88.7 -19.8,40.4 -230.3,-51.9 -233.6,-25.5 -3.4,26.4 203.4,68.3 205.7,125.1 1.2,30.4 -344.4,-116.4 -380.6,-96.1 -36.2,20.4 57.2,154.1 29.2,178.3 -28,24.1 -149.2,-255.5 -171.1,-263.7 -21.8,-8.1 -496,-151.5 -657.2,-175.2 -13.6,54.6 -134.9,355 -146.5,406.5 -94.7,-53.6 -215.3,10.9 -312.2,-36.9 48.8,-172 158.3,-738.5 202,-764 133.3,-77.6 834.3,292.7 950.2,358.2 116,65.6 175.2,34.3 250.8,51 75.6,16.7 173.2,-60.8 186.3,-33" /><path
         id="path332"
         style="fill:#0e2e35;fill-opacity:1;fill-rule:nonzero;stroke:none"
         d="m 13369.2,8588.8 c 35.2,160.3 69.8,321.6 -23.2,497.7 -75.2,142.5 -205.3,224.5 -355.8,242.4 -426.5,50.6 -335.3,-347.6 -931.4,-433.7 -185.2,-26.8 -357.3,-52.6 -512,-144.7 -279.2,-166.3 -384.6,-433.1 -199.4,-867.8 453.5,-1064.4 1538.5,-139.5 1704,48.8 164.2,186.8 295.1,554.1 317.8,657.3" /><path
         id="path334"
         style="fill:#f7cc7f;fill-opacity:1;fill-rule:nonzero;stroke:none"
         d="m 12697.9,8082.8 c 0,0 -215.3,-24.4 -344.1,-164.5 -128.8,-140.1 208.2,-1266.4 231.6,-1444.8 23.4,-178.3 -224,-671.9 -224,-671.9 0,0 841,-167.1 1059.6,-22.8 0,0 19.2,1378.4 -4.3,1505.8 -23.4,127.3 -218.6,645.4 -265.4,696.3 -46.8,51 -453.4,101.9 -453.4,101.9" /><path
         id="path336"
         style="fill:#f7a491;fill-opacity:1;fill-rule:nonzero;stroke:none"
         d="m 12806.3,8517 c 0,0 -1.7,-9.6 -4.7,-25.8 -14.5,-78.2 -70.4,-337.3 -108.2,-408.6 -45.6,-86.1 156.3,-360.7 350.6,-327.1 57.8,9.9 -48.9,252.3 -43.8,277.9 9.8,49.2 23.1,116.2 36.8,184.9 7.7,38.8 15.4,78.1 22.8,115.1 20.7,105 37.7,190.9 37.7,190.9 l -291.2,-7.3" /><path
         id="path338"
         style="fill:#815147;fill-opacity:1;fill-rule:nonzero;stroke:none"
         d="m 13037.1,8219 v 0 c 1.5,7.8 3.1,15.6 4.6,23.4 -1.5,-7.8 -3.1,-15.6 -4.6,-23.4 m 10.1,50.7 c 4.2,21.6 8.5,43 12.6,63.7 20.7,105 37.7,190.9 37.7,190.9 v 0 c 0,0 -17,-85.9 -37.7,-190.9 -4.1,-20.7 -8.4,-42.1 -12.6,-63.7 m -246.4,216.9 c 0.2,1.6 0.5,3.1 0.8,4.6 2.7,14.5 4.3,23.6 4.7,25.5 -0.4,-1.9 -2,-11 -4.7,-25.5 -0.3,-1.5 -0.5,-3 -0.8,-4.6" /><path
         id="path340"
         style="fill:#f58c74;fill-opacity:1;fill-rule:nonzero;stroke:none"
         d="m 13037.1,8219 c -45,6.6 -91.9,28.4 -139,69.5 -51.4,44.9 -85,98.8 -105.3,156.3 3.1,16.2 5.8,30.4 8,41.8 0.3,1.6 0.5,3.1 0.8,4.6 2.7,14.5 4.3,23.6 4.7,25.5 0,0.2 0,0.3 0,0.3 l 291.2,7.3 c 0,0 -17,-85.9 -37.7,-190.9 -4.1,-20.7 -8.4,-42.1 -12.6,-63.7 -1.8,-9 -3.6,-18.1 -5.5,-27.3 -1.5,-7.8 -3.1,-15.6 -4.6,-23.4" /><path
         id="path342"
         style="fill:#f7a491;fill-opacity:1;fill-rule:nonzero;stroke:none"
         d="m 12981.5,9209 c 0,0 -118.8,-16.4 -204.8,-127.5 -86,-111 -178.8,-454.4 34.9,-641.1 213.7,-186.7 424.9,24.6 456.2,248.7 31.3,224.1 25,528 -286.3,519.9" /><path
         id="path344"
         style="fill:#f7a491;fill-opacity:1;fill-rule:nonzero;stroke:none"
         d="m 13330.1,8744.4 c -13.5,-54 -48.9,-90.5 -79,-81.5 -30.2,9 -43.8,60.1 -30.3,114.1 13.5,54.1 48.9,90.5 79.1,81.5 30.1,-9 43.7,-60.1 30.2,-114.1" /><path
         id="path346"
         style="fill:#0e2e35;fill-opacity:1;fill-rule:nonzero;stroke:none"
         d="m 13113.3,9208.1 c 0,0 -279,-320.4 -410.2,-335.5 -131.1,-15.1 -148.4,-188.6 -148.4,-188.6 0,0 46.9,399.8 176.8,476.9 129.8,77.1 381.8,47.2 381.8,47.2" /><path
         id="path348"
         style="fill:#f7a491;fill-opacity:1;fill-rule:nonzero;stroke:none"
         d="m 12746,8794.8 c 10.7,-58 -10.8,-111.2 -47.9,-118.8 -37.1,-7.6 -75.9,33.2 -86.5,91.2 -10.7,58 10.7,111.2 47.9,118.8 37.1,7.6 75.9,-33.2 86.5,-91.2" /><path
         id="path350"
         style="fill:#184655;fill-opacity:1;fill-rule:nonzero;stroke:none"
         d="m 12742,7168.8 901.8,-131.9 c 27.1,-4 45.8,-29.2 41.9,-56.3 l -176,-1203 c -4,-27.1 -29.2,-45.9 -56.3,-41.9 l -901.7,131.9 c -27.1,4 -45.9,29.2 -41.9,56.3 l 176,1203 c 3.9,27.1 29.1,45.9 56.2,41.9" /><path
         id="path352"
         style="fill:#13375b;fill-opacity:1;fill-rule:nonzero;stroke:none"
         d="m 13414.6,7110.3 c 0.8,5.5 -3,10.6 -8.5,11.4 l -376.1,55 c -5.5,0.8 -10.6,-3 -11.4,-8.5 l -5.7,-39.1 396,-57.9 5.7,39.1" /><path
         id="path354"
         style="fill:#13375b;fill-opacity:1;fill-rule:nonzero;stroke:none"
         d="m 13210.8,7099.3 c -21,3.1 -35.6,22.7 -32.5,43.7 3.1,21 22.6,35.5 43.6,32.4 21,-3 35.6,-22.6 32.5,-43.6 -3.1,-21 -22.6,-35.5 -43.6,-32.5 z m 14.2,97.4 c -32.7,4.8 -63.2,-17.9 -68,-50.6 -4.8,-32.8 17.9,-63.2 50.7,-68 32.7,-4.8 63.2,17.9 68,50.6 4.7,32.8 -17.9,63.2 -50.7,68" /><path
         id="path356"
         style="fill:#355389;fill-opacity:1;fill-rule:nonzero;stroke:none"
         d="m 13409.9,7120.3 c 3.3,-2 5.3,-5.9 4.7,-10 l -5.7,-39.1 -396,57.9 c -4,-27.1 14.8,-52.2 41.8,-56.2 l 298,-43.6 c 27.1,-4 52.2,14.8 56.2,41.9 l 5.7,39.1 c 0.6,4.1 -1.4,8 -4.7,10" /><path
         id="path358"
         style="fill:#ffffff;fill-opacity:1;fill-rule:nonzero;stroke:none"
         d="m 13134.2,8578.1 -202.9,1.1 c 0,0 4.2,-77.1 93.5,-80.2 108.8,-3.7 109.4,79.1 109.4,79.1" /><path
         id="path360"
         style="fill:#f7a491;fill-opacity:1;fill-rule:nonzero;stroke:none"
         d="m 12109.4,6861.2 326.7,-33.4 c 0,0 -5.3,-277.3 0.3,-309.2 0,0 558.7,-154.9 792.2,-196.9 0,0 106.4,60.3 149.4,79.4 43,19.2 158.6,40.1 184.2,43.4 25.6,3.4 16.8,-24.6 -5.1,-34.4 -22,-9.8 -78.8,-36.6 -94.9,-69.4 0,0 46.1,-5 70.5,5.9 24.4,10.8 58,33.9 58.6,45.8 0.5,11.9 6,40.7 14.1,39.2 2,-0.4 4.7,-9.9 7.5,-19.8 2.6,-9.3 5.3,-19 7.6,-28.5 4.1,-17 8.8,-41.8 10.7,-53 4.1,-25.4 -11.4,-95.7 -13.6,-120.6 -4,-45.6 -17,-65.8 -41.1,-77.4 -38.8,-13.5 -79.8,-22.1 -140.4,-28.4 -111.1,-11.5 -213.3,20.5 -257.9,25.5 -44.5,5 -756,75.6 -756,75.6 0,0 -282.8,40.7 -301.6,89.4 -18.7,48.6 -11.2,566.8 -11.2,566.8" /><path
         id="path362"
         style="fill:#f7cc7f;fill-opacity:1;fill-rule:nonzero;stroke:none"
         d="m 12393.2,7959 c 0,0 -103.1,-48.9 -193.7,-260.1 -86.2,-200.7 -111.5,-1202.3 -111.5,-1202.3 l 341.8,57 173.7,467 c 123.8,279.5 91.8,604.9 -88.6,851.7 -48.1,65.9 -92.4,105.6 -121.7,86.7" /><g
         transform="scale(1.17994)"
         id="g364"><path
           id="path366"
           style="fill:#1aac40;fill-opacity:0.360784;fill-rule:nonzero;stroke:none"
           d="m 16062.8,9593.55 h -992.2 V 10823 H 16300 V 9745.2 c -81.9,-44.31 -161.1,-94.83 -237.2,-151.65" /></g><g
         transform="scale(1.36931)"
         id="g368"><path
           id="path370"
           style="fill:#1aac40;fill-opacity:0.360784;fill-rule:nonzero;stroke:none"
           d="m 16300,9182.32 h -2066.7 v 143.95 H 16300 v -143.95" /></g><g
         transform="scale(1.31286)"
         id="g372"><path
           id="path374"
           style="fill:#1aac40;fill-opacity:0.360784;fill-rule:nonzero;stroke:none"
           d="m 16300,9258.85 h -1454.7 v 150.14 H 16300 v -150.14" /></g><g
         transform="scale(1.35164)"
         id="g376"><path
           id="path378"
           style="fill:#1aac40;fill-opacity:0.360784;fill-rule:nonzero;stroke:none"
           d="m 16300,8684.03 h -942 c -103.8,19.13 -208.8,28.69 -313.8,28.69 -105.1,0 -210,-9.57 -313.5,-28.69 h -311.4 v 145.83 H 16300 v -145.83" /></g><g
         transform="scale(1.44042)"
         id="g380"><path
           id="path382"
           style="fill:#f7a491;fill-opacity:1;fill-rule:nonzero;stroke:none"
           d="m 16171.4,5522.54 c -41.2,33.47 -359.6,-106.29 -355.6,-154.88 4.1,-48.6 -222.1,-520.06 -222.1,-520.06 l -390.9,311.65 -0.2,-0.07 c -3.4,11.25 -40.5,132.46 -42.3,154.12 -1.8,22.77 -67.9,62.55 -98.5,56.72 -30.7,-5.83 26.1,-44.36 29.9,-51.37 10.2,-19.24 -29.2,-26.46 -29.2,-26.46 0,0 -111.6,35.76 -114,72.21 -2.4,36.44 -78.7,-63.74 -69.7,-77.69 8.7,-13.61 191.1,-160.58 217.4,-192.44 0,0 505.6,-577.96 541.6,-593.09 31.6,-13.26 144.2,185.92 250.6,318.17 106.4,132.18 411.6,598.57 283,703.19" /></g><g
         transform="scale(1.553)"
         id="g384"><path
           id="path386"
           style="fill:#f48c7f;fill-opacity:1;fill-rule:nonzero;stroke:none"
           d="m 15945.3,1180.42 c 0,0 64.4,-62.91 65.9,-85.96 1.4,-23.11 5.7,-270.312 -20.6,-293.364 -26.3,-23.053 -103.6,-39.407 -78.7,-65.423 18.7,-19.574 163.2,-15.389 258.9,-10.109 28,1.547 63,224.47 74.1,257.244 16,47.582 55.1,154.802 40.5,187.962 -7.1,16.16 -41.2,49.39 -89.2,80.42 -50.5,32.58 -98.8,105.22 -98.8,105.22 l -152.1,-175.99" /></g><g
         transform="scale(1.46312)"
         id="g388"><path
           id="path390"
           style="fill:#f7a491;fill-opacity:1;fill-rule:nonzero;stroke:none"
           d="m 16216.2,1097.52 61.3,-173.4 c 4.6,-27.338 22.5,-95.071 22.5,-119.948 0,-93.569 -421.9,79.418 -327.4,120.904 8.6,3.693 35.4,33.696 38.2,65.544 4.4,49.07 -35.5,110.59 -35.5,110.59 l 240.9,-3.69" /></g><g
         transform="scale(1.45898)"
         id="g392"><path
           id="path394"
           style="fill:#50bfa5;fill-opacity:1;fill-rule:nonzero;stroke:none"
           d="m 15598.5,4329.61 c 0,0 -30.8,-310.83 -30.8,-315.49 0,-502.89 -99.7,-1485.08 -80.7,-1579.67 46.2,-230.57 544,-1406.88 544,-1406.88 l 269,32.15 -288.8,1421.47 67.2,553.82 182.6,1120.51 -662.5,174.09" /></g><g
         transform="scale(1.54101)"
         id="g396"><path
           id="path398"
           style="fill:#96d9c9;fill-opacity:1;fill-rule:nonzero;stroke:none"
           d="m 15623,3838.78 48.3,-278.91 130.7,-1148.01 498,-1122.06 c 0,0 -70.1,-163.27 -173.4,-186.18 l -792.5,1151.98 -492.4,1474.03 17.4,327.51 763.9,-218.36" /></g><g
         transform="scale(1.42151)"
         id="g400"><path
           id="path402"
           style="fill:#b75742;fill-opacity:1;fill-rule:nonzero;stroke:none"
           d="m 15899.6,5203.34 382.8,-39.04 c 0,0 17.6,313.89 17.6,463.59 0,181.64 -15.5,415.62 -37.4,410.55 -61.6,-14.14 -144.5,-48.12 -193.8,-115.93 -170.8,-234.68 -169.2,-719.17 -169.2,-719.17" /></g><g
         transform="scale(1.48774)"
         id="g404"><path
           id="path406"
           style="fill:#f47458;fill-opacity:1;fill-rule:nonzero;stroke:none"
           d="m 15371.5,5407.95 c -7.6,-52.9 -148.3,-1491.46 -148.3,-1491.46 666.1,-321.77 1033.6,-57.34 1033.6,-57.34 0,0 -21.7,1010.19 4.3,1147.72 17.3,90.94 38.9,695.49 -20,712.36 -75.7,21.77 -162.4,44.83 -257,54.64 -80.7,8.4 -394.2,13.24 -450.3,-5.64 0,0 -130.1,-137.73 -162.3,-360.28" /></g><g
         transform="scale(1.55577)"
         id="g408"><path
           id="path410"
           style="fill:#f47458;fill-opacity:1;fill-rule:nonzero;stroke:none"
           d="m 16164.2,1250.5 c 0,0 -148.2,-417.408 -206.2,-437.527 -15.4,-5.399 -89.4,-18.962 -103.4,-51.68 -4.2,-9.833 0,-42.742 0,-42.742 h 309.1 c 0,0 39,183.959 54.5,264.755 0,0 81.8,197.454 72.7,215.394 -9.1,17.93 -126.7,51.8 -126.7,51.8" /></g><g
         transform="scale(1.46528)"
         id="g412"><path
           id="path414"
           style="fill:#f47458;fill-opacity:1;fill-rule:nonzero;stroke:none"
           d="m 16300,772.143 -48.3,152.392 c 0,0 -101.3,-42.859 -151.9,-35.691 -50.7,7.166 -149.6,35.691 -149.6,35.691 -202.2,-66.54 -367.9,-98.819 -337.7,-152.392 h 687.5" /></g><g
         transform="scale(1.38664)"
         id="g416"><path
           id="path418"
           style="fill:#f7a491;fill-opacity:1;fill-rule:nonzero;stroke:none"
           d="m 16244.3,4675.77 c -1.6,0.65 -7.4,5.26 -10.7,8 12.7,151.23 10.4,297.78 -37.1,347.25 1.2,2.38 11.6,24.45 22.4,47.31 55,-42.55 81.1,-155.56 70.9,-339.03 -0.8,-12.62 -4.4,-22.21 -7.3,-37.93 -16,-17.52 -30.4,-28.84 -38.2,-25.6" /></g><g
         transform="scale(1.45469)"
         id="g420"><path
           id="path422"
           style="fill:#f7a491;fill-opacity:1;fill-rule:nonzero;stroke:none"
           d="m 16256.1,6189.41 43.9,-289.4 c 0,0 -160.3,-344.61 -256.1,-314.71 -80.3,25.09 -30.8,329.97 -30.8,329.97 0,0 43.8,163.74 30.6,245.69 -13.1,81.94 212.4,28.45 212.4,28.45" /></g><g
         transform="scale(1.4511)"
         id="g424"><path
           id="path426"
           style="fill:#f47458;fill-opacity:1;fill-rule:nonzero;stroke:none"
           d="m 16083.4,6176.19 c -13.2,82.15 212.9,28.53 212.9,28.53 l 3.7,-24.05 c -6.6,-16.12 -14.7,-29.9 -24.5,-40.45 -50.5,-54.37 -129.5,-86.97 -197.7,-89.45 6.8,44.24 11,91.72 5.6,125.42" /></g><g
         transform="scale(1.45864)"
         id="g428"><path
           id="path430"
           style="fill:#f7a491;fill-opacity:1;fill-rule:nonzero;stroke:none"
           d="m 16249.1,6581 c 6.3,2.33 50.9,-328.73 -33.7,-419.77 -84.7,-91.11 -249.5,-120.94 -308.7,-49.16 -65.5,79.32 -62.2,435.13 69.4,528.78 131.6,93.72 273,-59.85 273,-59.85" /></g><g
         transform="scale(1.47399)"
         id="g432"><path
           id="path434"
           style="fill:#0e2e35;fill-opacity:1;fill-rule:nonzero;stroke:none"
           d="m 15859.4,6746.94 c 100.6,-20.49 165.8,-82.03 189.8,-108.22 45.6,-5.42 107.8,-30.66 171.9,-136.9 78.9,-130.6 20.6,-275.31 -71.2,-346.27 -91.8,-71.04 -90.5,-152.99 -90.5,-152.99 l -14.6,42.4 c -10.6,32.16 -15,66.22 -11.4,99.94 2.1,20.21 6.4,42.06 14.8,60.04 22.1,47.42 -47.4,78.9 -66.9,118.32 -15,30.39 -15.8,99.86 -39.4,150.07 l -28.3,38.33 c 0,0 -65.1,50.74 -128.9,36.43 -63.7,-14.32 -54.5,225.17 74.7,198.85" /></g><g
         transform="scale(1.45317)"
         id="g436"><path
           id="path438"
           style="fill:#f7a491;fill-opacity:1;fill-rule:nonzero;stroke:none"
           d="m 16214.5,6354.72 c -0.6,-40.53 17.8,-73.7 41.3,-74.11 23.3,-0.42 42.8,32.13 43.5,72.67 0.7,40.53 -17.7,73.77 -41.1,74.11 -23.4,0.41 -43,-32.14 -43.7,-72.67" /></g><g
         transform="scale(1.43325)"
         id="g440"><path
           id="path442"
           style="fill:#ffffff;fill-opacity:1;fill-rule:nonzero;stroke:none"
           d="m 16300,6348.08 -129.8,6.7 c 0,0 0.4,-49.47 57.4,-54.07 69.5,-5.58 72.4,47.37 72.4,47.37" /></g><g
         transform="scale(1.40023)"
         id="g444"><path
           id="path446"
           style="fill:#0e2e35;fill-opacity:1;fill-rule:nonzero;stroke:none"
           d="m 15596.8,5711.62 c 31.2,31.92 60.4,64.92 87.4,98.56 l 580.2,-566.48 c 35.6,-34.78 23.3,-105.2 -27.5,-157.19 -50.7,-52.06 -120.8,-65.99 -156.5,-31.14 l -580.1,566.48 c 33,27.85 65.3,57.78 96.5,89.77" /></g><g
         transform="scale(1.25852)"
         id="g448"><path
           id="path450"
           style="fill:#1ac140;fill-opacity:0;fill-rule:nonzero;stroke:none"
           d="m 16178.7,5878.57 c -19.3,0 -38.7,0.31 -58,1.03 v 185.69 l 179.3,-182.27 c -40.4,-2.95 -80.8,-4.45 -121.3,-4.45 m -604.5,115.29 c -74.1,29.4 -146.6,64.36 -216.7,104.96 v 742.14 l 216.7,-220.25 v -626.85 m -763.1,617.87 c -183.4,274.68 -275.5,592.44 -275.5,909.88 0,49.42 2.3,98.84 6.7,148.03 l 268.8,-273.18 v -784.73" /></g><g
         transform="scale(1.1608)"
         id="g452"><path
           id="path454"
           style="fill:#1aac40;fill-opacity:0.105882;fill-rule:nonzero;stroke:none"
           d="m 16057.9,7168.31 v 0 850.79 l 242.1,-246.21 h -242.1 v -604.58" /></g><g
         transform="scale(1.24467)"
         id="g456"><path
           id="path458"
           style="fill:#1aac40;fill-opacity:0.105882;fill-rule:nonzero;stroke:none"
           d="m 16300,5945.01 c -28.2,0.96 -56.2,2.73 -84.3,5.14 -159.2,13.74 -317.2,50.54 -468.2,110.39 v 633.82 l 552.5,-561.59 v -187.76" /></g><g
         transform="scale(1.18575)"
         id="g460"><path
           id="path462"
           style="fill:#1aac40;fill-opacity:0.105528;fill-rule:nonzero;stroke:none"
           d="m 16300,6473.09 c -114.8,66.54 -223.7,147.17 -324.3,242.04 -5.3,5.06 -10.7,10.12 -16,15.27 0,0.08 0.1,0 0,0.08 -1.9,1.86 -4,3.88 -6,5.74 v 0 c -89.2,87.2 -167.1,181.48 -233.7,281.25 v 591.86 h 237 l 343,-348.55 v -787.69" /></g><g
         transform="scale(1.37448)"
         id="g464"><path
           id="path466"
           style="fill:#1aac40;fill-opacity:0.110553;fill-rule:nonzero;stroke:none"
           d="m 15459.4,5529.08 v 3.2 c 73,36.6 142.7,79.08 208.4,126.96 v -8.01 c -66.6,-46.78 -136.5,-87.52 -208.4,-122.15 m 208.4,531.54 -208.4,211.87 v 501.21 l 208.4,-211.87 v -501.21 m 500.4,194.04 v 34.05 c 56.2,132.85 94.2,276.18 110.4,427.15 5,46.63 7.7,92.9 8.5,138.88 l -118.9,120.78 v 196.44 H 15975 l -515.6,524.05 v 315 h -309.9 l -356,361.82 c 0.6,0 1.2,0 1.8,0 0.1,0 0.1,0 0.2,0 0,0 0.1,0 0.1,0 376.1,-0.04 753.2,-140.99 1045.3,-423.69 l 0.2,-0.1 c 0.8,-0.81 1.5,-1.53 2.4,-2.34 0.8,-0.84 1.7,-1.73 2.6,-2.57 302.1,-295.03 453.8,-685.67 453.9,-1075.78 0,-209.68 -43.9,-419.21 -131.8,-613.69 m -1209.1,526.39 -1174.4,1193.7 c -192.4,-179.02 -338.9,-409.26 -416.6,-672.28 65.7,227.43 186.8,442.21 363.5,623.17 164.9,168.78 360.3,289.89 569.1,363.15 -79.5,-28.36 -156.1,-63.36 -229.1,-104.41 l 887.5,-902.08 v -501.25" /></g><g
         transform="scale(1.3036)"
         id="g468"><path
           id="path470"
           style="fill:#1aac40;fill-opacity:0.105882;fill-rule:nonzero;stroke:none"
           d="m 15772.5,7149.77 v 0 528.5 l 169.9,-172.79 h -169.9 v -355.71 m 527.5,964.71 -326.7,332.13 h 326.7 v -332.13" /></g><g
         transform="scale(1.36336)"
         id="g472"><path
           id="path474"
           style="fill:#1aac40;fill-opacity:0.105882;fill-rule:nonzero;stroke:none"
           d="m 15795.6,6110.04 v 0 505.3 l 88.4,-89.78 h -88.4 v -415.52 m 504.4,922.35 -194.7,198.04 h 194.7 v -198.04" /></g><g
         transform="scale(1.3036)"
         id="g476"><path
           id="path478"
           style="fill:#1aac40;fill-opacity:0.105528;fill-rule:nonzero;stroke:none"
           d="m 16135.8,5762.07 c 56.2,20.55 111,44.33 164.2,71.03 v -3.37 c -53.7,-25.78 -108.5,-48.33 -164.2,-67.66 m 164.2,851.49 -527.5,536.21 v 355.71 h 169.9 l 357.6,-363.46 v -528.46" /></g><g
         transform="scale(1.36336)"
         id="g480"><path
           id="path482"
           style="fill:#1aac40;fill-opacity:0.105882;fill-rule:nonzero;stroke:none"
           d="m 15795.6,5697.31 v 8.07 c 76.7,55.75 148.1,118.68 213.3,187.85 l -213.3,216.81 v 415.52 h 88.4 l 338,-343.64 c 28.9,50.83 55,103.57 78,158.07 v -34.33 c -69.9,-154.69 -167.5,-299.92 -292.9,-428.35 v 0 c -1.4,-1.47 -2.9,-3.01 -4.5,-4.55 -0.4,-0.44 -0.9,-0.95 -1.3,-1.39 -64.4,-65.21 -133.2,-123.15 -205.7,-174.06" /></g><g
         transform="scale(1.32117)"
         id="g484"><path
           id="path486"
           style="fill:#fffffd;fill-opacity:1;fill-rule:nonzero;stroke:none"
           d="m 15527,5604.04 -170.8,173.63 v 682.28 645.33 h -520.5 v -798.53 l -206.4,209.81 v 312.83 756.03 h -520.5 v -539.7 l -256.1,260.22 c 8.9,98.24 27.1,195.73 54.7,291.17 80.9,273.64 233.3,513.17 433.5,699.4 L 15562.6,7054.65 V 5607.14 c -11.9,-1.21 -23.7,-2.19 -35.6,-3.1 m 556.1,151.46 v 770.07 l 216.9,-220.41 v -417.58 c -68.4,-49.81 -140.9,-94.01 -216.9,-132.08" /></g><g
         transform="scale(1.24467)"
         id="g488"><path
           id="path490"
           style="fill:#1ad240;fill-opacity:0;fill-rule:nonzero;stroke:none"
           d="m 15747.5,6694.36 v 0 847.61 h 552.5 v -685 h -552.5 v -162.61" /></g><g
         transform="scale(1.18575)"
         id="g492"><path
           id="path494"
           style="fill:#1ad240;fill-opacity:0;fill-rule:nonzero;stroke:none"
           d="m 16300,7609.33 h -343 l -237,241.03 v 601.34 h 580 v -842.37" /></g><g
         transform="scale(1.3036)"
         id="g496"><path
           id="path498"
           style="fill:#1ac140;fill-opacity:0.0351759;fill-rule:nonzero;stroke:none"
           d="M 15772.5,5682.75 V 7149.77 L 16300,6613.56 V 5833.1 c -53.2,-26.7 -108,-50.48 -164.2,-71.03 -118,-40.89 -240.1,-67.36 -363.3,-79.32" /></g><g
         transform="scale(1.24467)"
         id="g500"><path
           id="path502"
           style="fill:#1aac40;fill-opacity:0.105528;fill-rule:nonzero;stroke:none"
           d="m 16300,6132.77 -552.5,561.59 v 162.61 h 552.5 v -724.2" /></g><g
         transform="scale(1.33901)"
         id="g504"><path
           id="path506"
           style="fill:#1aac40;fill-opacity:0.105882;fill-rule:nonzero;stroke:none"
           d="m 16082.8,5809.13 v 412.02 l 217.2,-220.76 c -66.3,-70.42 -139.1,-134.5 -217.2,-191.26" /></g><g
         transform="scale(1.18575)"
         id="g508"><path
           id="path510"
           style="fill:#1aac40;fill-opacity:0.105882;fill-rule:nonzero;stroke:none"
           d="m 16300,7260.78 -343,348.55 h 343 v -348.55" /></g><g
         transform="scale(1.37339)"
         id="g512"><path
           id="path514"
           style="fill:#fffffd;fill-opacity:1;fill-rule:nonzero;stroke:none"
           d="m 16181,6293.71 v 184.22 503.13 l 119,-120.87 c -0.7,-46.01 -3.5,-92.32 -8.4,-138.99 -16.3,-151.09 -54.3,-294.53 -110.6,-427.49 m -500.7,273.34 -208.6,212.03 v 344.99 578.06 l 516,-524.47 h -307.4 v -610.61 m -709.4,721.04 -888.1,902.79 c 73,41.09 149.7,76.11 229.3,104.5 159.1,55.84 326,83.87 493.2,84.1 l 356.3,-362.1 h -190.7 v -729.29" /></g><g
         transform="scale(1.3036)"
         id="g516"><path
           id="path518"
           style="fill:#1ad240;fill-opacity:0;fill-rule:nonzero;stroke:none"
           d="m 16300,7505.48 h -357.6 l -169.9,172.79 v 768.34 h 200.8 l 326.7,-332.13 v -609" /></g><g
         transform="scale(1.36336)"
         id="g520"><path
           id="path522"
           style="fill:#1ad240;fill-opacity:0;fill-rule:nonzero;stroke:none"
           d="m 16300,6525.56 h -416 l -88.4,89.78 v 615.09 h 309.7 l 194.7,-198.04 v -506.83" /></g><g
         transform="scale(1.3036)"
         id="g524"><path
           id="path526"
           style="fill:#1aac40;fill-opacity:0.105882;fill-rule:nonzero;stroke:none"
           d="m 16300,7142.02 -357.6,363.46 h 357.6 v -363.46" /></g><g
         transform="scale(1.36336)"
         id="g528"><path
           id="path530"
           style="fill:#1aac40;fill-opacity:0.0251257;fill-rule:nonzero;stroke:none"
           d="m 16222,6181.92 -338,343.64 h 416 v -185.57 c -23,-54.5 -49.1,-107.24 -78,-158.07" /></g><g
         transform="scale(1.40551)"
         id="g532"><path
           id="path534"
           style="fill:#1aac40;fill-opacity:0.360784;fill-rule:nonzero;stroke:none"
           d="m 13459.3,5682.99 c -579.5,565.99 -593.3,1491.72 -30.9,2067.67 562.5,575.95 1488.3,584.04 2067.8,18.08 579.5,-565.98 593.4,-1491.66 30.9,-2067.67 -562.5,-575.95 -1488.2,-583.99 -2067.8,-18.08 m -132.9,-136.1 c 655.2,-639.84 1701.8,-630.66 2337.7,20.49 635.9,651.08 620.2,1697.62 -34.9,2337.46 -655.2,639.85 -1701.8,630.7 -2337.7,-20.42 -635.9,-651.13 -620.2,-1697.69 34.9,-2337.53" /></g><g
         transform="scale(1.39597)"
         id="g536"><path
           id="path538"
           style="fill:#103d46;fill-opacity:1;fill-rule:nonzero;stroke:none"
           d="m 14586.4,5208.64 c -395.6,0 -792.3,149.14 -1098.6,448.22 -619.6,605.1 -634.4,1594.86 -33,2210.65 304.2,311.42 707.6,467.56 1112.4,467.56 395.5,0 792.2,-149.15 1098.4,-448.24 619.6,-605.12 634.4,-1594.86 33,-2210.63 -304.1,-311.47 -707.6,-467.56 -1112.2,-467.56 m -1482,1572.38 c 0,-384.03 149.5,-768.64 446.9,-1059.19 288.5,-281.67 662,-422.07 1034.5,-422.07 381,0 761,147.07 1047.4,440.27 277.7,284.31 415.9,653.23 415.9,1022.58 v 0 c -0.1,384.11 -149.5,768.73 -447,1059.22 -0.8,0.83 -1.7,1.7 -2.5,2.53 -0.9,0.8 -1.6,1.51 -2.4,2.3 l -0.2,0.1 c -287.6,278.38 -658.8,417.16 -1029.1,417.17 -0.1,0 -0.2,0 -0.2,0 v 0 c -0.6,0 -1.3,0 -1.9,0 -164.5,-0.23 -328.7,-27.81 -485.3,-82.75 -205.6,-72.13 -398,-191.38 -560.3,-357.56 -174,-178.16 -293.2,-389.64 -357.9,-613.58 -26.2,-90.31 -43.5,-182.58 -51.8,-275.56 -4.1,-44.34 -6.1,-88.9 -6.1,-133.46 v 0" /></g><g
         transform="scale(1.56743)"
         id="g540"><path
           id="path542"
           style="fill:#184655;fill-opacity:1;fill-rule:nonzero;stroke:none"
           d="m 16139,2881.47 80.5,83.51 c 80.5,83.51 78.1,216.41 -5.4,296.86 l -1496.2,1450.59 c -83.5,80.45 -216.4,78.02 -296.8,-5.42 l -80.6,-83.58 c -80.5,-83.45 -78,-216.34 5.4,-296.85 l 1496.2,-1450.53 c 83.5,-80.52 216.4,-78.09 296.9,5.42" /></g><g
         transform="scale(1.54767)"
         id="g544"><path
           id="path546"
           style="fill:#f8a492;fill-opacity:1;fill-rule:nonzero;stroke:none"
           d="m 16261.5,3750.16 c 0.4,2.97 0.4,5.94 0.1,8.91 -9.4,95.76 -89,899.94 -102.3,934.12 -12.1,30.88 -368.7,540.94 -368.7,540.94 l -175.3,-238.81 343,-457.53 c 7.6,-29.07 131.4,-571.89 131.4,-571.89 0,0 25.4,-98.99 36.7,-158.24 -5.2,-14.28 -10.3,-27.78 -14.7,-38.83 -11.4,-23.65 -24.9,-43.1 -37,-59.38 -15.3,-20.55 -40.7,-65.45 -43.8,-77.47 -3.6,-13.96 -10.2,-42.97 -13.9,-60.48 -3.7,-17.57 -8.8,-37.93 -9.6,-47.42 -0.5,-5.82 -6.5,-17.39 -11.1,-25.53 -6.9,-12.14 4.8,-26.42 18,-22.03 12.5,4.13 22.2,20.22 28.2,30.3 16.9,28.37 25.9,80.19 30.1,77.41 4.2,-2.71 19,-90.59 21.3,-100.54 2.3,-9.95 20.1,-111.97 30.1,-130.65 9.9,-18.67 23.3,-15.5 26.7,-3.87 3.1,10.08 -11,152.87 -11,152.87 0,0 -1.7,18.22 6.2,12.54 8,-5.69 21,-135.3 26.6,-154.3 5.5,-19 18.2,-29.01 28.9,-13.76 13.1,18.54 -9.4,156.04 -9.4,156.04 0,0 -2.5,17.25 4.9,15.63 7.3,-1.61 16.6,-112.03 22.3,-121.6 5.8,-9.56 20.3,-12.99 27.2,2.91 8.2,18.8 -13,141.31 -13,141.31 0,0 1.1,9.76 5.7,6.53 4.6,-3.23 19.2,-96.86 28.7,-105.52 8,-7.23 14.7,-0.19 14.7,-0.19 17.5,11.95 -9.3,100.99 -9.1,145.25 0.3,44.26 -20.2,94.01 -14.1,146.73 0.4,3.3 1.5,11.44 2.2,16.55" /></g><g
         transform="scale(1.52575)"
         id="g548"><path
           id="path550"
           style="fill:#f47458;fill-opacity:1;fill-rule:nonzero;stroke:none"
           d="m 16300,4981.6 -309,-207.44 c 0,0 -174.2,259.15 -267.7,351.44 -117.1,115.54 42.7,469.6 118.1,449.61 168.8,-44.83 458.6,-593.61 458.6,-593.61" /></g><g
         transform="scale(1.58528)"
         id="g552"><path
           id="path554"
           style="fill:#0e2e35;fill-opacity:1;fill-rule:nonzero;stroke:none"
           d="M 16300,738.042 H 1501.32 V 649.729 H 16300 v 88.313" /></g></g></g></svg>
