<?xml version="1.0" encoding="UTF-8" standalone="no"?>
<svg
   xmlns:dc="http://purl.org/dc/elements/1.1/"
   xmlns:cc="http://creativecommons.org/ns#"
   xmlns:rdf="http://www.w3.org/1999/02/22-rdf-syntax-ns#"
   xmlns:svg="http://www.w3.org/2000/svg"
   xmlns="http://www.w3.org/2000/svg"
   xmlns:sodipodi="http://sodipodi.sourceforge.net/DTD/sodipodi-0.dtd"
   xmlns:inkscape="http://www.inkscape.org/namespaces/inkscape"
   viewBox="0 0 4266.6665 2666.6667"
   height="2666.6667"
   width="4266.6665"
   xml:space="preserve"
   id="svg2"
   version="1.1"
   sodipodi:docname="8294.svg"
   inkscape:version="1.0.1 (3bc2e813f5, 2020-09-07)"><sodipodi:namedview
     pagecolor="#ffffff"
     bordercolor="#666666"
     borderopacity="1"
     objecttolerance="10"
     gridtolerance="10"
     guidetolerance="10"
     inkscape:pageopacity="0"
     inkscape:pageshadow="2"
     inkscape:window-width="1280"
     inkscape:window-height="961"
     id="namedview344"
     showgrid="false"
     inkscape:zoom="0.093222089"
     inkscape:cx="1272.6152"
     inkscape:cy="2067.8196"
     inkscape:window-x="-8"
     inkscape:window-y="-8"
     inkscape:window-maximized="1"
     inkscape:current-layer="svg2" /><metadata
     id="metadata8"><rdf:RDF><cc:Work
         rdf:about=""><dc:format>image/svg+xml</dc:format><dc:type
           rdf:resource="http://purl.org/dc/dcmitype/StillImage" /></cc:Work></rdf:RDF></metadata><defs
     id="defs6" /><g
     transform="matrix(1.3333333,0,0,-1.3333333,0,2666.6667)"
     id="g10"><g
       transform="scale(0.1)"
       id="g12"><g
         transform="scale(1.96319)"
         id="g14"><path
           id="path16"
           style="fill:#ffffff;fill-opacity:1;fill-rule:nonzero;stroke:none"
           d="M 16300,0 H 0 V 10187.5 H 16300 V 0" /></g><g
         transform="scale(1.83)"
         id="g18"><path
           id="path20"
           style="fill:#1a8040;fill-opacity:0.27638191;fill-rule:nonzero;stroke:none"
           d="m 16269,1432.46 -14304.81,4.32 c 0,0 -13.92,15.51 -38.84,45.3 -1.43,1.64 -2.85,3.39 -4.33,5.19 -63.89,76.66 -192.49,238.14 -343.04,465.74 l -0.12,0.21 c -399.45,604.21 -952.975,1674.16 -859.821,2861.64 26.283,335.2 104.032,679.79 251.366,1025.92 446.835,1049.78 1779.955,1757.44 2980.895,1771.67 12.39,0.15 24.8,0.22 37.17,0.22 451.36,0 882.51,-99.01 1238.92,-315.74 64.94,-39.46 146.59,-69.96 241.59,-90.67 80.05,-17.57 169.56,-28.21 266.72,-31.61 22.73,-0.81 46.01,-1.21 69.62,-1.21 784.04,0 2000.76,445.53 2731.2,1519.08 399.51,587.23 1012.84,971.66 1717.78,1171.87 32.9,9.28 65.9,18.25 99.2,26.73 160.3,41.13 324.9,73.04 492.6,95.87 30.1,4.08 60.5,7.91 90.9,11.38 185.1,21.53 373.7,32.13 563.6,32.13 572.9,0 1158.9,-96.54 1707.8,-281.89 96.2,-32.48 191.3,-67.74 285.1,-105.71 1375.2,-556.93 2445.1,-1694.16 2351.1,-3282.05 -3.8,-62.78 -9.3,-126.31 -16.8,-190.51 v 0 h -130.1 v 400 h -26 v -400 h -264.9 v 213.39 h -16.6 v -213.39 h -110.5 v -457.6 h -221.5 v -115.23 h -239 v 198.43 h -429.7 v 539.3 h -67.2 v 53.74 h -9.6 v -53.74 h -55.8 v 0.06 h -278.6 v 53.68 h -9.7 v -53.68 h -72.7 v -271.16 l -360.9,1.48 v -167.37 h -306 v 1034.73 h -80.1 v 77.51 h -10.8 v -77.51 h -194.9 v 77.51 h -10.8 v -77.51 h -309.7 v 77.51 h -10.9 v -77.51 h -218.6 v 77.51 h -10.9 v -77.51 h -60.2 V 5824.52 h -276.9 v 599.35 h -906.8 v -76.88 h -79 v 533.36 c -3.9,2.1 -7.8,4.27 -11.6,6.37 h -73.8 v 0.25 h -429.7 v -0.25 h -0.3 v -79.98 h 0.3 v -54.99 h -0.3 v -79.91 h 0.3 v -55.17 h -0.3 v -79.97 h 0.3 v -0.25 l -45.4,0.25 v 418.25 h -64.7 v 59.8 h -7.6 v -59.8 h -354.3 v 59.8 h -7.7 v -59.8 h -47.8 v -53.02 h -0.2 v -79.91 h 0.2 v -70.27 h -0.2 v -79.91 h 0.2 v -55.17 h -0.2 v -79.97 h 0.2 v -51.04 h -0.2 v -79.98 h 0.2 v -51.02 h -0.2 v -79.98 h 0.2 v -48.06 h -0.2 v -50.78 h 0.2 v -5.57 h -160.5 v 400.07 h -23.82 v -400.07 h -242.57 v 213.46 h -15.3 v -213.46 h -101.26 v -457.53 h -203 V 5597.51 H 9050.44 V 5796 h -393.67 v 539.24 h -61.63 v 53.74 h -8.75 v -53.74 h -51.09 v 0.12 h -255.41 v 53.62 h -8.85 v -53.62 h -66.5 v -271.22 l -330.71,1.48 v -167.37 h -280.44 v 1034.73 h -73.34 v 77.51 h -9.89 v -77.51 h -178.52 v 77.51 h -10 v -77.51 h -283.66 v 77.51 h -9.95 v -77.51 h -200.38 v 77.51 h -9.89 v -77.51 h -55.19 V 5824.52 h -253.72 v 599.35 h -830.82 v -706.11 h -416.45 v -904.15 l -96,-3327.65 753.27,0.05 c 3.61,-3.71 8.69,-6.01 14.32,-6.01 h 1.91 c 5.79,0 11.09,2.3 14.98,6.01 l 489.45,0.06 c 3.6,-3.72 8.74,-6.07 14.37,-6.07 h 1.91 c 5.79,0 11.15,2.3 15.03,6.07 l 885.96,0.1 c 3.93,-3.82 9.29,-6.17 15.13,-6.17 h 1.92 c 5.68,0 10.82,2.35 14.48,6.17 l 8911.69,0.94 c -1.2,-2.19 -2.5,-4.38 -3.7,-6.62 -8.8,-15.79 -18,-31.91 -27.3,-48.03" /></g><g
         transform="scale(1.95414)"
         id="g22"><path
           id="path24"
           style="fill:#1a8040;fill-opacity:0.62814069;fill-rule:nonzero;stroke:none"
           d="m 15264.6,1392.74 v -0.1 l -10427.16,-1.08 89.9,3116.27 v 846.71 h 390 v 661.26 h 778.04 v -561.28 h 237.6 v 1038.05 h 51.69 v 72.58 h 9.26 v -72.58 h 187.65 v 72.58 h 9.32 v -72.58 h 265.64 v 72.58 h 9.36 v -72.58 h 167.19 v 72.58 h 9.26 v -72.58 h 68.67 v -969.01 h 262.63 v 156.74 l 309.7,-1.38 v 253.99 h 62.28 v 50.22 h 8.29 v -50.22 h 239.18 v -0.11 h 47.85 v 50.33 h 8.19 v -50.33 h 57.72 v -504.99 h 368.65 v -185.87 h 205.01 v 107.91 h 190.1 v 428.46 h 94.83 v 199.9 h 14.33 v -199.9 h 227.16 v 374.65 h 22.31 v -374.65 h 150.3 v 5.22 h -0.21 v 47.55 h 0.21 v 45.01 h -0.21 v 74.9 h 0.21 v 47.78 h -0.21 v 74.89 h 0.21 v 47.8 h -0.21 v 74.89 h 0.21 v 51.67 h -0.21 v 74.83 h 0.21 v 65.81 h -0.21 v 74.83 h 0.21 v 49.65 h 44.77 v 56.01 h 7.17 v -56.01 h 331.81 v 56.01 h 7.11 v -56.01 H 9831 v -391.68 l 42.58,-0.24 v 0.24 h -0.36 v 74.89 h 0.36 v 51.67 h -0.36 v 74.83 h 0.36 v 51.5 h -0.36 v 74.9 h 0.36 v 0.23 H 10276 v -0.23 h 69.1 c 3.5,-1.97 7.2,-4 10.8,-5.97 V 5943.8 h 74 v 72 h 849.2 v -561.28 h 259.4 v 1038.05 h 56.3 v 72.58 h 10.2 v -72.58 h 204.7 v 72.58 h 10.2 v -72.58 h 290 v 72.58 h 10.1 v -72.58 h 182.6 v 72.58 h 10.1 v -72.58 h 75 v -969.01 h 286.6 v 156.74 l 338,-1.38 v 253.94 h 68 v 50.27 h 9.1 v -50.27 h 260.9 v -0.06 h 52.3 v 50.33 h 8.9 v -50.33 h 63 v -505.04 h 402.4 v -185.82 h 223.8 v 107.91 h 207.4 v 428.52 h 103.5 v 199.84 h 15.6 v -199.84 h 248 v 374.59 h 24.3 v -374.59 h 121.9 c -13.1,-114.51 -32.7,-231.4 -59,-350.61 -15.6,-70.27 -33.3,-141.34 -53.6,-213.17 C 14178,3329.5 16300,3244.4 15264.6,1392.74" /></g><g
         transform="scale(1.51479)"
         id="g26"><path
           id="path28"
           style="fill:#004f00;fill-opacity:0.50251257;fill-rule:nonzero;stroke:none"
           d="M 16300,11649.4 V 1796.75 h -344.4 v 9980.35 c 116.3,-39.2 231.2,-81.8 344.4,-127.7" /></g><path
         id="path30"
         style="fill:#1a8040;fill-opacity:0.22613066;fill-rule:nonzero;stroke:none"
         d="M 10006.4,13187.4 V 2712.2 H 3523.38 c -2.6,3 -5.2,6.2 -7.92,9.5 -116.92,140.3 -352.25,435.8 -627.75,852.3 l -0.23,0.4 c -731,1105.7 -1743.94,3063.7 -1573.48,5236.8 48.11,613.4 190.39,1244 460.01,1877.4 817.7,1921.1 3257.31,3216.1 5455.03,3242.2 842.71,-9.3 1645.92,-191.2 2312.95,-577.4 124.85,-72.2 281.85,-128 464.41,-166" /><g
         transform="scale(1.22778)"
         id="g32"><path
           id="path34"
           style="fill:#004f00;fill-opacity:0.45226133;fill-rule:nonzero;stroke:none"
           d="m 16300,14902.5 v -1497 c 0,-116.7 -28.5,-211.9 -63.3,-211.9 h -9 c -34.8,0 -63.1,95.2 -63.1,211.9 v 1480.1 c 44.9,6.1 90.1,11.8 135.4,16.9" /></g><g
         transform="scale(1.28731)"
         id="g36"><path
           id="path38"
           style="fill:#ff9843;fill-opacity:1;fill-rule:nonzero;stroke:none"
           d="m 15448,12927 c -470.6,0 -852,-403.4 -852,-900.9 h 1704 c 0,497.5 -381.5,900.9 -852,900.9" /></g><g
         transform="scale(1.22538)"
         id="g40"><path
           id="path42"
           style="fill:#ffc48a;fill-opacity:1;fill-rule:nonzero;stroke:none"
           d="m 16300,13568.7 c -25.8,5.6 -52,8.6 -78.7,8.6 -322,0 -583.1,-422.4 -583.1,-943.5 h 157.2 c 0,477.9 219.7,872.8 504.6,934.9" /></g><g
         transform="scale(1.76352)"
         id="g44"><path
           id="path46"
           style="fill:#005e0e;fill-opacity:0.57286429;fill-rule:nonzero;stroke:none"
           d="m 15372.4,2513.27 c 0,0 -165.5,193.13 -10.2,315.79 0,0 113.4,68.66 206,63.05 0,0 -131.1,-219.79 -88.7,-241.62 42.4,-21.89 128.4,255.46 128.4,255.46 0,0 258.1,25 341.2,-14.92 0,0 -220.7,-180.6 -174.2,-191.38 46.5,-10.71 284.8,166.55 284.8,166.55 0,0 240.3,-40.89 227.5,-187.47 -12.8,-146.58 -95.6,-191.83 -132,-187.92 -36.4,3.86 -249.2,85.11 -253.9,55.29 -4.6,-29.77 123.5,-127.25 213.2,-131.78 0,0 -169.4,-186.85 -282,-132.92 -112.5,53.93 -122.1,139.38 -192.3,171.48 -70.2,32.03 -130.1,31.92 -101.1,-0.74 29,-32.72 156,-64.47 196.1,-135.47 40.1,-70.99 76.1,-118.85 -40.4,-101.33 -116.4,17.52 -305.8,102.75 -314.1,200.34 -8.3,97.59 -8.3,97.59 -8.3,97.59" /></g><g
         transform="scale(1.74936)"
         id="g48"><path
           id="path50"
           style="fill:#005e0e;fill-opacity:0.57286429;fill-rule:nonzero;stroke:none"
           d="m 16300,2696.41 c 0,0 -657.9,25.38 -803.2,-162.8 0,0 -32.1,-96.21 -131,-183.84 0,0 -27.568,-33.3849 -15.4,-42.01 54.532,-38.6552 114,120.21 154.8,127.47 0,0 -63.8,233.12 794.8,261.18"
           sodipodi:nodetypes="cccscc" /></g><g
         transform="scale(1.65799)"
         id="g52"><path
           id="path54"
           style="fill:#004f00;fill-opacity:0.48743716;fill-rule:nonzero;stroke:none"
           d="m 16212.7,2479.27 c 0,0 -149,-110.19 -159.4,-307.06 l 27.1,-2.41 c 0,0 47.6,203.56 133.5,283.17 86.1,79.62 -1.2,26.3 -1.2,26.3" /></g><g
         transform="scale(1.62904)"
         id="g56"><path
           id="path58"
           style="fill:#005e0e;fill-opacity:0.57286429;fill-rule:nonzero;stroke:none"
           d="m 16014.9,2983.65 c 0,0 285.1,159.61 152.1,376.24 0,0 -106.5,133.02 -220.5,167.21 0,0 60.9,-323.01 0,-330.62 -60.8,-7.61 -41.8,364.81 -41.8,364.81 0,0 -300.2,144.44 -418,133.03 0,0 186.2,-315.46 125.4,-307.85 -60.8,7.61 -269.8,326.82 -269.8,326.82 0,0 -307.8,57.02 -357.2,-125.42 -49.5,-182.37 30.3,-273.59 76,-285.01 45.6,-11.42 338.2,-7.61 330.6,-45.61 -7.6,-38 -205.2,-98.77 -315.4,-64.58 0,0 121.6,-300.24 281.2,-285.01 159.6,15.16 209,113.99 307.8,121.6 98.8,7.61 171.1,-19.03 121.6,-45.61 -49.4,-26.64 -216.6,-8.71 -296.4,-76.54 -79.8,-67.9 -144.4,-109.7 3.8,-140.09 148.2,-30.38 414.341,-11.4759 467.5,102.64 l 53.1,113.99"
           sodipodi:nodetypes="ccccccscccsccscccsc" /></g><g
         transform="scale(1.61309)"
         id="g60"><path
           id="path62"
           style="fill:#004f00;fill-opacity:0.48743716;fill-rule:nonzero;stroke:none"
           d="m 15275.3,3565.84 c 0,0 806,-260.99 898,-552.67 0,0 -3.7,-130.5 76.9,-280.21 v -57.53 c 0,0 -84.5,195.71 -130.5,222.62 0,0 180.3,253.3 -844.4,667.79" /></g><g
         transform="scale(1.62045)"
         id="g64"><path
           id="path66"
           style="fill:#004f00;fill-opacity:0.48743716;fill-rule:nonzero;stroke:none"
           d="m 16176.3,2720.54 c 0,0 123.7,-187.84 53.2,-416.55 l -31.8,8.52 c 0,0 30.8,251.9 -33.9,378.6 -64.7,126.75 12.5,29.43 12.5,29.43" /></g><g
         transform="scale(1.78806)"
         id="g68"><path
           id="path70"
           style="fill:#005e0e;fill-opacity:0.57286429;fill-rule:nonzero;stroke:none"
           d="m 15003.8,2918.86 c 0,0 -342.3,191.66 -182.6,451.83 0,0 127.8,159.73 264.7,200.83 0,0 -72.9,-387.96 0,-397.08 73.1,-9.11 50.3,438.13 50.3,438.13 0,0 360.5,173.43 502,159.73 0,0 -223.6,-378.79 -150.6,-369.68 73,9.12 324,392.49 324,392.49 0,0 369.7,68.51 429.1,-150.6 59.3,-219.07 -36.6,-328.57 -91.3,-342.27 -54.8,-13.71 -406.2,-9.12 -397.1,-54.76 9.1,-45.69 246.5,-118.67 378.8,-77.62 0,0 -146,-360.56 -337.7,-342.27 -191.7,18.23 -251,136.9 -369.7,146.02 -118.7,9.12 -205.4,-22.82 -146,-54.75 59.3,-31.93 260.1,-10.46 355.9,-91.94 95.9,-81.49 173.5,-131.71 -4.5,-168.23 -178,-36.52 -497.5,-13.7 -561.4,123.26 -63.9,136.91 -63.9,136.91 -63.9,136.91" /></g><g
         transform="scale(1.76303)"
         id="g72"><path
           id="path74"
           style="fill:#004f00;fill-opacity:0.48743716;fill-rule:nonzero;stroke:none"
           d="m 16300,3626.82 c 0,0 -972.1,-314.74 -1083.2,-666.52 0,0 4.7,-157.4 -92.6,-337.94 v -69.43 c 0,0 101.9,236.07 157.4,268.52 0,0 -217.5,305.5 1018.4,805.37" /></g><g
         transform="scale(1.64598)"
         id="g76"><path
           id="path78"
           style="fill:#005e0e;fill-opacity:0.57286429;fill-rule:nonzero;stroke:none"
           d="m 16199.8,2808.85 c 0,0 -160.6,-243.81 -69,-540.59 l 41.3,11.06 c 0,0 -40.1,326.92 43.9,491.38 84,164.4 -16.2,38.15 -16.2,38.15" /></g><g
         transform="scale(1.71816)"
         id="g80"><path
           id="path82"
           style="fill:#005e0e;fill-opacity:0.57286429;fill-rule:nonzero;stroke:none"
           d="m 15602.2,1556.32 c 385.4,0 697.8,312.42 697.8,697.84 h -1395.6 c 0,-385.42 312.5,-697.84 697.8,-697.84" /></g><g
         transform="scale(1.66271)"
         id="g84"><path
           id="path86"
           style="fill:#00c500;fill-opacity:0.30653265;fill-rule:nonzero;stroke:none"
           d="m 16300,1613.75 c -29.3,-3.66 -59.2,-5.53 -89.6,-5.53 -398.2,0 -721,322.85 -721,721.12 h 179.2 c 0,-367.96 275.5,-671.44 631.4,-715.59" /></g><g
         transform="scale(1.71983)"
         id="g88"><path
           id="path90"
           style="fill:#00db43;fill-opacity:0.79899496;fill-rule:nonzero;stroke:none"
           d="m 16300,2230.56 h -1433 v 21.4 h 1433 v -21.4" /></g><g
         transform="scale(1.30674)"
         id="g92"><path
           id="path94"
           style="fill:#008000;fill-opacity:0.74874377;fill-rule:nonzero;stroke:none"
           d="m 16243.1,2091.46 -901.5,3741.98 63,147.31 893.1,-3888.91 c 2.3,-9.95 -5.3,-19.43 -15.5,-19.43 h -14.9 c -11.5,0 -21.5,7.88 -24.2,19.05" /></g><g
         transform="scale(1.00403)"
         id="g96"><path
           id="path98"
           style="fill:#008000;fill-opacity:0.74874377;fill-rule:nonzero;stroke:none"
           d="m 15844.8,2697.23 v 0 c -24.1,0 -42.4,21.61 -38.5,45.41 l 345.6,2094.76 h 148.1 l -412.1,-2104.81 c -4.1,-20.52 -22,-35.36 -43.1,-35.36" /></g><g
         transform="scale(1.20824)"
         id="g100"><path
           id="path102"
           style="fill:#008000;fill-opacity:0.74874377;fill-rule:nonzero;stroke:none"
           d="m 15921.8,2241.36 v 0 c -20.1,0 -35.3,17.96 -32.1,37.74 l 287.2,1740.71 h 123.1 l -342.5,-1749.07 c -3.3,-17.05 -18.3,-29.38 -35.7,-29.38" /></g><g
         transform="scale(1.28239)"
         id="g104"><path
           id="path106"
           style="fill:#f5fbff;fill-opacity:1;fill-rule:nonzero;stroke:none"
           d="M 15630.5,3783.94 H 12399 l 669.5,4197.24 H 16300 l -669.5,-4197.24" /></g><g
         transform="scale(1.24874)"
         id="g108"><path
           id="path110"
           style="fill:#008000;fill-opacity:0.74874377;fill-rule:nonzero;stroke:none"
           d="m 16300,3791.97 h -3811.4 v 126.77 H 16300 v -126.77" /></g><g
         transform="scale(1.12901)"
         id="g112"><path
           id="path114"
           style="fill:#008000;fill-opacity:0.37185928;fill-rule:nonzero;stroke:none"
           d="m 16297.6,8067.98 c -2.8,-37.82 -8.4,-74.84 -16.5,-110.98 -76.5,-340.74 -379.9,-601.77 -722.7,-602.39 -379.3,-0.62 -663.4,317.71 -634.4,710.98 29,393.35 360,712.66 739.2,713.37 79.6,0.09 155,-13.82 224,-39.5 31.1,-11.52 61.1,-25.42 89.5,-41.54 61.4,-34.81 116,-79.72 162.1,-132.77 25.7,-29.59 48.7,-61.65 68.8,-95.93 11.7,-19.75 22.3,-40.3 31.9,-61.56 26.7,-58.99 45.1,-123.03 53.9,-190.61 4.6,-33.92 6.6,-68.73 6.2,-104.25 -0.3,-14.79 -0.9,-29.76 -2,-44.82" /></g><g
         transform="scale(1.12482)"
         id="g116"><path
           id="path118"
           style="fill:#ffffff;fill-opacity:1;fill-rule:nonzero;stroke:none"
           d="m 16300,8438.98 -631,-342.1 c 0,0 260.4,458.47 367.2,633.44 61.6,-34.94 116.5,-80.02 162.7,-133.27 25.8,-29.69 48.9,-61.88 69.1,-96.28 11.7,-19.83 22.4,-40.45 32,-61.79" /></g><g
         transform="scale(1.12934)"
         id="g120"><path
           id="path122"
           style="fill:#f99746;fill-opacity:1;fill-rule:nonzero;stroke:none"
           d="m 16300,8491.35 -574.1,-311.24 c 0,0 236.9,417.14 334.1,576.35 56.1,-31.79 106,-72.78 148.1,-121.31 23.5,-26.92 44.4,-56.32 62.8,-87.48 10.7,-18.16 20.3,-36.93 29.1,-56.32" /></g><g
         transform="scale(1.23066)"
         id="g124"><path
           id="path126"
           style="fill:#008000;fill-opacity:0.37254903;fill-rule:nonzero;stroke:none"
           d="m 13270.2,4291.75 2732.4,-0.16 275,1566.96 -2732.5,0.17 z m 2749.1,-16.33 -2771.6,0.24 280.6,1599.14 2771.7,-0.16 -280.7,-1599.22" /></g><g
         transform="scale(1.19699)"
         id="g128"><path
           id="path130"
           style="fill:#f99746;fill-opacity:1;fill-rule:nonzero;stroke:none"
           d="m 16300,4621.16 -2527.2,0.17 c 0,0 448.3,240.43 571.3,227.82 123,-12.62 299.7,-109.94 413.4,-113.7 113.6,-3.85 236.6,337.42 363.2,321.3 126.5,-16.04 174.1,-317.88 239.6,-288.39 65.5,29.49 262.3,42.28 375.5,0 113.3,-42.27 278.4,134.34 378,128.74 99.6,-5.51 186.2,-275.94 186.2,-275.94" /></g><g
         transform="scale(1.05636)"
         id="g132"><path
           id="path134"
           style="fill:#f99746;fill-opacity:1;fill-rule:nonzero;stroke:none"
           d="m 16295,5783.91 -547,0.09 5.1,28.97 h 546.9 l -5,-29.06" /></g><g
         transform="scale(1.05566)"
         id="g136"><path
           id="path138"
           style="fill:#f99746;fill-opacity:1;fill-rule:nonzero;stroke:none"
           d="m 16294.9,5725.79 h -547.3 l 5.1,29.08 547.3,-0.09 -5.1,-28.99" /></g><g
         transform="scale(1.20761)"
         id="g140"><path
           id="path142"
           style="fill:#008000;fill-opacity:0.37254903;fill-rule:nonzero;stroke:none"
           d="m 13795.1,5397.59 2504.9,-0.17 c 0,0 -360.7,238.32 -487,225.9 -126.3,-12.5 -335.3,-108.97 -449.2,-112.7 -114.1,-3.73 -117.3,334.54 -248.3,318.56 -131,-15.9 -283.2,-315.08 -337.8,-285.85 -54.8,29.23 -245.2,41.99 -372.3,0.08 -126.9,-41.9 -229.1,133.16 -329.8,127.69 -100.6,-5.46 -280.5,-273.51 -280.5,-273.51" /></g><g
         transform="scale(1.06638)"
         id="g144"><path
           id="path146"
           style="fill:#008000;fill-opacity:0.37254903;fill-rule:nonzero;stroke:none"
           d="m 16294.9,6601.96 h -541.8 l 5.1,28.7 h 541.8 l -5.1,-28.7" /></g><g
         transform="scale(1.06567)"
         id="g148"><path
           id="path150"
           style="fill:#008000;fill-opacity:0.37254903;fill-rule:nonzero;stroke:none"
           d="m 16294.9,6544.87 h -542.2 l 5.1,28.81 h 542.2 l -5.1,-28.81" /></g><g
         transform="scale(1.04113)"
         id="g152"><path
           id="path154"
           style="fill:#008000;fill-opacity:0.37254903;fill-rule:nonzero;stroke:none"
           d="m 16189.3,7207.9 h -127.5 l 110.7,597.14 h 127.5 l -110.7,-597.14" /></g><g
         transform="scale(1.05063)"
         id="g156"><path
           id="path158"
           style="fill:#008000;fill-opacity:0.37254903;fill-rule:nonzero;stroke:none"
           d="m 16215,7142.79 h -126.3 l 85,458.39 h 126.3 l -85,-458.39" /></g><g
         transform="scale(1.06195)"
         id="g160"><path
           id="path162"
           style="fill:#008000;fill-opacity:0.37254903;fill-rule:nonzero;stroke:none"
           d="m 16212.3,7066.62 h -124.9 l 87.6,472.99 h 125 l -87.7,-472.99" /></g><g
         transform="scale(1.07167)"
         id="g164"><path
           id="path166"
           style="fill:#008000;fill-opacity:0.37254903;fill-rule:nonzero;stroke:none"
           d="M 16233.8,7002.5 H 16110 l 66.2,356.45 h 123.8 l -66.2,-356.45" /></g><g
         transform="scale(1.08308)"
         id="g168"><path
           id="path170"
           style="fill:#008000;fill-opacity:0.37254903;fill-rule:nonzero;stroke:none"
           d="m 16229.8,6928.76 h -122.5 l 70.2,378.36 h 122.5 l -70.2,-378.36" /></g><g
         transform="scale(1.09312)"
         id="g172"><path
           id="path174"
           style="fill:#008000;fill-opacity:0.37254903;fill-rule:nonzero;stroke:none"
           d="m 16246.1,6865.14 h -121.4 l 54,290.73 h 121.3 l -53.9,-290.73" /></g><g
         transform="scale(1.15002)"
         id="g176"><path
           id="path178"
           style="fill:#f99746;fill-opacity:1;fill-rule:nonzero;stroke:none"
           d="m 16199.7,6525.42 h -115.3 l 100.2,540.6 h 115.4 l -100.3,-540.6" /></g><g
         transform="scale(1.15952)"
         id="g180"><path
           id="path182"
           style="fill:#f99746;fill-opacity:1;fill-rule:nonzero;stroke:none"
           d="m 16223,6472.01 h -114.4 l 77,415.35 h 114.4 l -77,-415.35" /></g><g
         transform="scale(1.17084)"
         id="g184"><path
           id="path186"
           style="fill:#f99746;fill-opacity:1;fill-rule:nonzero;stroke:none"
           d="m 16220.5,6409.41 h -113.4 l 79.6,429.01 h 113.3 l -79.5,-429.01" /></g><g
         transform="scale(1.18056)"
         id="g188"><path
           id="path190"
           style="fill:#f99746;fill-opacity:1;fill-rule:nonzero;stroke:none"
           d="m 16239.9,6356.62 h -112.4 l 60.1,323.58 h 112.4 l -60.1,-323.58" /></g><g
         transform="scale(1.19197)"
         id="g192"><path
           id="path194"
           style="fill:#f99746;fill-opacity:1;fill-rule:nonzero;stroke:none"
           d="m 16236.2,6295.8 h -111.3 l 63.8,343.8 h 111.3 l -63.8,-343.8" /></g><g
         transform="scale(1.20201)"
         id="g196"><path
           id="path198"
           style="fill:#f99746;fill-opacity:1;fill-rule:nonzero;stroke:none"
           d="m 16250.9,6243.2 h -110.4 l 49.1,264.39 h 110.4 l -49.1,-264.39" /></g><g
         transform="scale(1.18282)"
         id="g200"><path
           id="path202"
           style="fill:#008000;fill-opacity:0.37254903;fill-rule:nonzero;stroke:none"
           d="m 16290.6,8060.38 h -365.1 l 9.4,49.97 h 365.1 l -9.4,-49.97" /></g><g
         transform="scale(1.21533)"
         id="g204"><path
           id="path206"
           style="fill:#008000;fill-opacity:0.37254903;fill-rule:nonzero;stroke:none"
           d="m 16290.9,7844.77 h -392.5 l 9.2,48.63 h 392.4 l -9.1,-48.63" /></g><g
         transform="scale(1.23618)"
         id="g208"><path
           id="path210"
           style="fill:#008000;fill-opacity:0.37254903;fill-rule:nonzero;stroke:none"
           d="m 16291,7712.44 h -246 l 9,47.81 h 246 l -9,-47.81" /></g><g
         transform="scale(1.2536)"
         id="g212"><path
           id="path214"
           style="fill:#008000;fill-opacity:0.37254903;fill-rule:nonzero;stroke:none"
           d="M 16291.1,7605.33 H 16104 l 8.9,47.14 h 187.1 l -8.9,-47.14" /></g><g
         transform="scale(1.17991)"
         id="g216"><path
           id="path218"
           style="fill:#008000;fill-opacity:0.37254903;fill-rule:nonzero;stroke:none"
           d="m 16290.6,7866.25 h -366.1 l 9.5,50.17 h 366 l -9.4,-50.17" /></g><g
         transform="scale(1.21242)"
         id="g220"><path
           id="path222"
           style="fill:#008000;fill-opacity:0.37254903;fill-rule:nonzero;stroke:none"
           d="m 16290.8,7655.33 h -393.4 l 9.2,48.83 h 393.4 l -9.2,-48.83" /></g><g
         transform="scale(1.23328)"
         id="g224"><path
           id="path226"
           style="fill:#008000;fill-opacity:0.37254903;fill-rule:nonzero;stroke:none"
           d="m 16291,7525.89 h -246.6 l 9,48 h 246.6 l -9,-48" /></g><g
         transform="scale(1.25069)"
         id="g228"><path
           id="path230"
           style="fill:#008000;fill-opacity:0.37254903;fill-rule:nonzero;stroke:none"
           d="m 16291.1,7421.12 h -187.6 l 8.9,47.33 h 187.6 l -8.9,-47.33" /></g><g
         transform="scale(1.19857)"
         id="g232"><path
           id="path234"
           style="fill:#008000;fill-opacity:0.37254903;fill-rule:nonzero;stroke:none"
           d="m 16290.7,8069.61 h -552.9 l 9.3,49.39 h 552.9 l -9.3,-49.39" /></g><g
         transform="scale(1.22588)"
         id="g236"><path
           id="path238"
           style="fill:#008000;fill-opacity:0.37254903;fill-rule:nonzero;stroke:none"
           d="m 16290.9,7889.86 h -311.6 l 9.1,48.29 h 311.6 l -9.1,-48.29" /></g><g
         transform="scale(1.25521)"
         id="g240"><path
           id="path242"
           style="fill:#008000;fill-opacity:0.37254903;fill-rule:nonzero;stroke:none"
           d="m 16291.2,7705.49 h -338 l 8.8,47.16 h 338 l -8.8,-47.16" /></g><g
         transform="scale(1.19548)"
         id="g244"><path
           id="path246"
           style="fill:#008000;fill-opacity:0.37254903;fill-rule:nonzero;stroke:none"
           d="m 16290.7,7865.97 h -554.3 l 9.3,49.52 h 554.3 l -9.3,-49.52" /></g><g
         transform="scale(1.22279)"
         id="g248"><path
           id="path250"
           style="fill:#008000;fill-opacity:0.37254903;fill-rule:nonzero;stroke:none"
           d="m 16290.9,7690.31 h -312.4 l 9.1,48.42 h 312.4 l -9.1,-48.42" /></g><g
         transform="scale(1.25212)"
         id="g252"><path
           id="path254"
           style="fill:#008000;fill-opacity:0.37254903;fill-rule:nonzero;stroke:none"
           d="m 16291.1,7510.16 h -338.7 l 8.8,47.28 h 338.8 l -8.9,-47.28" /></g><g
         transform="scale(1.17701)"
         id="g256"><path
           id="path258"
           style="fill:#008000;fill-opacity:0.37254903;fill-rule:nonzero;stroke:none"
           d="m 16290.6,7671.24 h -367 l 9.5,50.3 h 366.9 l -9.4,-50.3" /></g><g
         transform="scale(1.20951)"
         id="g260"><path
           id="path262"
           style="fill:#008000;fill-opacity:0.37254903;fill-rule:nonzero;stroke:none"
           d="m 16290.8,7465.1 h -394.3 l 9.2,48.94 h 394.3 l -9.2,-48.94" /></g><g
         transform="scale(1.23037)"
         id="g264"><path
           id="path266"
           style="fill:#008000;fill-opacity:0.37254903;fill-rule:nonzero;stroke:none"
           d="m 16291,7338.54 h -247.2 l 9,48.11 h 247.2 l -9,-48.11" /></g><g
         transform="scale(1.24778)"
         id="g268"><path
           id="path270"
           style="fill:#008000;fill-opacity:0.37254903;fill-rule:nonzero;stroke:none"
           d="m 16291.1,7236.14 h -188 l 8.9,47.44 h 188 l -8.9,-47.44" /></g><g
         transform="scale(1.19257)"
         id="g272"><path
           id="path274"
           style="fill:#008000;fill-opacity:0.37254903;fill-rule:nonzero;stroke:none"
           d="M 16290.7,7673.51 H 15735 l 9.3,49.55 h 555.7 l -9.3,-49.55" /></g><g
         transform="scale(1.21988)"
         id="g276"><path
           id="path278"
           style="fill:#008000;fill-opacity:0.37254903;fill-rule:nonzero;stroke:none"
           d="m 16290.9,7501.74 h -313.1 l 9.1,48.45 h 313.1 l -9.1,-48.45" /></g><g
         transform="scale(1.24921)"
         id="g280"><path
           id="path282"
           style="fill:#008000;fill-opacity:0.37254903;fill-rule:nonzero;stroke:none"
           d="m 16291,7325.6 h -339.5 l 8.9,47.31 h 339.6 l -9,-47.31" /></g><g
         transform="scale(1.17428)"
         id="g284"><path
           id="path286"
           style="fill:#008000;fill-opacity:0.37254903;fill-rule:nonzero;stroke:none"
           d="m 16290.5,7487.47 h -367.8 l 9.4,50.41 h 367.9 l -9.5,-50.41" /></g><g
         transform="scale(1.20679)"
         id="g288"><path
           id="path290"
           style="fill:#008000;fill-opacity:0.37254903;fill-rule:nonzero;stroke:none"
           d="m 16290.8,7285.8 h -395.2 l 9.2,49.06 h 395.2 l -9.2,-49.06" /></g><g
         transform="scale(1.22764)"
         id="g292"><path
           id="path294"
           style="fill:#008000;fill-opacity:0.37254903;fill-rule:nonzero;stroke:none"
           d="m 16291,7162.05 h -247.7 l 9.1,48.22 h 247.6 l -9,-48.22" /></g><g
         transform="scale(1.24506)"
         id="g296"><path
           id="path298"
           style="fill:#008000;fill-opacity:0.37254903;fill-rule:nonzero;stroke:none"
           d="m 16291.1,7061.86 h -188.4 l 8.9,47.55 h 188.4 l -8.9,-47.55" /></g><g
         transform="scale(1.18984)"
         id="g300"><path
           id="path302"
           style="fill:#008000;fill-opacity:0.37254903;fill-rule:nonzero;stroke:none"
           d="m 16290.7,7492.18 h -556.9 l 9.3,49.75 h 556.9 l -9.3,-49.75" /></g><g
         transform="scale(1.21715)"
         id="g304"><path
           id="path306"
           style="fill:#008000;fill-opacity:0.37254903;fill-rule:nonzero;stroke:none"
           d="M 16290.9,7324.09 H 15977 l 9.2,48.64 h 313.8 l -9.1,-48.64" /></g><g
         transform="scale(1.24648)"
         id="g308"><path
           id="path310"
           style="fill:#008000;fill-opacity:0.37254903;fill-rule:nonzero;stroke:none"
           d="m 16291.1,7151.75 h -340.3 l 8.9,47.49 h 340.3 l -8.9,-47.49" /></g><g
         transform="scale(1.11363)"
         id="g312"><path
           id="path314"
           style="fill:#008000;fill-opacity:0.37254903;fill-rule:nonzero;stroke:none"
           d="m 16295.1,7213.96 h -189.9 l 5,25.96 h 189.8 l -4.9,-25.96" /></g><g
         transform="scale(1.12954)"
         id="g316"><path
           id="path318"
           style="fill:#008000;fill-opacity:0.37254903;fill-rule:nonzero;stroke:none"
           d="m 16295.2,7112.36 h -206.6 l 4.8,25.59 h 206.6 l -4.8,-25.59" /></g><g
         transform="scale(1.11221)"
         id="g320"><path
           id="path322"
           style="fill:#008000;fill-opacity:0.37254903;fill-rule:nonzero;stroke:none"
           d="M 16295.1,7112.07 H 16105 l 4.9,26.07 h 190.1 l -4.9,-26.07" /></g><g
         transform="scale(1.12812)"
         id="g324"><path
           id="path326"
           style="fill:#008000;fill-opacity:0.37254903;fill-rule:nonzero;stroke:none"
           d="m 16295.2,7011.78 h -206.9 l 4.8,25.7 h 206.9 l -4.8,-25.7" /></g><g
         transform="scale(1.12134)"
         id="g328"><path
           id="path330"
           style="fill:#008000;fill-opacity:0.37254903;fill-rule:nonzero;stroke:none"
           d="m 16295.2,7224.59 h -289.3 l 4.9,25.86 h 289.2 l -4.8,-25.86" /></g><g
         transform="scale(1.13471)"
         id="g332"><path
           id="path334"
           style="fill:#008000;fill-opacity:0.37254903;fill-rule:nonzero;stroke:none"
           d="m 16295.2,7139.47 h -164.8 l 4.8,25.56 h 164.8 l -4.8,-25.56" /></g><g
         transform="scale(1.11982)"
         id="g336"><path
           id="path338"
           style="fill:#008000;fill-opacity:0.37254903;fill-rule:nonzero;stroke:none"
           d="m 16295.2,7117.02 h -289.6 l 4.8,25.9 h 289.6 l -4.8,-25.9" /></g><g
         transform="scale(1.13319)"
         id="g340"><path
           id="path342"
           style="fill:#008000;fill-opacity:0.37254903;fill-rule:nonzero;stroke:none"
           d="m 16295.2,7033.07 h -165 l 4.8,25.59 h 165 l -4.8,-25.59" /></g><g
         transform="scale(1.21753)"
         id="g344"><path
           id="path346"
           style="fill:#008000;fill-opacity:0.37254903;fill-rule:nonzero;stroke:none"
           d="m 16295.5,6598.37 h -173.6 l 4.5,23.74 h 173.6 l -4.5,-23.74" /></g><g
         transform="scale(1.23344)"
         id="g348"><path
           id="path350"
           style="fill:#008000;fill-opacity:0.37254903;fill-rule:nonzero;stroke:none"
           d="m 16295.6,6513.27 h -189.3 l 4.5,23.43 h 189.2 l -4.4,-23.43" /></g><g
         transform="scale(1.2161)"
         id="g352"><path
           id="path354"
           style="fill:#008000;fill-opacity:0.37254903;fill-rule:nonzero;stroke:none"
           d="m 16295.5,6504.46 h -173.9 l 4.6,23.85 h 173.8 l -4.5,-23.85" /></g><g
         transform="scale(1.23201)"
         id="g356"><path
           id="path358"
           style="fill:#008000;fill-opacity:0.37254903;fill-rule:nonzero;stroke:none"
           d="m 16295.6,6420.47 h -189.5 l 4.5,23.54 h 189.4 l -4.4,-23.54" /></g><g
         transform="scale(1.22523)"
         id="g360"><path
           id="path362"
           style="fill:#008000;fill-opacity:0.37254903;fill-rule:nonzero;stroke:none"
           d="m 16295.6,6611.97 h -264.8 l 4.5,23.66 h 264.7 l -4.4,-23.66" /></g><g
         transform="scale(1.2386)"
         id="g364"><path
           id="path366"
           style="fill:#008000;fill-opacity:0.37254903;fill-rule:nonzero;stroke:none"
           d="m 16295.6,6540.6 h -150.9 l 4.3,23.42 h 151 l -4.4,-23.42" /></g><g
         transform="scale(1.22372)"
         id="g368"><path
           id="path370"
           style="fill:#008000;fill-opacity:0.37254903;fill-rule:nonzero;stroke:none"
           d="m 16295.6,6512.78 h -265.1 l 4.5,23.69 h 265 l -4.4,-23.69" /></g><g
         transform="scale(1.23709)"
         id="g372"><path
           id="path374"
           style="fill:#008000;fill-opacity:0.37254903;fill-rule:nonzero;stroke:none"
           d="m 16295.6,6442.4 h -151.1 l 4.3,23.44 h 151.2 l -4.4,-23.44" /></g><g
         transform="scale(1.29679)"
         id="g376"><path
           id="path378"
           style="fill:#ffb27d;fill-opacity:1;fill-rule:nonzero;stroke:none"
           d="m 16166.8,2149.85 c -5.8,-78.04 -115.8,-78.89 -240.7,-64.4 -124.9,14.5 -91.7,-17.11 -266.6,-19.5 -174.9,-2.47 -235.2,55.36 -243.7,80.35 -7.5,22.13 76.7,40.79 166.8,62.77 11.4,2.7 22.8,5.55 34.1,8.48 101.6,25.84 169,101.87 255.9,168.26 82.3,62.93 188.5,290.56 188.5,290.56 l 238.9,10.8 c 0,0 -100.6,-204.12 -138.3,-292.03 -22.3,-51.82 -12.8,-115.36 -3.2,-164.17 5.2,-26.53 10.3,-53.67 8.3,-81.12" /></g><g
         transform="scale(1.28636)"
         id="g380"><path
           id="path382"
           style="fill:#1a4108;fill-opacity:1;fill-rule:nonzero;stroke:none"
           d="m 16055.3,2102.37 c -126,14.62 -92.5,-17.26 -268.8,-19.66 -176.3,-2.49 -237.1,55.81 -245.6,81 -7.6,22.31 77.3,41.12 168.1,63.28 l 1.1,-1.71 c 0,0 113.6,-60.87 258.7,-46.33 118.4,11.89 239.2,61.26 320.8,70.12 5.2,-26.75 10.4,-54.11 8.4,-81.78 -5.9,-78.67 -116.8,-79.53 -242.7,-64.92" /></g><g
         transform="scale(1.41763)"
         id="g384"><path
           id="path386"
           style="fill:#ffb27d;fill-opacity:1;fill-rule:nonzero;stroke:none"
           d="m 16298.2,1951.77 c -5.2,-71.38 -105.9,-72.23 -220.2,-59.11 -114.3,13.13 -83.9,-15.73 -243.8,-18.12 -160,-2.4 -215.2,50.43 -223,73.29 -6.9,20.31 70.2,37.45 152.6,57.56 10.3,2.54 20.7,5.15 31.1,7.76 92.9,23.77 154.4,93.39 233.9,154.2 75.2,57.63 0,398.76 0,398.76 l 240.4,23.35 c 0,0 -11.5,-287.17 -11.3,-417.74 0.1,-51.56 23.8,-101.08 32.6,-145.73 4.8,-24.27 9.5,-49.1 7.7,-74.22" /></g><g
         transform="scale(1.41763)"
         id="g388"><path
           id="path390"
           style="fill:#1a4108;fill-opacity:1;fill-rule:nonzero;stroke:none"
           d="m 16078,1892.66 c -114.3,13.13 -83.9,-15.73 -243.8,-18.12 -160,-2.4 -215.2,50.43 -223,73.29 -6.9,20.31 70.2,37.45 152.6,57.56 l 0.9,-1.48 c 0,0 103.1,-55.17 234.9,-41.84 107.3,10.87 216.8,55.8 290.9,63.92 4.8,-24.27 9.5,-49.1 7.7,-74.22 -5.2,-71.38 -105.9,-72.23 -220.2,-59.11" /></g><g
         transform="scale(1.47992)"
         id="g392"><path
           id="path394"
           style="fill:#a9453d;fill-opacity:1;fill-rule:nonzero;stroke:none"
           d="m 14940.2,7516.95 c -39.7,163.05 17.8,238.98 69.7,279.4 24.6,60.01 52.6,103.27 81.3,119.58 52.3,29.74 115,32.99 158.9,30.4 -11.3,11.65 -33.5,15.9 -33.5,15.9 27.2,4.04 87.9,-22.94 87.9,-22.94 378.4,145.8 437.8,-411.32 429.9,-540.76 -7.9,-129.42 -6.9,-281.87 190,-383.84 375.6,-194.58 -124.8,-927.88 -124.8,-927.88 9.6,104.61 -473.1,656.59 -724.9,821.91 -61.3,90.23 -83,249.64 -84.6,262.19 10.5,-126.39 32.1,-197.29 51.5,-237.21 -114.8,105.62 -131.8,359.24 -101.4,583.25" /></g><g
         transform="scale(1.4025)"
         id="g396"><path
           id="path398"
           style="fill:#ffb27d;fill-opacity:1;fill-rule:nonzero;stroke:none"
           d="m 15922.6,7281.4 c -1.4,-0.6 128.3,-67.91 225.7,-41.24 91.7,25.01 151.7,143.91 150.4,144.18 -38.8,7.71 -50,61.08 -49.2,290.41 l -17.5,-3.46 -295.3,-58.45 c 0,0 6.8,-92.91 6.9,-180.42 0.3,-73.48 -4.2,-143.18 -21,-151.02" /></g><g
         transform="scale(1.39665)"
         id="g400"><path
           id="path402"
           style="fill:#ed975d;fill-opacity:1;fill-rule:nonzero;stroke:none"
           d="m 16003.5,7644.74 c 0,0 6.8,-93.29 6.9,-181.17 165.9,4.67 253.7,156 289.6,239.87 l -296.5,-58.7" /></g><g
         transform="scale(1.41419)"
         id="g404"><path
           id="path406"
           style="fill:#008000;fill-opacity:0.81909543;fill-rule:nonzero;stroke:none"
           d="m 14613.9,2338.16 c -14.4,-44.97 17.9,-91.36 65.1,-93.55 l 114.3,-5.38 121.1,-3.67 c 30.3,-0.92 59.2,12.3 78.3,35.78 96.6,118.44 393.9,513.43 574.3,1087.26 5.1,16.12 10.4,32.39 16.1,48.86 119.1,347.34 366,783.28 496.1,1177.85 20.8,62.86 39.4,122.05 56,177.98 5.3,17.96 10.6,35.57 15.5,52.89 95.9,333.2 123.7,551.98 149.3,785.75 l -939.6,-7.56 c 0,0 -197.9,-1537.49 -746.5,-3256.21" /></g><g
         transform="scale(1.44445)"
         id="g408"><path
           id="path410"
           style="fill:#ffffff;fill-opacity:1;fill-rule:nonzero;stroke:none"
           d="m 15167.3,6005.8 c 2.3,-437.81 -64.2,-625.57 -64.2,-625.57 0,0 393.9,-200.14 862,-52.82 5.5,1.73 334.9,94.99 334.9,94.99 -7.8,17.72 -72.9,310.63 -80.5,326.9 -98.9,212.26 -125.8,301.36 -137.5,366.58 -21.7,121.84 -22.2,247.91 -11.4,366.78 28.6,314.72 113.5,575.95 113.5,575.95 -127.5,29.02 -247,80.01 -379.7,129.8 -30.6,-38.03 -123.9,-77.81 -204.9,-75.99 -93.3,2.05 -123.5,41.97 -118.7,85.55 -99.3,-55.28 -178.6,-107.52 -178.6,-107.52 -84.5,-146.7 -255.8,-289.19 -268.2,-514.19 -3.1,-55.32 133.3,-558.21 133.3,-570.46" /></g><g
         transform="scale(1.44158)"
         id="g412"><path
           id="path414"
           style="fill:#5f9aa8;fill-opacity:1;fill-rule:nonzero;stroke:none"
           d="m 15990.3,5968.86 c 40.3,-57.02 117.5,-403.66 309.7,-447.22 -99.1,247.02 -174.3,355.37 -186,431.33 -21.8,141.72 -22.2,288.43 -11.4,426.82 -64.3,112.8 -112.3,190.07 -112.3,190.07 -5.1,18.25 -102.3,318.75 -133.4,50.16 -31.1,-268.67 88.3,-587.42 133.4,-651.16" /></g><g
         transform="scale(1.40453)"
         id="g416"><path
           id="path418"
           style="fill:#ffb27d;fill-opacity:1;fill-rule:nonzero;stroke:none"
           d="m 15858.6,7519.08 c 0,0 390.3,-6.44 390.6,236.67 0.3,243.1 50.8,406 -198.4,420.39 -249.1,14.39 -297.7,-78.33 -317.5,-159.45 -19.8,-81.12 23.8,-489.67 125.3,-497.61" /></g><g
         transform="scale(1.41134)"
         id="g420"><path
           id="path422"
           style="fill:#a9453d;fill-opacity:1;fill-rule:nonzero;stroke:none"
           d="m 15796.5,8142.61 c 0,0 106.3,-283.83 269.5,-325.8 163.2,-41.96 234,1.76 234,1.76 0,0 -125.2,99.44 -151.1,273.03 0,0 -272.2,186.1 -352.4,51.01" /></g><g
         transform="scale(1.37003)"
         id="g424"><path
           id="path426"
           style="fill:#a9453d;fill-opacity:1;fill-rule:nonzero;stroke:none"
           d="m 16300,8364.41 c 0,0 -81.8,-65.27 -101.7,-128.74 -20,-63.46 -29,-194.11 -67.1,-189.67 0,0 -82.5,198.73 10.3,311.16 98.3,119.21 158.5,7.25 158.5,7.25" /></g><g
         transform="scale(1.33302)"
         id="g428"><path
           id="path430"
           style="fill:#ffb27d;fill-opacity:1;fill-rule:nonzero;stroke:none"
           d="m 16062.3,6178.58 -194.2,-592.19 110.7,-44.41 321.2,523.17 -237.7,113.43" /></g><g
         transform="scale(1.35641)"
         id="g432"><path
           id="path434"
           style="fill:#f99746;fill-opacity:1;fill-rule:nonzero;stroke:none"
           d="m 16300,7584.96 c 0,0 -225.1,-89.32 -290.2,-228.56 -65.2,-139.26 -163.8,-1073.2 -203,-1169.12 -39.3,-95.91 -68.9,-171.85 -68.9,-171.85 0,0 113.5,-95.62 227.6,-102.62 114.1,-7.08 334.5,1672.15 334.5,1672.15" /></g><g
         transform="scale(1.37186)"
         id="g436"><path
           id="path438"
           style="fill:#f99746;fill-opacity:1;fill-rule:nonzero;stroke:none"
           d="m 16300,7578.87 c 0,0 -231.1,-571.08 -237.9,-686.69 -6.8,-115.53 -27.2,-1890.06 -27.2,-1890.06 0,0 13.5,-81.57 -142.8,-47.53 -156.4,33.97 -197.2,67.94 -197.2,67.94 0,0 149.6,1094.57 108.8,1475.37 -40.8,380.72 312.8,1001.65 312.8,1001.65 l 183.5,79.32" /></g><g
         transform="scale(1.40124)"
         id="g440"><path
           id="path442"
           style="fill:#004f00;fill-opacity:0.81960785;fill-rule:nonzero;stroke:none"
           d="m 14930.1,2259.93 132.6,-4 c 23.7,-0.78 46.4,9.42 61.5,27.76 89.1,107.91 400,511.98 586.7,1105.95 5.1,16.27 10.5,32.69 16.2,49.32 120.2,350.54 369.4,790.51 500.8,1188.73 20.9,63.44 39.6,123.18 56.5,179.63 5.3,18.12 10.6,35.89 15.6,53.38 l -139.7,105.98 c 0,0 -419.2,-678.9 -549,-1317.84 -112.8,-555.01 -564.3,-1222.77 -681.2,-1388.91" /></g><g
         transform="scale(1.45042)"
         id="g444"><path
           id="path446"
           style="fill:#008000;fill-opacity:0.81960785;fill-rule:nonzero;stroke:none"
           d="m 15598.3,3467.61 c -2.2,-283.99 11.2,-916.91 45.8,-1226.33 3.2,-28.27 27.1,-49.64 55.6,-49.64 h 95.6 c 40.3,0 70.4,0.27 90.5,0.55 17.3,0.27 32.1,12.68 35.4,29.71 95.1,483.72 163.1,885.61 212.9,1232.88 41.7,290.61 78.8,539.85 107.2,754.34 28.7,215.87 48.6,396.64 55.7,549.35 1.1,24.06 2,47.44 2.5,70.19 0.4,22.82 0.5,44.95 0.4,66.53 l -791.7,77.15 c 10,-525.91 91.4,-1330.23 90.1,-1504.73" /></g><g
         transform="scale(1.45016)"
         id="g448"><path
           id="path450"
           style="fill:#004f00;fill-opacity:0.81960785;fill-rule:nonzero;stroke:none"
           d="m 15798.2,2192.04 c 36.2,0 64.2,0.2 84,0.48 21.1,0.27 39.1,15.38 43.2,36 94.4,481.04 162.1,881.07 211.7,1226.89 41.6,290.66 78.7,539.95 107.2,754.47 28.7,215.91 48.6,396.72 55.7,549.46 l -290.5,-170.88 c 0,0 185.4,-65.44 114.7,-560.63 -70.8,-495.25 -227.5,-1765.73 -326,-1835.79" /></g><g
         transform="scale(1.46589)"
         id="g452"><path
           id="path454"
           style="fill:#f99746;fill-opacity:1;fill-rule:nonzero;stroke:none"
           d="m 15591.6,4713.11 c 0,0 55.2,-199.33 246.1,-173.89 190.9,25.45 462.3,139.99 462.3,139.99 0,0 -81.6,257.72 -183,596.36 -122.8,409.92 -274.8,938.4 -346.4,1271.72 -20.2,93.46 -33.9,171.43 -39,227.3 l -158.3,307.24 c 0,0 -236.1,-529.97 -248.9,-663.54 -12.7,-133.64 267.2,-1705.18 267.2,-1705.18" /></g><g
         transform="scale(1.45311)"
         id="g456"><path
           id="path458"
           style="fill:#ffb27d;fill-opacity:1;fill-rule:nonzero;stroke:none"
           d="m 15921,6494.83 -210.8,649.28 c 0.6,-0.27 266.3,-79.07 400,-146.6 0,0 83.5,-107.71 135.2,-356.24 0,0 54.6,-596.58 -67.3,-814.8 0,0 -385.2,-77.08 -1001.3,134.74 v 141.22 c 0,0 674,-35.31 811.9,-51.34 l -67.7,443.74" /></g><g
         transform="scale(1.44944)"
         id="g460"><path
           id="path462"
           style="fill:#ed7d2b;fill-opacity:1;fill-rule:nonzero;stroke:none"
           d="m 15777.2,6208 c 8.6,-218.77 60.1,-643.49 519.1,-870.82 1.2,-0.62 2.5,-1.24 3.7,-1.72 -124.2,414.57 -278,949.06 -350.4,1286.15 -84.3,-125.98 -177.1,-293.15 -172.4,-413.61" /></g><g
         transform="scale(1.45483)"
         id="g464"><path
           id="path466"
           style="fill:#f99746;fill-opacity:1;fill-rule:nonzero;stroke:none"
           d="m 15691.7,7135.67 c 0,0 390.3,-27.5 484.4,-236.92 94,-209.44 123.9,-906.08 4.2,-1111.26 0,0 -164.7,-46.88 -456.1,7.56 -3.6,0.69 -7.2,1.37 -10.8,2.06 0,0 -92.9,227.59 -9.6,272.47 0,0 245.7,-12.78 220.1,68.39 -25.7,81.18 -232.2,997.7 -232.2,997.7" /></g><g
         transform="scale(1.37214)"
         id="g468"><path
           id="path470"
           style="fill:#a9453d;fill-opacity:1;fill-rule:nonzero;stroke:none"
           d="m 15599.6,6370.15 12.1,-39.14 679.2,211.27 c 0,0 9.1,10.28 4.6,23.98 -4.9,15.16 -16.8,15.16 -16.8,15.16 l -679.1,-211.27" /></g><g
         transform="scale(1.3142)"
         id="g472"><path
           id="path474"
           style="fill:#a9453d;fill-opacity:1;fill-rule:nonzero;stroke:none"
           d="m 16236,6612.33 51.3,38.65 12.7,-40.86 -64,2.21" /></g><g
         transform="scale(1.30969)"
         id="g476"><path
           id="path478"
           style="fill:#ffb27d;fill-opacity:1;fill-rule:nonzero;stroke:none"
           d="m 16178.9,5702.4 c 0,0 -180.6,-99.71 -204.3,-175.76 -23.8,-75.97 -7.4,-235.09 21.2,-232.73 28.7,2.37 71.5,171.04 95.2,182.87 23.8,11.91 57,47.49 57,21.38 0,-26.12 -23.8,-73.61 -11.9,-80.78 11.9,-7.1 49.9,66.5 76,80.78 26.1,14.28 37.1,131.71 62.5,163.24 25.4,31.54 -95.7,41 -95.7,41" /></g><g
         transform="scale(1.36493)"
         id="g480"><path
           id="path482"
           style="fill:#ffb27d;fill-opacity:1;fill-rule:nonzero;stroke:none"
           d="m 16157.2,6496.66 c 0,0 -154.9,95.39 -219.9,80.73 -64.9,-14.65 -230.5,-134.58 -150.9,-160.59 79.7,-25.93 144.2,1.25 174.8,-17.58 30.7,-18.91 53.3,-53.34 196,-52.9 142.8,0.51 0,150.34 0,150.34" /></g><path
         id="path484"
         style="fill:#a6c4ef;fill-opacity:1;fill-rule:nonzero;stroke:none"
         d="m 11814.1,2708.4 h -3.5 c -10.3,0 -19.7,4.3 -26.3,11.1 h 57.3 c -7.1,-6.9 -16.9,-11.1 -27.5,-11.1" /><path
         id="path486"
         style="fill:#1a8040;fill-opacity:0.4627451;fill-rule:nonzero;stroke:none"
         d="m 11784.3,2719.5 c -6.6,6.8 -10.6,16.1 -10.3,26.4 l 52.9,2294.9 h 158.6 l -131.9,-2295.1 c -0.6,-10.3 -5.1,-19.5 -12,-26.2 h -57.3" /><path
         id="path488"
         style="fill:#a6c4ef;fill-opacity:1;fill-rule:nonzero;stroke:none"
         d="m 10861.2,2708.4 h -3.5 c -10.3,0 -19.6,4.2 -26.2,11 h 57.1 c -7.1,-6.8 -16.8,-11 -27.4,-11" /><path
         id="path490"
         style="fill:#1a8040;fill-opacity:0.4627451;fill-rule:nonzero;stroke:none"
         d="m 10831.5,2719.4 c -6.6,6.8 -10.7,16.2 -10.4,26.5 l 53,2299.1 c 11.7,-2.7 23.9,-4.2 36.5,-4.2 h 122 l -131.9,-2295.1 c -0.6,-10.4 -5.1,-19.6 -12.1,-26.3 h -57.1" /><path
         id="path492"
         style="fill:#a6c4ef;fill-opacity:1;fill-rule:nonzero;stroke:none"
         d="m 13494.1,2708.4 h -3.5 c -10.7,0 -20.5,4.3 -27.7,11.3 h 57.7 c -6.7,-7 -16.1,-11.3 -26.5,-11.3" /><path
         id="path494"
         style="fill:#1a8040;fill-opacity:0.4627451;fill-rule:nonzero;stroke:none"
         d="m 13462.9,2719.7 c -6.8,6.7 -11.2,15.8 -11.8,26 l -131.9,2295.1 h 158.6 l 52.9,-2294.9 c 0.3,-10.2 -3.6,-19.4 -10.1,-26.2 h -57.7" /><path
         id="path496"
         style="fill:#1a8040;fill-opacity:0.4627451;fill-rule:nonzero;stroke:none"
         d="m 12991.3,5301.1 h -2238.5 v 1648.7 c 0,290.1 235.2,525.3 525.3,525.3 H 12466 c 290.1,0 525.3,-235.2 525.3,-525.3 V 5301.1" /><path
         id="path498"
         style="fill:#1a8040;fill-opacity:0.4627451;fill-rule:nonzero;stroke:none"
         d="m 11743.8,5040.8 h -833.2 c -12.6,0 -24.8,1.5 -36.5,4.2 -69.5,16.5 -121.3,79 -121.3,153.5 v 102.6 h 2238.5 212.8 -1460.3 c -64.4,0 -116.6,-52.2 -116.6,-116.6 v -27.1 c 0,-64.4 52.2,-116.6 116.6,-116.6" /><path
         id="path500"
         style="fill:#1a8040;fill-opacity:0.4627451;fill-rule:nonzero;stroke:none"
         d="m 13478.9,5040.8 h -1735.1 v 0 c -64.4,0 -116.6,52.2 -116.6,116.6 v 27.1 c 0,64.4 52.2,116.6 116.6,116.6 h 1460.3 274.8 c 64.5,0 116.7,-52.2 116.7,-116.6 v -27.1 c 0,-64.4 -52.2,-116.6 -116.7,-116.6" /><path
         id="path502"
         style="fill:#ffb27d;fill-opacity:1;fill-rule:nonzero;stroke:none"
         d="m 14777.1,3667.8 c 16.6,-82.9 134.7,-69.1 266.7,-36.8 132,32.2 100.6,-6.1 288.4,14.7 187.9,20.8 244.8,90.8 250.5,118.7 5.1,24.8 -87.7,33.5 -187.2,45 -12.6,1.4 -25.1,3 -37.7,4.5 -112.4,14.1 -194.7,86.6 -296.8,146.2 -96.7,56.4 -241,286.3 -241,286.3 l -257.6,-20.4 c 0,0 135.2,-205.3 187.5,-294.6 30.7,-52.5 29.1,-121.9 25.3,-175.5 -2,-29.2 -3.9,-58.9 1.9,-88.1" /><path
         id="path504"
         style="fill:#1a4108;fill-opacity:1;fill-rule:nonzero;stroke:none"
         d="m 15043.8,3631 c 132,32.2 100.6,-6.1 288.4,14.7 187.9,20.8 244.8,90.8 250.5,118.7 5.1,24.8 -87.7,33.5 -187.2,45 l -1,-1.9 c 0,0 -112.6,-79.9 -268.9,-83.6 -127.5,-3.1 -262.4,33.4 -350.4,32 -2,-29.2 -3.9,-58.9 1.9,-88.1 16.6,-82.9 134.7,-69.1 266.7,-36.8" /><path
         id="path506"
         style="fill:#ffb27d;fill-opacity:1;fill-rule:nonzero;stroke:none"
         d="m 12563.5,3297.1 c -51.2,-67.3 37.3,-146.7 148.8,-224.3 111.5,-77.7 62,-79.5 201.8,-206.6 139.9,-127.1 230,-123.5 254.8,-109.3 22,12.6 -32.9,87.9 -90.1,170.2 -7.3,10.3 -14.4,20.8 -21.6,31.2 -63.8,93.6 -63.8,203.3 -86.7,319.3 -21.6,109.8 157.7,513.5 157.7,513.5 l -288.1,36.3 c 0,0 -37.7,-243.8 -70,-342.1 -19.1,-57.8 -99.1,-95.9 -141.8,-128.4 -23.2,-17.8 -46.8,-36.1 -64.8,-59.8" /><path
         id="path508"
         style="fill:#1a4108;fill-opacity:1;fill-rule:nonzero;stroke:none"
         d="m 12712.3,3072.8 c 111.5,-77.7 62,-79.5 201.8,-206.6 139.9,-127.1 230,-123.5 254.8,-109.3 22,12.6 -32.9,87.9 -90.1,170.2 l -2.1,-0.6 c 0,0 -134.4,31.7 -240.6,146.4 -86.6,93.5 -148.6,218.9 -207.8,284 -23.2,-17.8 -46.8,-36.1 -64.8,-59.8 -51.2,-67.3 37.3,-146.7 148.8,-224.3" /><path
         id="path510"
         style="fill:#1a8040;fill-opacity:1;fill-rule:nonzero;stroke:none"
         d="m 13740.3,5360.8 -263.2,-708.2 -343.6,-924.7 c 0,0 -93.2,-9 -182.5,16.7 -82.2,23.8 -176.5,85.9 -176.5,85.9 0,0 95.4,992.9 273.4,1562.8 45.6,146.3 96.7,264.6 153.1,331.3 275.9,326 539.3,-363.8 539.3,-363.8" /><path
         id="path512"
         style="fill:#1a8040;fill-opacity:1;fill-rule:nonzero;stroke:none"
         d="m 13472.7,6485.5 c -172.4,55.6 -692,22.4 -1185.9,-74.3 l -75.7,132.4 -1067,83.3 c 0,0 -352.1,-780.8 -159.3,-1278.3 28.3,-73.1 84.6,-120 180.6,-121.6 h 15.6 c 0,0 635,0.4 841.2,0.4 530.7,0 1123,364.8 1199.7,380.1 125.4,25.1 175.6,-225.8 301,-489.2 125.4,-263.4 1179,-1166.5 1179,-1166.5 0,0 162,-1.6 228.9,23.5 71.9,27 98.2,62 98.2,62 0,0 -1167.4,2322.8 -1556.3,2448.2" /><path
         id="path514"
         style="fill:#1a8040;fill-opacity:1;fill-rule:nonzero;stroke:none"
         d="m 11837.4,9773.3 c -150.1,35.8 -354.1,-6.2 -387.9,-10.1 -405.2,-47.3 -495.8,-676.8 -465.7,-852.8 55.6,-324.5 -100.3,-415.9 -286.3,-675.4 -372.8,-520.3 -115.3,-948.8 188.3,-1055 182.1,-63.7 430.2,109.8 430.2,109.8 4.6,-1.7 644.3,609 960.8,905.7 531.9,219.2 -56.6,1486.7 -439.4,1577.8" /><path
         id="path516"
         style="fill:#ffb27d;fill-opacity:1;fill-rule:nonzero;stroke:none"
         d="m 11924.2,8289.3 c 1.9,-0.6 -165,-109.6 -301,-86.7 -127.9,21.5 -263.3,188.4 -261.6,189 51.7,15.7 97.4,76.1 65.1,387.4 l 24.3,-2.3 408.9,-39.2 c 0,0 3.5,-127.1 15.1,-246 9.7,-99.8 25.3,-193.8 49.2,-202.2" /><path
         id="path518"
         style="fill:#ed975d;fill-opacity:1;fill-rule:nonzero;stroke:none"
         d="m 11859.9,8737.5 c 0,0 3.5,-127.1 15.1,-246 -224.9,-16.1 -364,176.6 -424,285.2 l 408.9,-39.2" /><path
         id="path520"
         style="fill:#ffb27d;fill-opacity:1;fill-rule:nonzero;stroke:none"
         d="m 11946,8632.4 c 0,0 -529.8,-61.9 -563.3,268.7 -33.5,330.5 -124.4,545.2 212.5,598.7 336.9,53.5 415.5,-66 453.5,-173.6 38,-107.6 34.3,-669.1 -102.7,-693.8" /><path
         id="path522"
         style="fill:#1a8040;fill-opacity:1;fill-rule:nonzero;stroke:none"
         d="m 11985.5,9496 c 0,0 -255.9,-366.3 -473.1,-446 -217.3,-79.7 -320,-29.6 -320,-29.6 0,0 103.6,142.7 137.8,339 10.1,57.9 50.3,106.1 105.7,125.5 155.8,54.4 456.2,137.7 549.6,11.1" /><path
         id="path524"
         style="fill:#1a8040;fill-opacity:1;fill-rule:nonzero;stroke:none"
         d="m 11774,9469 c 0,0 136.8,-78.1 191.4,-148 52.7,-67.4 109.1,-246.5 100.9,-325.4 0,0 86.2,376 -51.8,512.8 -146.3,145.1 -240.5,-39.4 -240.5,-39.4" /><path
         id="path526"
         style="fill:#ffffff;fill-opacity:1;fill-rule:nonzero;stroke:none"
         d="m 12331.6,7412.3 c -16,-1070.3 -4.4,-846.7 -121.5,-948.2 -28.2,-24.5 -107.5,-39 -211.9,-45.9 -328.1,-21.8 -905,32.3 -927,92.9 -75.7,209.9 -22.2,275.1 -85.4,596.3 -6.6,34.2 -14.7,71.2 -24.3,111.5 -52.6,220.6 -103.9,295.7 82.9,650.2 169.5,321.1 352.4,577.6 368.2,568.2 447,-265.3 476.1,-38.2 476.1,-38.2 0,0 450.7,-464.8 442.9,-986.8" /><path
         id="path528"
         style="fill:#1a8040;fill-opacity:1;fill-rule:nonzero;stroke:none"
         d="m 13477.1,4652.6 -351.4,-963.2 c 0,0 -126.2,-41.1 -218.2,-27.8 -93.6,13.7 -145,64.8 -145,64.8 0,0 107.4,1097 285.4,1666.9 l 429.2,-740.7" /><path
         id="path530"
         style="fill:#ffffff;fill-opacity:1;fill-rule:nonzero;stroke:none"
         d="m 11888.7,8399.2 c 0,0 459.9,-78 513.9,-276 54.1,-198 449,-1289.2 449,-1289.2 0,0 -310.9,-114.9 -419,-6.9 -108,108 -375.8,1002.1 -375.8,1002.1 l -168.1,570" /><path
         id="path532"
         style="fill:#dfebfd;fill-opacity:1;fill-rule:nonzero;stroke:none"
         d="m 11998.2,6418.2 c -328.1,-21.8 -905,32.3 -927,92.9 -75.7,209.9 -22.2,275.1 -85.4,596.3 l 154,350.5 c 0,0 -21.9,-401.1 124.5,-531.6 146.2,-130.6 599.3,-252 670.5,-361.1 34.3,-52.4 56.9,-104.9 63.4,-147" /><path
         id="path534"
         style="fill:#ffb27d;fill-opacity:1;fill-rule:nonzero;stroke:none"
         d="m 12025,6646.6 c 0,0 97.7,-84.3 125.5,-91.2 27.8,-6.7 43.7,-0.4 43.7,-0.4 l -71.3,83.4 -97.9,8.2" /><path
         id="path536"
         style="fill:#ffb27d;fill-opacity:1;fill-rule:nonzero;stroke:none"
         d="m 11986.2,6745.9 247.5,-63.9 c 0,0 -6.4,-17.6 -34.4,-21.9 -28,-4.4 -103.2,7.1 -103.2,7.1 l -109.9,78.7" /><path
         id="path538"
         style="fill:#ffb27d;fill-opacity:1;fill-rule:nonzero;stroke:none"
         d="m 11566.6,6609.5 c 0,0 353.3,157.2 419.6,136.4 66.4,-20.8 236.4,-110.8 263.1,-148.7 26.7,-37.9 -139.3,4.7 -191.1,7.9 -33.6,2.1 -111.5,-43.9 -150.2,-66.2 -162.8,-93.5 -275.8,-85.2 -275.8,-85.2 l -65.6,155.8" /><path
         id="path540"
         style="fill:#ffffff;fill-opacity:1;fill-rule:nonzero;stroke:none"
         d="m 11412.6,8437.3 c 0,0 -499.8,-93.8 -592.4,-232.3 -202,-302.3 -632.1,-1554.7 -391.3,-1722.6 271.3,-189.2 1234.5,-49.5 1234.5,-49.5 0,0 32,149.8 -12.6,222.3 -44.5,72.5 -769.3,189.5 -802.7,223 -33.5,33.4 330.4,517.1 291.7,609.7 -124.2,296.5 272.8,949.4 272.8,949.4" /><path
         id="path542"
         style="fill:#ffb27d;fill-opacity:1;fill-rule:nonzero;stroke:none"
         d="m 13388.5,6662.9 c 0,0 349.8,-94.5 385.7,-148.8 36,-54.3 106.4,-220.3 103.4,-263.6 -3,-43.3 -98.5,85.7 -134.2,118.7 -23.2,21.4 -107.1,33.9 -148.4,40.6 -103.9,16.9 -154.1,64.5 -193,88.2 -26.2,15.9 -57.9,12.9 -57.9,12.9 l 44.4,152" /><path
         id="path544"
         style="fill:#ffb27d;fill-opacity:1;fill-rule:nonzero;stroke:none"
         d="m 13743.7,6419 c 0,0 21.2,-119.1 37.4,-140.4 16.3,-21.4 31.5,-26.2 31.5,-26.2 l -2.5,102.8 -66.4,63.8" /><path
         id="path546"
         style="fill:#ffb27d;fill-opacity:1;fill-rule:nonzero;stroke:none"
         d="m 13774.2,6514.1 142.3,-192.7 c 0,0 -15.1,-9 -38.1,4.4 -22.9,13.4 -70.8,66.1 -70.8,66.1 l -33.4,122.2" /><path
         id="path548"
         style="fill:#ffb27d;fill-opacity:1;fill-rule:nonzero;stroke:none"
         d="m 13402,6498 c 0,0 32.4,-78.7 97.1,-106.9 64.8,-28.3 112.3,-70.7 122.7,-55.4 10.4,15.2 -49,95.5 -49,95.5 L 13402,6498" /><path
         id="path550"
         style="fill:#ffffff;fill-opacity:1;fill-rule:nonzero;stroke:none"
         d="m 12758.7,7092 735.7,-465.1 c 0,0 -77.3,-103.3 -103.1,-112.8 -136.2,-49.9 -748.8,-2.1 -958.7,313 l 326.1,264.9" /><path
         id="path552"
         style="fill:#f9ddbf;fill-opacity:1;fill-rule:nonzero;stroke:none"
         d="m 12467.2,6586.6 c 43.4,0 475.2,29.9 475.2,29.9 0,0 -12.5,-76.5 14.2,-117.5 l -420.8,-80.5 -86.4,25.4 17.8,142.7" /><path
         id="path554"
         style="fill:#f99746;fill-opacity:1;fill-rule:nonzero;stroke:none"
         d="m 11747,6517.2 720.2,69.4 c 0,0 -25.3,-133.3 68.6,-168.1 l -793.9,-58.1 c 0,0 -64,90.1 5.1,156.8" /><path
         id="path556"
         style="fill:#f99746;fill-opacity:1;fill-rule:nonzero;stroke:none"
         d="m 12941.2,6607 -486.7,-37.5 c 0,0 3.6,16.8 12.7,17.1 9.1,0.2 483.5,34.6 483.5,34.6 l -1.7,-13.3 -7.8,-0.9" /><path
         id="path558"
         style="fill:#f99746;fill-opacity:1;fill-rule:nonzero;stroke:none"
         d="m 12535.8,6418.5 428.7,81.5 -4,11.1 -456.8,-87.5 32.1,-5.1" /><path
         id="path560"
         style="fill:#1a8040;fill-opacity:0.4627451;fill-rule:nonzero;stroke:none"
         d="m 7547.7,2712.2 h -3.87 c -22.82,0 -41.16,18.9 -40.64,41.8 l 61.62,2686.6 181.53,21.3 -154.8,-2708.1 c -1.33,-23.3 -20.56,-41.6 -43.84,-41.6" /><path
         id="path562"
         style="fill:#77a4e5;fill-opacity:1;fill-rule:nonzero;stroke:none"
         d="m 6489.89,2712.2 h -3.87 c -22.82,0 -41.17,18.9 -40.64,41.8 l 61.63,2686.6 181.52,21.3 -154.79,-2708.1 c -1.34,-23.3 -20.58,-41.6 -43.85,-41.6" /><path
         id="path564"
         style="fill:#1a8040;fill-opacity:0.4627451;fill-rule:nonzero;stroke:none"
         d="m 9408.85,2712.2 h 3.87 c 22.82,0 41.16,18.9 40.64,41.8 l -61.63,2686.6 -181.52,21.3 L 9365,2753.8 c 1.34,-23.3 20.57,-41.6 43.85,-41.6" /><path
         id="path566"
         style="fill:#1a8040;fill-opacity:0.4627451;fill-rule:nonzero;stroke:none"
         d="m 6369.61,5607.2 v 1841 c 0,323.9 261.07,586.5 583.12,586.5 h 1318.66 c 322.05,0 583.12,-262.6 583.12,-586.5 V 5536.9 l -2484.9,70.3" /><path
         id="path568"
         style="fill:#1a8040;fill-opacity:0.4627451;fill-rule:nonzero;stroke:none"
         d="M 9090.77,5316.6 H 6545.21 c -96.98,0 -175.6,78.6 -175.6,175.6 v 115 h 2721.16 v -290.6" /><path
         id="path570"
         style="fill:#1a8040;fill-opacity:0.4627451;fill-rule:nonzero;stroke:none"
         d="M 9395.5,5316.6 H 7470.05 c -71.71,0 -129.84,58.1 -129.84,129.8 v 31 c 0,71.7 58.13,129.8 129.84,129.8 H 9395.5 c 71.71,0 129.85,-58.1 129.85,-129.8 v -31 c 0,-71.7 -58.14,-129.8 -129.85,-129.8" /><path
         id="path572"
         style="fill:#f9ddbf;fill-opacity:1;fill-rule:nonzero;stroke:none"
         d="m 8360.12,8714.7 c 0,0 -110.37,-93.9 -134.35,-337.4 -18.22,-184.9 110.06,-1620.3 206.56,-1734.4 271.55,-320.9 611.9,-185.3 745.22,-234 l 125.76,113 c 0,0 -442.19,326.3 -475.83,432.8 -129.55,409.9 -49.24,1605.2 -467.36,1760" /><path
         id="path574"
         style="fill:#1a8040;fill-opacity:1;fill-rule:nonzero;stroke:none"
         d="m 8280.78,9885.5 c 0,0 7.47,263.2 -339.72,314.9 -347.19,51.6 -443.12,-29.5 -502.15,-118.1 -59.03,-88.5 -169.72,-450.1 -158.65,-594 11.07,-143.9 407.07,-321.8 400.61,-405.8 -6.45,-83.9 599.91,803 599.91,803" /><path
         id="path576"
         style="fill:#ffb27d;fill-opacity:1;fill-rule:nonzero;stroke:none"
         d="m 9891.11,2939.3 c -11.26,-88.9 110.09,-115.1 251.19,-127.5 141.2,-12.4 97.4,-40.3 289.9,-83.1 192.5,-42.9 272.1,8.3 287,34.4 13.4,23.2 -75.4,63.5 -169.9,108.8 -11.9,5.6 -23.9,11.5 -35.8,17.3 -106.3,52.3 -163.4,153.2 -244.4,247.7 -76.8,89.6 -142.7,369.7 -142.7,369.7 l -261.27,66.9 c 0,0 65.08,-252.3 86.96,-359.8 12.88,-63.2 -11.88,-132.5 -33.55,-185.1 -11.69,-28.6 -23.5,-57.9 -27.43,-89.3" /><path
         id="path578"
         style="fill:#1a4108;fill-opacity:1;fill-rule:nonzero;stroke:none"
         d="m 10142.3,2811.8 c 141.2,-12.4 97.4,-40.3 289.9,-83.1 192.5,-42.9 272.1,8.3 287,34.4 13.4,23.2 -75.4,63.5 -169.9,108.8 l -1.6,-1.6 c 0,0 -137.9,-42.1 -293.6,7.2 -127,40.1 -248.1,122.7 -335.56,151.1 -11.69,-28.6 -23.5,-57.9 -27.43,-89.3 -11.26,-88.9 110.09,-115.1 251.19,-127.5" /><path
         id="path580"
         style="fill:#ed7d2b;fill-opacity:1;fill-rule:nonzero;stroke:none"
         d="m 7934.79,6566.3 c 0,0 1746.84,-181.2 2034.77,-448.7 287.94,-267.4 236.64,-2758.6 236.64,-2758.6 -44.8,-46.5 -77.9,-45.4 -148.7,-39.9 -67.98,5.4 -206.56,63.8 -206.56,63.8 0,0 -374.11,1223.3 -378.78,1506.5 -4.67,283.3 -63.83,763.9 -182.65,792.3 -118.82,28.3 -1533.01,-130.3 -1688.05,316.4 -155.04,446.7 102.4,814.2 102.4,814.2 l 230.93,-246" /><path
         id="path582"
         style="fill:#f9ddbf;fill-opacity:1;fill-rule:nonzero;stroke:none"
         d="m 7118.84,6116.9 c 75.38,-50.4 210.15,-128.2 436.28,-136.3 404.66,-14.7 909.59,33.5 1008.98,127.4 25.79,24.2 38.41,64.4 41.95,115.3 10.96,155.3 -63.2,410.8 -113,622.2 -32.33,137.3 -54.35,256 -36.31,316.6 54.9,184.7 225.46,560.9 240.18,684.5 14.73,123.6 -132.82,786.1 -336.8,868.1 -204.1,82.1 -991.39,0 -991.39,0 -307.59,-62.4 -320.54,-718.2 -218.38,-1276.4 2.65,-14.4 5.31,-28.7 8.08,-42.8 110.68,-566.8 -249.89,-1137.7 -39.59,-1278.6" /><path
         id="path584"
         style="fill:#ffb27d;fill-opacity:1;fill-rule:nonzero;stroke:none"
         d="m 8135.98,8594.1 c -5.53,-36 -103.99,-94.3 -314.44,-38.9 -201.66,53.2 -225.87,118.9 -225.83,162.2 0.05,51.4 87.65,120.5 86.52,436.4 l 24.18,-4.8 406.57,-80.5 c 0,0 -9.25,-127.9 -9.52,-248.5 -0.28,-101.2 41.74,-166.1 32.52,-225.9" /><path
         id="path586"
         style="fill:#ed975d;fill-opacity:1;fill-rule:nonzero;stroke:none"
         d="m 8112.98,9068.5 c 0,0 -9.25,-127.9 -9.52,-248.5 -227.52,6.4 -347.78,214 -397.05,329 l 406.57,-80.5" /><path
         id="path588"
         style="fill:#ffb27d;fill-opacity:1;fill-rule:nonzero;stroke:none"
         d="m 8188.96,8954.4 c 0,0 -538.29,-8.9 -538.66,326.4 -0.37,335.3 -70.1,560 273.57,579.8 343.67,19.9 410.59,-108 437.94,-219.9 27.34,-111.9 -32.84,-675.4 -172.85,-686.3" /><path
         id="path590"
         style="fill:#1a8040;fill-opacity:1;fill-rule:nonzero;stroke:none"
         d="m 8169.04,9868.8 c 0,0 -147.38,-393.3 -373.57,-451.5 -226.19,-58.2 -324.3,2.4 -324.3,2.4 0,0 173.5,137.9 209.5,378.5 0,0 377.19,257.9 488.37,70.6" /><path
         id="path592"
         style="fill:#1a8040;fill-opacity:1;fill-rule:nonzero;stroke:none"
         d="m 8132.51,9836.9 c 0,0 110.07,-87.8 136.9,-173.2 26.84,-85.4 38.91,-261.2 90.14,-255.2 0,0 111.04,267.4 -13.75,418.6 -132.32,160.4 -213.29,9.8 -213.29,9.8" /><path
         id="path594"
         style="fill:#ffb27d;fill-opacity:1;fill-rule:nonzero;stroke:none"
         d="m 8579.17,2866.2 c -1.29,-89.7 122.16,-101.7 263.77,-97.7 141.61,3.9 101.22,-28.8 297.25,-49.2 196.03,-20.4 269.41,39.6 281.38,67.3 10.67,24.5 -82.02,54.3 -180.98,88.4 -12.46,4.3 -24.94,8.7 -37.42,13.1 -111.47,39.8 -179.45,133.4 -270.45,218 -86.2,80.1 104.06,467.8 104.06,467.8 l -249.4,123.4 c 0,0 -47.3,-276.7 -108.2,-518.9 -15.73,-62.5 -67.02,-165.6 -82.69,-220.3 -8.43,-29.8 -16.91,-60.3 -17.32,-91.9" /><path
         id="path596"
         style="fill:#f2ccaa;fill-opacity:1;fill-rule:nonzero;stroke:none"
         d="m 7129.58,6183.6 c 75.38,-50.5 199.41,-194.9 425.54,-203 373.22,84.9 798.13,183.7 1050.93,242.7 10.96,155.3 -63.2,410.8 -113,622.2 -294.75,-90 -733.39,216.6 -880.82,337.8 -154.96,127.3 -150.09,551.4 -150.09,551.4 l -311.79,-296.4 c 2.65,-14.4 5.31,-28.7 8.08,-42.8 110.68,-566.8 -239.14,-1071 -28.85,-1211.9" /><path
         id="path598"
         style="fill:#1a4108;fill-opacity:1;fill-rule:nonzero;stroke:none"
         d="m 8842.94,2768.5 c 141.61,3.9 101.22,-28.8 297.25,-49.2 196.03,-20.4 269.41,39.6 281.38,67.3 10.67,24.5 -82.02,54.3 -180.98,88.4 l -1.37,-1.7 c 0,0 -132.36,-57.7 -292.56,-26.7 -130.58,25.3 -260.15,93.3 -350.17,111.5 -8.43,-29.8 -16.91,-60.3 -17.32,-91.9 -1.29,-89.7 122.16,-101.7 263.77,-97.7" /><path
         id="path600"
         style="fill:#f99746;fill-opacity:1;fill-rule:nonzero;stroke:none"
         d="m 7557.87,6459.7 c 443.51,12.7 1768.14,-93.1 2022.62,-284.9 313.22,-236.2 -581.59,-2790.1 -581.59,-2790.1 0,0 -103.9,-10 -136.81,-6.3 -142.11,16.1 -199.99,59.4 -199.99,59.4 0,0 3.46,1503.1 108.01,1790.7 96.61,265.6 155.81,359.6 34.78,375.5 -121.04,15.9 -1631.61,-176.8 -1757.69,279.2 -98.48,356.2 47.02,685.9 47.02,685.9 0,0 54.5,-121 463.65,-109.4" /><path
         id="path602"
         style="fill:#f9ddbf;fill-opacity:1;fill-rule:nonzero;stroke:none"
         d="m 7368.73,8714.7 c 0,0 -308.08,-26.1 -332.06,-269.6 -18.2,-184.9 -152.21,-1496.4 -55.71,-1610.5 271.55,-320.9 1177.03,-389 1310.35,-437.7 l 36.67,151.8 c 0,0 -966.63,487 -951.88,597.7 14.76,110.7 288.1,1612.1 -7.37,1568.3" /><path
         id="path604"
         style="fill:#1a8040;fill-opacity:1;fill-rule:nonzero;stroke:none"
         d="m 7606.58,10068 c 0,0 22.1,140.5 -172.71,176.7 -194.8,36.3 -198.45,-377.5 -219.32,-477.3 -20.87,-99.7 31.16,-159.5 105.45,-165.5 74.3,-6.1 286.58,466.1 286.58,466.1" /><path
         id="path606"
         style="fill:#ffb27d;fill-opacity:1;fill-rule:nonzero;stroke:none"
         d="m 8338.48,6555.4 c 0,0 275.29,77.9 340.87,59.7 65.58,-18.2 290.24,-167 258.65,-207.4 -31.58,-40.4 -229.5,24.2 -320.58,11.9 -91.08,-12.2 -161.51,-57.1 -227.08,-47.4 -65.57,9.7 -134.14,35.5 -134.14,35.5 l 82.28,147.7" /><path
         id="path608"
         style="fill:#ffb27d;fill-opacity:1;fill-rule:nonzero;stroke:none"
         d="m 8338.48,6555.4 c 0,0 134.69,69.2 173,108.6 4.84,4.9 13.02,3.9 16.73,-2 10.27,-16.2 19.88,-47.4 -27.37,-78.5 -68,-44.8 -162.36,-28.1 -162.36,-28.1" /><path
         id="path610"
         style="fill:#ffb27d;fill-opacity:1;fill-rule:nonzero;stroke:none"
         d="m 9303.31,6521.9 c 0,0 285.67,-15.7 341.79,-54.2 56.11,-38.5 220.35,-252.1 177.36,-280.1 -42.99,-28 -209.24,97.4 -299.35,115.4 -90.12,17.9 -171.32,-1.7 -230.19,28.8 -58.88,30.4 -115.37,77.1 -115.37,77.1 l 125.76,113" /><path
         id="path612"
         style="fill:#1a4108;fill-opacity:1;fill-rule:nonzero;stroke:none"
         d="M 7340.81,2688.7 H 6178.45 c -55.9,68.3 -35.31,320 -26.84,402.2 1.74,16.6 2.94,26.2 2.94,26.2 0,0 396.92,317.5 451.44,74.4 1.66,-7.7 3.68,-15.1 5.89,-22.4 68.68,-227.4 376.78,-330.8 554.7,-359.5 115.66,-18.8 158.42,-78.9 174.23,-120.9" /><path
         id="path614"
         style="fill:#1a6740;fill-opacity:1;fill-rule:nonzero;stroke:none"
         d="m 4169.17,6465.6 c 41.96,0 1991.05,-365.9 2313.45,-765 161.05,-199.4 185,-2501.8 185,-2501.8 0,0 -199.27,-247.1 -629.6,-103.6 0,0 -315.52,1575.3 -292.21,2053.1 6.44,132.1 -1331.72,19.1 -1576.64,82.5 -244.93,63.4 -843.35,596.2 -711.49,855.7 131.86,259.6 711.49,379.1 711.49,379.1" /><path
         id="path616"
         style="fill:#ffb27d;fill-opacity:1;fill-rule:nonzero;stroke:none"
         d="m 5580.44,6573.8 c 0,0 124.74,-107.6 252.66,-138 72.95,-17.4 143.63,-37.2 185.66,-56.5 115.75,-53.1 335.3,-290.2 314.87,-313.8 -65.46,-75.6 -329.14,121.3 -379.59,107.4 -50.45,-13.9 82.75,-128.3 29.91,-159.4 -27.6,-16.3 -79.59,82.6 -128.23,96.5 -65.81,18.8 -109.49,118.2 -129.18,125 -38.37,13.2 -198.52,156.8 -198.52,156.8 l 52.42,182" /><path
         id="path618"
         style="fill:#1a4108;fill-opacity:1;fill-rule:nonzero;stroke:none"
         d="M 7854.52,2688.7 H 6692.16 c -55.9,68.3 -35.3,320 -26.84,402.2 1.74,16.6 2.94,26.2 2.94,26.2 0,0 396.92,317.5 451.44,74.4 1.66,-7.7 3.68,-15.1 5.89,-22.4 68.68,-227.4 376.78,-330.8 554.69,-359.5 115.67,-18.8 158.43,-78.9 174.24,-120.9" /><path
         id="path620"
         style="fill:#1a8040;fill-opacity:1;fill-rule:nonzero;stroke:none"
         d="m 4743.53,6465.6 c 41.96,0 1991.05,-365.9 2313.45,-765 161.06,-199.4 185,-2501.8 185,-2501.8 0,0 -199.26,-247.1 -629.59,-103.6 0,0 -315.52,1575.3 -292.22,2053.1 6.44,132.1 -1331.72,19.1 -1576.64,82.5 -244.93,63.4 -843.35,596.2 -711.49,855.7 131.86,259.6 711.49,379.1 711.49,379.1" /><path
         id="path622"
         style="fill:#ffb27d;fill-opacity:1;fill-rule:nonzero;stroke:none"
         d="m 4621.55,8834.2 c -140.22,11.6 -287.23,49 -414.29,90.2 -158.83,51.5 -286.85,126.9 -204.35,272 76.03,133.8 199.09,432.7 190.77,680.3 l 295.55,-238.2 200.76,-161.7 c 0,0 -0.82,-95.4 -22.76,-262.6 -4.02,-30.4 -8.71,-63.3 -14.25,-98.5 -4.46,-28.4 8.59,-56.7 33.01,-71.9 1.52,-0.9 3.03,-1.8 4.54,-2.8 99.77,-62.7 48.45,-216.5 -68.98,-206.8" /><path
         id="path624"
         style="fill:#ed975d;fill-opacity:1;fill-rule:nonzero;stroke:none"
         d="m 4689.99,9516.1 c 0,0 10.27,-34.6 -7.37,-162.5 -178.98,29.2 -346.3,172 -346.3,172 91.12,25 124.28,123.5 192.15,114.3 l 161.52,-123.8" /><path
         id="path626"
         style="fill:#ffb27d;fill-opacity:1;fill-rule:nonzero;stroke:none"
         d="m 4855.55,9487 c 0,0 -688.47,-114.4 -753.1,315.4 -64.63,429.9 -197.02,704.6 239.82,795.8 436.84,91.2 547.11,-59.9 603.57,-198.2 56.47,-138.2 87.13,-872.2 -90.29,-913" /><path
         id="path628"
         style="fill:#1a8040;fill-opacity:1;fill-rule:nonzero;stroke:none"
         d="m 5047.09,10590.2 c 29.58,-103.5 -49.55,-229.5 -182.37,-271 -197.15,-61.7 -153.59,-303.5 -242.31,-300.2 -88.72,3.3 -124.51,139 -203.75,30.6 -67.6,-92.5 56.26,-202.2 47.74,-252.9 -14.63,-87.1 -151.04,-265.3 -273.96,-256.3 -122.92,8.9 -352.93,593.1 -306.93,773.8 46,180.7 230.02,371.3 404.17,397.6 174.16,26.3 416.01,-48.9 471.87,-48.9 55.87,0 269.57,-16.7 285.54,-72.7" /><path
         id="path630"
         style="fill:#ffffff;fill-opacity:1;fill-rule:nonzero;stroke:none"
         d="m 5217.85,6594.5 c -11.51,-99.2 -32.4,-166.7 -65.22,-188.6 -102.64,-68.8 -238.74,-154.2 -390.61,-238.9 -538.54,-300.3 -1275.85,-590.1 -1425.8,-82.6 -176.18,596.1 -60.43,1715.4 112.33,2410.6 99.44,400.5 374.52,820.8 560.49,820.4 316.86,-0.6 772.38,-84.2 956.33,-537.9 71.19,-175.8 175.85,-784.9 229.25,-1342.8 31.86,-332.4 45.51,-646.6 23.23,-840.2" /><path
         id="path632"
         style="fill:#dfebfd;fill-opacity:1;fill-rule:nonzero;stroke:none"
         d="m 3977.1,9311.5 71.75,161.7 c 0,0 636.11,-64.8 744.04,-430.3 0,0 -491.71,260.8 -815.79,268.6" /><path
         id="path634"
         style="fill:#dfebfd;fill-opacity:1;fill-rule:nonzero;stroke:none"
         d="m 5217.85,6594.5 c -11.51,-99.2 -32.4,-166.7 -65.22,-188.6 -102.64,-68.8 -238.74,-154.2 -390.61,-238.9 -158.48,96.4 -483.87,326.3 -559.96,597.2 -99.44,354.3 -29.74,790.2 -29.74,790.2 l 1045.53,-959.9" /><path
         id="path636"
         style="fill:#ffffff;fill-opacity:1;fill-rule:nonzero;stroke:none"
         d="m 4106.14,8766.4 c 0,0 55.17,-1522.5 141.75,-1823.5 147.64,-513.4 1494.19,-696.2 1494.19,-696.2 0,0 79.44,90 43.92,239.3 0,0 -805.02,634.5 -828.56,755.3 -23.55,120.8 175.4,939.4 -51.97,1237 -227.36,297.7 -646.57,555.6 -799.33,288.1" /><path
         id="path638"
         style="fill:#1a8040;fill-opacity:0.46231157;fill-rule:nonzero;stroke:none"
         d="m 2417.96,2703.2 -4.43,0.1 c -36.26,0.7 -64.26,30.3 -60.85,64.4 l 241.9,2415.9 211.09,-18.8 -347.35,-2428.9 c -2.72,-19 -20.07,-33.1 -40.36,-32.7" /><path
         id="path640"
         style="fill:#1a8040;fill-opacity:0.46231157;fill-rule:nonzero;stroke:none"
         d="m 3663.1,2703.2 -4.44,0.1 c -36.26,0.7 -64.27,30.3 -60.85,64.4 l 241.91,2415.9 211.08,-18.8 -347.35,-2428.9 c -2.72,-19 -20.07,-33.1 -40.35,-32.7" /><path
         id="path642"
         style="fill:#1a8040;fill-opacity:0.46231157;fill-rule:nonzero;stroke:none"
         d="m 6000.63,2703.2 4.44,0.1 c 36.26,0.7 64.27,30.3 60.85,64.4 l -241.9,2415.9 -211.09,-18.8 347.36,-2428.9 c 2.71,-19 20.07,-33.1 40.34,-32.7" /><path
         id="path644"
         style="fill:#1a8040;fill-opacity:0.46231157;fill-rule:nonzero;stroke:none"
         d="m 2486.33,5525.8 -229.6,2017.9 c -30.1,290.7 67.21,575.5 486.82,597.5 l 738.21,45 c 437.54,18 635.08,-346.1 690.47,-626.5 l 438.24,-2218 -2124.14,184.1" /><path
         id="path646"
         style="fill:#1a8040;fill-opacity:0.46231157;fill-rule:nonzero;stroke:none"
         d="m 2609.69,5148.3 h 3276.4 c 65.83,0 119.69,53.8 119.69,119.7 v 147.3 c 0,65.9 -53.86,119.7 -119.69,119.7 H 2490.01 v -267 c 0,-65.9 53.86,-119.7 119.68,-119.7" /><path
         id="path648"
         style="fill:#1a8040;fill-opacity:0.46231157;fill-rule:nonzero;stroke:none"
         d="m 2582.96,5148.3 h 1934.56 c 51.13,0 92.95,41.8 92.95,92.9 v 200.9 c 0,51.1 -41.82,92.9 -92.95,92.9 H 2490.01 v -293.8 c 0,-51.1 41.83,-92.9 92.95,-92.9" /><g
         transform="scale(1.88374)"
         id="g650"><path
           id="path652"
           style="fill:#1a4108;fill-opacity:1;fill-rule:nonzero;stroke:none"
           d="M 16278.1,1379.97 H 795.671 c -12.023,0 -21.86,9.82 -21.86,21.81 v 19.91 c 0,12.05 9.837,21.87 21.86,21.87 H 16278.1 c 12.1,0 21.9,-9.82 21.9,-21.87 v -19.91 c 0,-11.99 -9.8,-21.81 -21.9,-21.81" /></g></g></g></svg>
